{"glyphs":{"0":{"ha":797,"x_min":64,"x_max":732,"o":"m 732 357 l 732 629 q 641 902 732 802 q 398 1002 549 1002 q 156 902 247 1002 q 64 629 64 802 l 64 357 q 156 85 64 184 q 399 -14 248 -14 q 641 85 550 -14 q 732 357 732 184 m 535 650 l 535 338 q 499 190 535 241 q 399 138 464 138 q 298 190 334 138 q 262 338 262 241 l 262 650 q 297 797 262 745 q 398 849 333 849 q 499 797 463 849 q 535 650 535 745 "},"1":{"ha":797,"x_min":138,"x_max":540,"o":"m 540 0 l 540 1002 l 138 966 l 138 815 l 342 815 l 342 0 l 540 0 "},"2":{"ha":797,"x_min":57,"x_max":742,"o":"m 742 0 l 742 152 l 338 152 l 337 155 l 500 351 q 662 553 615 480 q 709 715 709 627 q 625 924 709 846 q 389 1002 541 1002 q 147 910 237 1002 q 60 688 57 819 l 62 684 l 254 684 q 290 802 254 755 q 389 849 325 849 q 481 812 450 849 q 511 715 511 776 q 483 612 511 668 q 385 475 454 556 l 79 130 l 79 0 l 742 0 "},"3":{"ha":797,"x_min":58,"x_max":745,"o":"m 393 581 l 283 581 l 283 432 l 393 432 q 508 394 469 432 q 547 279 547 357 q 505 178 547 218 q 395 138 463 138 q 295 175 334 138 q 256 269 256 213 l 63 269 l 62 264 q 159 59 58 132 q 395 -14 260 -14 q 647 63 549 -14 q 745 277 745 141 q 703 420 745 361 q 583 509 661 479 q 690 598 651 541 q 729 722 729 654 q 639 929 729 857 q 395 1002 549 1002 q 164 926 258 1002 q 75 735 71 851 l 76 731 l 267 731 q 304 816 267 783 q 395 849 341 849 q 496 812 460 849 q 532 720 532 776 q 497 617 532 654 q 393 581 463 581 "},"4":{"ha":797,"x_min":38,"x_max":759,"o":"m 648 368 l 648 987 l 448 987 l 38 333 l 47 214 l 450 214 l 450 0 l 648 0 l 648 214 l 759 214 l 759 368 l 648 368 m 218 368 l 425 683 l 446 727 l 450 726 l 450 368 l 218 368 "},"5":{"ha":797,"x_min":73,"x_max":736,"o":"m 94 435 l 269 424 q 312 481 281 460 q 399 502 342 502 q 503 451 468 502 q 538 315 538 401 q 506 184 538 230 q 404 138 474 138 q 306 172 343 138 q 269 269 269 207 l 78 260 l 77 256 q 170 58 73 130 q 404 -14 267 -14 q 654 79 572 -14 q 736 317 736 172 q 661 561 736 474 q 448 646 585 648 q 356 632 398 645 q 286 598 314 618 l 313 829 l 702 829 l 702 987 l 151 987 l 94 435 "},"6":{"ha":797,"x_min":64,"x_max":747,"o":"m 454 1002 q 175 889 285 1002 q 64 588 64 776 l 64 381 q 162 92 64 197 q 414 -14 259 -14 q 654 79 562 -14 q 747 320 747 172 q 675 554 747 465 q 477 644 604 644 q 356 623 410 644 q 262 563 301 602 l 262 595 q 315 780 262 713 q 455 846 368 846 q 540 839 503 846 q 623 815 576 831 l 658 960 q 561 991 610 981 q 454 1002 511 1002 m 412 494 q 512 448 475 494 q 549 320 549 401 q 512 190 549 241 q 414 138 475 138 q 303 200 345 138 q 262 376 262 262 l 262 429 q 320 477 283 460 q 412 494 358 494 "},"7":{"ha":797,"x_min":48,"x_max":743,"o":"m 743 835 l 743 987 l 48 987 l 48 835 l 552 835 q 332 498 408 668 q 256 122 256 328 l 256 0 l 454 0 l 454 122 q 515 482 454 325 q 743 835 575 639 "},"8":{"ha":797,"x_min":56,"x_max":749,"o":"m 716 731 q 631 931 716 861 q 409 1002 545 1002 q 178 931 267 1002 q 89 731 89 861 q 129 601 89 658 q 238 513 168 545 q 105 417 154 479 q 56 275 56 355 q 155 62 56 138 q 410 -14 255 -14 q 654 62 559 -14 q 749 275 749 138 q 702 417 749 355 q 574 513 654 479 q 678 601 640 545 q 716 731 716 658 m 551 285 q 511 178 551 218 q 410 138 471 138 q 298 178 342 138 q 254 285 254 218 q 298 393 254 351 q 409 435 342 435 q 510 393 469 435 q 551 285 551 351 m 519 722 q 489 625 519 661 q 410 588 459 588 q 321 625 355 588 q 287 722 287 662 q 320 815 287 782 q 409 849 353 849 q 488 815 458 849 q 519 722 519 781 "},"9":{"ha":797,"x_min":57,"x_max":725,"o":"m 361 138 q 269 146 309 138 q 185 172 228 154 l 152 28 q 255 -3 200 8 q 361 -14 309 -14 q 622 86 519 -14 q 725 357 725 186 l 725 623 q 631 901 725 801 q 387 1002 536 1002 q 150 904 243 1002 q 57 658 57 806 q 135 414 57 504 q 351 325 214 325 q 449 347 404 325 q 528 411 494 368 l 528 347 q 481 193 528 248 q 361 138 434 138 m 385 470 q 288 522 321 470 q 255 658 255 573 q 292 794 255 739 q 388 849 328 849 q 490 800 452 849 q 528 658 528 751 l 528 543 q 469 490 506 509 q 385 470 433 470 "},"\u0000":{"ha":0,"x_min":0,"x_max":0,"o":""},"\r":{"ha":346,"x_min":0,"x_max":0,"o":""}," ":{"ha":346,"x_min":0,"x_max":0,"o":""},"!":{"ha":378,"x_min":91,"x_max":289,"o":"m 289 340 l 289 987 l 91 987 l 91 340 l 289 340 m 289 0 l 289 174 l 91 174 l 91 0 l 289 0 "},"\"":{"ha":564,"x_min":96,"x_max":484,"o":"m 252 801 l 252 987 l 96 987 l 96 632 l 183 632 l 252 801 m 484 801 l 484 987 l 328 987 l 328 632 l 414 632 l 484 801 "},"#":{"ha":827,"x_min":33,"x_max":789,"o":"m 441 278 l 392 0 l 517 0 l 566 278 l 738 278 l 738 393 l 585 393 l 620 589 l 789 589 l 789 705 l 640 705 l 690 987 l 566 987 l 515 705 l 385 705 l 435 987 l 311 987 l 261 705 l 83 705 l 83 589 l 241 589 l 206 393 l 33 393 l 33 278 l 186 278 l 138 0 l 262 0 l 311 278 l 441 278 m 331 393 l 365 589 l 495 589 l 460 393 l 331 393 "},"$":{"ha":825,"x_min":71,"x_max":751,"o":"m 553 260 q 520 171 553 203 q 420 138 487 138 q 310 175 353 138 q 268 299 268 212 l 75 299 l 73 295 q 154 75 71 150 q 368 -12 238 0 l 368 -145 l 476 -145 l 476 -12 q 677 72 604 1 q 751 261 751 143 q 676 455 751 385 q 451 575 602 526 q 335 642 366 611 q 305 726 305 673 q 334 815 305 782 q 426 848 362 848 q 520 809 486 848 q 553 695 553 769 l 747 695 l 748 699 q 681 902 750 824 q 490 998 612 981 l 490 1145 l 382 1145 l 382 1000 q 181 914 255 987 q 107 726 107 841 q 181 534 107 602 q 408 414 255 465 q 522 349 490 382 q 553 260 553 315 "},"%":{"ha":1026,"x_min":64,"x_max":966,"o":"m 64 798 l 64 745 q 121 600 64 658 q 280 543 178 543 q 437 600 381 543 q 494 745 494 658 l 494 798 q 437 944 494 886 q 279 1002 381 1002 q 121 943 178 1002 q 64 798 64 885 m 196 745 l 196 798 q 217 864 196 837 q 279 892 239 892 q 340 864 319 892 q 362 798 362 837 l 362 745 q 341 679 362 706 q 280 652 319 652 q 218 679 239 652 q 196 745 196 706 m 536 242 l 536 190 q 594 44 536 102 q 753 -14 651 -14 q 910 44 854 -14 q 966 190 966 102 l 966 242 q 910 388 966 330 q 751 446 853 446 q 593 387 650 446 q 536 242 536 329 m 668 190 l 668 242 q 689 308 668 281 q 751 336 711 336 q 813 308 791 336 q 835 242 835 281 l 835 190 q 816 122 835 147 q 753 96 797 96 q 691 124 715 96 q 668 190 668 151 m 313 74 l 795 846 l 699 897 l 216 125 l 313 74 "},"&":{"ha":913,"x_min":41,"x_max":887,"o":"m 216 530 q 84 406 127 464 q 41 266 41 348 q 129 63 41 141 q 364 -14 216 -14 q 495 4 434 -14 q 614 60 556 23 l 666 0 l 886 0 l 887 3 l 751 163 q 826 304 802 224 q 850 481 850 385 l 692 481 q 678 380 692 428 q 640 293 665 333 l 457 507 l 526 555 q 611 651 583 600 q 640 773 640 703 q 573 935 640 868 q 397 1002 505 1002 q 200 935 272 1002 q 128 744 128 867 q 150 641 128 692 q 216 530 172 591 m 374 138 q 277 177 314 138 q 239 276 239 216 q 254 338 239 307 q 309 401 269 369 l 315 406 l 515 174 q 446 147 482 156 q 374 138 410 138 m 305 746 q 328 819 305 789 q 392 849 351 849 q 454 823 431 849 q 476 762 476 797 q 463 706 476 732 q 412 656 450 680 l 360 623 q 319 688 332 658 q 305 746 305 718 "},"'":{"ha":300,"x_min":62,"x_max":239,"o":"m 239 805 l 239 987 l 62 987 l 62 613 l 170 613 l 239 805 "},"(":{"ha":482,"x_min":84,"x_max":460,"o":"m 84 401 l 84 387 q 187 -65 84 120 q 420 -305 290 -250 l 425 -305 l 460 -208 q 311 8 372 -140 q 251 385 251 155 l 251 403 q 311 780 251 632 q 460 994 372 928 l 425 1093 l 420 1093 q 187 853 290 1038 q 84 401 84 667 "},")":{"ha":484,"x_min":21,"x_max":408,"o":"m 408 387 l 408 401 q 301 850 408 661 q 62 1093 193 1039 l 58 1093 l 21 997 q 169 780 107 930 q 231 403 231 631 l 231 385 q 170 7 231 155 q 21 -208 109 -142 l 58 -305 l 62 -305 q 301 -62 193 -251 q 408 387 408 127 "},"*":{"ha":581,"x_min":33,"x_max":550,"o":"m 189 451 l 90 309 l 189 239 l 287 374 l 388 233 l 486 305 l 392 442 l 550 496 l 514 612 l 358 559 l 353 733 l 234 733 l 233 564 l 70 618 l 33 503 l 189 451 "},"+":{"ha":758,"x_min":38,"x_max":715,"o":"m 471 551 l 471 818 l 283 818 l 283 551 l 38 551 l 38 380 l 283 380 l 283 99 l 471 99 l 471 380 l 715 380 l 715 551 l 471 551 "},",":{"ha":358,"x_min":43,"x_max":283,"o":"m 283 9 l 283 170 l 90 170 l 90 15 l 43 -205 l 175 -205 l 283 9 "},"-":{"ha":605,"x_min":99,"x_max":498,"o":"m 498 346 l 498 498 l 99 498 l 99 346 l 498 346 "},".":{"ha":404,"x_min":98,"x_max":296,"o":"m 296 0 l 296 174 l 98 174 l 98 0 l 296 0 "},"/":{"ha":559,"x_min":-9,"x_max":545,"o":"m 183 -85 l 545 987 l 353 987 l -9 -85 l 183 -85 "},":":{"ha":395,"x_min":98,"x_max":296,"o":"m 296 0 l 296 174 l 98 174 l 98 0 l 296 0 m 296 594 l 296 768 l 98 768 l 98 594 l 296 594 "},";":{"ha":381,"x_min":77,"x_max":317,"o":"m 296 594 l 296 768 l 98 768 l 98 594 l 296 594 m 317 9 l 317 170 l 125 170 l 125 15 l 77 -205 l 210 -205 l 317 9 "},"<":{"ha":707,"x_min":37,"x_max":621,"o":"m 230 373 l 621 513 l 621 698 l 37 450 l 37 296 l 621 47 l 621 231 l 230 369 l 230 373 "},"=":{"ha":801,"x_min":92,"x_max":700,"o":"m 700 517 l 700 673 l 92 673 l 92 517 l 700 517 m 700 225 l 700 380 l 92 380 l 92 225 l 700 225 "},">":{"ha":718,"x_min":81,"x_max":672,"o":"m 478 366 l 81 224 l 81 41 l 672 290 l 672 444 l 81 692 l 81 509 l 478 370 l 478 366 "},"?":{"ha":692,"x_min":20,"x_max":661,"o":"m 220 281 l 417 281 q 430 369 417 337 q 484 433 443 401 q 611 556 560 483 q 661 715 661 629 q 575 925 661 848 q 336 1002 488 1002 q 107 932 195 1002 q 22 733 20 863 l 23 729 l 216 729 q 251 817 216 787 q 336 846 286 846 q 430 811 397 846 q 463 713 463 776 q 434 612 463 657 q 357 527 406 566 q 248 420 275 464 q 220 281 220 376 m 418 0 l 418 170 l 219 170 l 219 0 l 418 0 "},"@":{"ha":1232,"x_min":33,"x_max":1184,"o":"m 1173 348 q 1044 797 1184 633 q 642 962 905 962 q 218 788 379 962 q 45 324 57 614 q 179 -138 33 31 q 593 -307 324 -307 q 730 -291 660 -307 q 846 -247 800 -275 l 820 -147 q 714 -181 776 -168 q 595 -195 653 -195 q 277 -56 388 -195 q 178 324 167 83 q 311 711 189 567 q 640 856 434 856 q 959 722 856 856 q 1052 348 1063 587 q 999 161 1046 235 q 874 87 952 87 q 836 111 850 87 q 826 199 821 134 l 861 587 l 857 587 l 859 590 q 754 644 802 627 q 628 662 707 662 q 433 558 513 662 q 336 282 353 454 q 373 68 322 149 q 520 -12 425 -12 q 624 16 580 -12 q 699 99 669 43 q 753 16 715 45 q 845 -14 792 -14 q 1086 93 1006 -14 q 1173 348 1167 200 m 488 282 q 540 480 500 414 q 654 545 579 545 q 687 543 671 545 q 718 535 703 540 l 688 199 q 688 194 688 196 q 688 190 688 193 q 632 125 663 142 q 564 107 602 107 q 501 152 520 107 q 488 282 481 196 "},"A":{"ha":884,"x_min":12,"x_max":880,"o":"m 606 213 l 673 0 l 880 0 l 548 987 l 345 987 l 12 0 l 219 0 l 286 213 l 606 213 m 334 368 l 444 716 l 448 716 l 557 368 l 334 368 "},"B":{"ha":885,"x_min":91,"x_max":831,"o":"m 91 0 l 473 0 q 738 73 644 0 q 831 288 831 146 q 785 435 831 372 q 646 515 738 498 q 749 595 713 542 q 784 717 784 649 q 686 919 784 851 q 414 987 589 987 l 91 987 l 91 0 m 289 437 l 471 437 q 593 398 553 437 q 634 288 634 359 q 593 186 634 220 q 473 152 551 152 l 289 152 l 289 437 m 289 574 l 289 835 l 414 835 q 543 802 500 835 q 586 701 586 770 q 543 606 586 639 q 421 574 500 574 l 289 574 "},"C":{"ha":884,"x_min":67,"x_max":837,"o":"m 831 327 l 640 327 q 596 184 640 231 q 463 138 552 138 q 317 210 370 138 q 264 395 264 281 l 264 593 q 314 778 264 706 q 453 849 364 849 q 594 803 549 849 q 640 661 640 756 l 833 661 l 834 665 q 735 913 837 825 q 453 1002 633 1002 q 174 887 280 1002 q 67 591 67 772 l 67 395 q 176 100 67 214 q 463 -14 286 -14 q 736 75 637 -14 q 833 323 836 165 l 831 327 "},"D":{"ha":919,"x_min":91,"x_max":851,"o":"m 91 0 l 435 0 q 734 115 616 0 q 851 412 851 230 l 851 575 q 734 872 851 756 q 435 987 616 987 l 91 987 l 91 0 m 289 835 l 435 835 q 593 762 533 835 q 652 576 652 690 l 652 412 q 593 225 652 298 q 435 152 533 152 l 289 152 l 289 835 "},"E":{"ha":772,"x_min":91,"x_max":724,"o":"m 655 434 l 655 587 l 289 587 l 289 835 l 723 835 l 723 987 l 91 987 l 91 0 l 724 0 l 724 152 l 289 152 l 289 434 l 655 434 "},"F":{"ha":772,"x_min":91,"x_max":737,"o":"m 668 410 l 668 563 l 289 563 l 289 835 l 737 835 l 737 987 l 91 987 l 91 0 l 289 0 l 289 410 l 668 410 "},"G":{"ha":925,"x_min":67,"x_max":848,"o":"m 848 135 l 848 516 l 459 516 l 459 379 l 649 379 l 649 188 q 586 152 627 166 q 474 138 545 138 q 321 208 378 138 q 264 391 264 279 l 264 598 q 320 779 264 709 q 467 849 376 849 q 599 805 553 849 q 644 683 644 762 l 831 683 l 832 687 q 739 916 836 830 q 462 1002 643 1002 q 178 889 288 1002 q 67 597 67 776 l 67 391 q 181 98 67 211 q 474 -14 295 -14 q 710 30 618 -14 q 848 135 802 75 "},"H":{"ha":980,"x_min":91,"x_max":889,"o":"m 889 0 l 889 987 l 691 987 l 691 563 l 289 563 l 289 987 l 91 987 l 91 0 l 289 0 l 289 410 l 691 410 l 691 0 l 889 0 "},"I":{"ha":408,"x_min":104,"x_max":302,"o":"m 302 0 l 302 987 l 104 987 l 104 0 l 302 0 "},"J":{"ha":771,"x_min":21,"x_max":682,"o":"m 484 987 l 484 306 q 450 183 484 228 q 361 138 415 138 q 257 175 296 138 q 218 292 218 213 l 26 292 l 24 288 q 113 63 21 140 q 361 -14 204 -14 q 592 73 502 -14 q 682 306 682 159 l 682 987 l 484 987 "},"K":{"ha":885,"x_min":91,"x_max":886,"o":"m 361 412 l 634 0 l 886 0 l 518 528 l 860 987 l 615 987 l 345 584 l 289 584 l 289 987 l 91 987 l 91 0 l 289 0 l 289 412 l 361 412 "},"L":{"ha":772,"x_min":91,"x_max":731,"o":"m 289 152 l 289 987 l 91 987 l 91 0 l 731 0 l 731 152 l 289 152 "},"M":{"ha":1208,"x_min":91,"x_max":1118,"o":"m 602 260 l 351 987 l 91 987 l 91 0 l 289 0 l 289 675 l 293 676 l 537 0 l 671 0 l 916 675 l 920 674 l 920 0 l 1118 0 l 1118 987 l 859 987 l 606 260 l 602 260 "},"N":{"ha":980,"x_min":91,"x_max":889,"o":"m 889 0 l 889 987 l 691 987 l 691 323 l 687 322 l 289 987 l 91 987 l 91 0 l 289 0 l 289 665 l 293 666 l 691 0 l 889 0 "},"O":{"ha":956,"x_min":66,"x_max":890,"o":"m 890 405 l 890 583 q 774 883 890 764 q 475 1002 659 1002 q 179 883 293 1002 q 66 583 66 764 l 66 405 q 180 104 66 223 q 477 -14 294 -14 q 775 104 661 -14 q 890 405 890 222 m 692 584 l 692 405 q 635 214 692 288 q 477 140 578 140 q 319 214 376 140 q 263 405 263 288 l 263 584 q 319 773 263 699 q 475 847 375 847 q 635 773 577 847 q 692 584 692 699 "},"P":{"ha":885,"x_min":91,"x_max":834,"o":"m 289 358 l 469 358 q 736 444 639 358 q 834 672 834 530 q 736 901 834 814 q 469 987 639 987 l 91 987 l 91 0 l 289 0 l 289 358 m 289 511 l 289 835 l 469 835 q 594 788 552 835 q 637 671 637 742 q 594 556 637 601 q 469 511 551 511 l 289 511 "},"Q":{"ha":977,"x_min":66,"x_max":958,"o":"m 890 405 l 890 583 q 774 883 890 764 q 475 1002 659 1002 q 179 883 293 1002 q 66 583 66 764 l 66 405 q 180 104 66 223 q 477 -14 294 -14 q 586 -2 534 -14 q 684 35 638 11 l 828 -107 l 958 -1 l 810 146 q 869 264 848 199 q 890 405 890 330 m 692 584 l 692 405 q 635 214 692 288 q 477 140 578 140 q 319 214 376 140 q 263 405 263 288 l 263 584 q 319 773 263 699 q 475 847 375 847 q 635 773 577 847 q 692 584 692 699 "},"R":{"ha":885,"x_min":91,"x_max":848,"o":"m 289 395 l 446 395 q 561 354 520 395 q 601 239 601 313 l 601 169 q 609 72 601 122 q 644 0 616 22 l 848 0 l 848 14 q 809 81 821 36 q 798 168 798 126 l 798 240 q 760 389 798 329 q 634 475 722 450 q 752 565 711 509 q 792 696 792 620 q 697 910 792 833 q 433 987 602 987 l 91 987 l 91 0 l 289 0 l 289 395 m 289 547 l 289 835 l 433 835 q 553 795 512 835 q 594 687 594 755 q 553 583 594 618 q 429 547 513 547 l 289 547 "},"S":{"ha":859,"x_min":55,"x_max":804,"o":"m 606 258 q 564 169 606 202 q 443 136 522 136 q 303 177 355 136 q 252 306 252 218 l 60 306 l 58 302 q 169 65 55 144 q 443 -14 283 -14 q 705 59 606 -14 q 804 259 804 132 q 718 455 804 380 q 470 575 633 529 q 320 643 363 611 q 277 726 277 675 q 317 816 277 781 q 430 851 357 851 q 555 811 511 851 q 600 698 600 772 l 792 698 l 793 702 q 697 919 797 836 q 433 1002 597 1002 q 178 925 278 1002 q 79 726 79 848 q 167 536 79 606 q 427 414 256 466 q 566 349 526 384 q 606 258 606 315 "},"T":{"ha":797,"x_min":21,"x_max":779,"o":"m 779 835 l 779 987 l 21 987 l 21 835 l 299 835 l 299 0 l 497 0 l 497 835 l 779 835 "},"U":{"ha":954,"x_min":81,"x_max":873,"o":"m 873 987 l 675 987 l 675 341 q 621 190 675 242 q 476 138 568 138 q 333 190 386 138 q 280 341 280 242 l 280 987 l 81 987 l 81 341 q 191 80 81 174 q 476 -14 300 -14 q 763 80 652 -14 q 873 341 873 174 l 873 987 "},"V":{"ha":884,"x_min":5,"x_max":879,"o":"m 427 268 l 214 987 l 5 987 l 340 0 l 543 0 l 879 987 l 670 987 l 455 266 l 444 214 l 439 214 l 427 268 "},"W":{"ha":1223,"x_min":14,"x_max":1209,"o":"m 870 317 l 691 987 l 531 987 l 353 318 l 349 318 l 218 987 l 14 987 l 244 0 l 428 0 l 609 650 l 613 650 l 795 0 l 979 0 l 1209 987 l 1005 987 l 874 317 l 870 317 "},"X":{"ha":884,"x_min":21,"x_max":873,"o":"m 440 637 l 258 987 l 28 987 l 321 498 l 21 0 l 252 0 l 443 356 l 633 0 l 873 0 l 563 498 l 856 987 l 625 987 l 440 637 "},"Y":{"ha":884,"x_min":7,"x_max":876,"o":"m 439 532 l 224 987 l 7 987 l 340 357 l 340 0 l 538 0 l 538 347 l 876 987 l 659 987 l 444 532 l 439 532 "},"Z":{"ha":789,"x_min":52,"x_max":739,"o":"m 286 152 l 727 888 l 727 987 l 53 987 l 53 835 l 492 835 l 52 103 l 52 0 l 739 0 l 739 152 l 286 152 "},"[":{"ha":387,"x_min":81,"x_max":375,"o":"m 375 1000 l 375 1147 l 81 1147 l 81 -228 l 375 -228 l 375 -81 l 279 -81 l 279 1000 l 375 1000 "},"\\":{"ha":585,"x_min":1,"x_max":610,"o":"m 1 987 l 414 -85 l 610 -85 l 197 987 l 1 987 "},"]":{"ha":387,"x_min":9,"x_max":303,"o":"m 9 1147 l 9 1000 l 105 1000 l 105 -81 l 9 -81 l 9 -228 l 303 -228 l 303 1147 l 9 1147 "},"^":{"ha":608,"x_min":30,"x_max":579,"o":"m 186 494 l 296 774 l 301 798 l 305 798 l 311 774 l 422 494 l 579 494 l 376 987 l 233 987 l 30 494 l 186 494 "},"_":{"ha":620,"x_min":1,"x_max":618,"o":"m 618 -149 l 618 0 l 1 0 l 1 -149 l 618 -149 "},"`":{"ha":460,"x_min":37,"x_max":391,"o":"m 391 849 l 258 1029 l 38 1029 l 37 1025 l 221 849 l 391 849 "},"a":{"ha":746,"x_min":39,"x_max":706,"o":"m 509 0 l 706 0 q 681 90 689 45 q 673 187 673 136 l 673 490 q 592 681 673 614 q 378 747 510 747 q 154 680 239 747 q 73 519 68 612 l 74 515 l 264 515 q 291 579 264 556 q 365 603 317 603 q 448 574 420 603 q 475 492 475 545 l 475 433 l 364 433 q 122 374 205 433 q 39 207 39 315 q 101 45 39 104 q 279 -14 163 -14 q 398 21 348 -14 q 479 110 448 56 q 490 53 482 81 q 509 0 498 25 m 328 132 q 261 154 285 132 q 237 214 237 176 q 269 290 237 259 q 364 321 301 321 l 475 321 l 475 218 q 420 158 460 184 q 328 132 379 132 "},"b":{"ha":784,"x_min":76,"x_max":738,"o":"m 738 347 l 738 361 q 665 642 738 536 q 452 747 591 747 q 350 724 394 747 q 273 656 305 700 l 273 1058 l 76 1058 l 76 0 l 243 0 l 260 92 q 341 13 293 40 q 453 -14 389 -14 q 665 84 591 -14 q 738 347 738 182 m 541 361 l 541 347 q 510 194 541 248 q 403 140 479 140 q 324 157 356 140 q 273 208 292 175 l 273 519 q 323 574 292 555 q 401 593 355 593 q 509 531 477 593 q 541 361 541 468 "},"c":{"ha":716,"x_min":42,"x_max":680,"o":"m 382 138 q 272 198 304 138 q 240 356 240 258 l 240 376 q 272 533 240 472 q 381 595 304 595 q 465 557 435 595 q 495 463 495 519 l 675 463 l 677 467 q 597 670 680 593 q 381 747 515 747 q 131 643 219 747 q 42 376 42 538 l 42 356 q 131 90 42 194 q 382 -14 220 -14 q 594 61 509 -14 q 677 247 680 136 l 675 251 l 495 251 q 465 169 495 199 q 382 138 434 138 "},"d":{"ha":784,"x_min":45,"x_max":707,"o":"m 45 361 l 45 347 q 120 85 45 184 q 330 -14 195 -14 q 439 13 391 -14 q 521 90 486 39 l 538 0 l 707 0 l 707 1058 l 508 1058 l 508 656 q 431 724 475 700 q 332 747 387 747 q 120 641 195 747 q 45 361 45 534 m 243 347 l 243 361 q 276 529 243 465 q 382 593 310 593 q 456 574 425 593 q 508 520 488 555 l 508 208 q 456 157 488 174 q 381 140 424 140 q 275 195 308 140 q 243 347 243 250 "},"e":{"ha":726,"x_min":45,"x_max":687,"o":"m 394 -14 q 558 10 483 -14 q 677 71 633 35 l 624 193 q 528 151 574 165 q 415 138 481 138 q 293 184 334 138 q 248 307 252 231 l 250 311 l 687 311 l 687 413 q 608 657 687 566 q 381 747 529 747 q 135 643 224 748 q 45 373 45 538 l 45 346 q 138 86 45 187 q 394 -14 230 -14 m 381 595 q 467 558 440 595 q 493 456 493 521 l 493 441 l 252 441 l 250 445 q 289 554 257 513 q 381 595 321 595 "},"f":{"ha":484,"x_min":18,"x_max":507,"o":"m 127 0 l 326 0 l 326 595 l 467 595 l 467 734 l 326 734 l 326 815 q 350 891 326 865 q 423 918 375 918 q 459 916 444 918 q 490 911 474 913 l 507 1058 q 450 1068 476 1065 q 399 1072 424 1072 q 199 1005 270 1072 q 127 815 127 939 l 127 734 l 18 734 l 18 595 l 127 595 l 127 0 "},"g":{"ha":784,"x_min":47,"x_max":708,"o":"m 47 361 l 47 347 q 122 85 47 184 q 332 -14 197 -14 q 433 7 389 -14 q 510 71 477 29 l 510 4 q 472 -102 510 -68 q 352 -136 433 -136 q 247 -124 296 -136 q 153 -92 199 -113 l 120 -239 q 235 -281 173 -266 q 353 -296 298 -296 q 614 -218 521 -296 q 708 3 708 -140 l 708 734 l 538 734 l 522 640 q 442 720 489 692 q 334 747 395 747 q 122 641 197 747 q 47 361 47 534 m 245 347 l 245 361 q 278 529 245 465 q 384 593 311 593 q 459 575 428 593 q 510 523 491 557 l 510 205 q 459 156 491 173 q 382 140 428 140 q 277 195 309 140 q 245 347 245 250 "},"h":{"ha":784,"x_min":71,"x_max":711,"o":"m 269 641 l 269 1058 l 71 1058 l 71 0 l 269 0 l 269 537 q 324 579 290 564 q 403 593 357 593 q 485 558 458 593 q 513 437 513 522 l 513 0 l 711 0 l 711 435 q 645 671 711 595 q 465 747 580 747 q 354 719 404 747 q 269 641 304 691 "},"i":{"ha":371,"x_min":86,"x_max":284,"o":"m 284 0 l 284 734 l 86 734 l 86 0 l 284 0 m 284 909 l 284 1058 l 86 1058 l 86 909 l 284 909 "},"j":{"ha":368,"x_min":-66,"x_max":290,"o":"m 290 734 l 91 734 l 91 -27 q 69 -114 91 -85 q 7 -142 47 -142 q -26 -140 -10 -142 q -57 -134 -41 -138 l -66 -285 q -19 -294 -41 -291 q 31 -296 3 -296 q 221 -226 153 -296 q 290 -27 290 -156 l 290 734 m 286 911 l 286 1058 l 87 1058 l 87 911 l 286 911 "},"k":{"ha":744,"x_min":76,"x_max":755,"o":"m 324 307 l 528 0 l 755 0 l 484 399 l 723 734 l 494 734 l 318 458 l 274 458 l 274 1058 l 76 1058 l 76 0 l 274 0 l 274 307 l 324 307 "},"l":{"ha":371,"x_min":86,"x_max":284,"o":"m 284 0 l 284 1058 l 86 1058 l 86 0 l 284 0 "},"m":{"ha":1202,"x_min":76,"x_max":1126,"o":"m 260 734 l 76 734 l 76 0 l 273 0 l 273 535 q 323 578 293 563 q 393 593 353 593 q 475 558 448 593 q 502 436 502 522 l 502 0 l 699 0 l 699 482 q 699 501 699 492 q 698 523 698 510 q 747 575 716 556 q 820 593 778 593 q 901 559 873 593 q 928 436 928 524 l 928 0 l 1126 0 l 1126 435 q 1063 670 1126 593 q 892 747 1000 747 q 764 714 819 747 q 676 622 710 681 q 600 716 650 685 q 479 747 550 747 q 356 719 410 747 q 268 637 303 690 l 260 734 "},"n":{"ha":784,"x_min":73,"x_max":712,"o":"m 257 734 l 73 734 l 73 0 l 271 0 l 271 531 q 326 577 292 560 q 404 593 359 593 q 486 561 458 593 q 513 449 513 528 l 513 0 l 712 0 l 712 450 q 650 676 712 604 q 476 747 587 747 q 356 716 410 747 q 266 629 302 685 l 257 734 "},"o":{"ha":784,"x_min":45,"x_max":738,"o":"m 45 374 l 45 359 q 137 90 45 194 q 392 -14 229 -14 q 646 90 554 -14 q 738 359 738 194 l 738 374 q 646 643 738 538 q 391 747 553 747 q 137 643 229 747 q 45 374 45 538 m 243 359 l 243 374 q 278 533 243 471 q 391 595 314 595 q 504 533 468 595 q 540 374 540 471 l 540 359 q 504 199 540 260 q 392 138 469 138 q 278 198 313 138 q 243 359 243 259 "},"p":{"ha":784,"x_min":76,"x_max":738,"o":"m 738 347 l 738 361 q 663 641 738 534 q 451 747 587 747 q 344 721 390 747 q 266 647 298 695 l 254 734 l 76 734 l 76 -282 l 273 -282 l 273 70 q 350 7 305 28 q 452 -14 395 -14 q 663 85 587 -14 q 738 347 738 184 m 540 361 l 540 347 q 506 194 540 250 q 401 138 473 138 q 323 154 355 138 q 273 201 292 170 l 273 523 q 323 575 292 557 q 399 593 355 593 q 505 529 471 593 q 540 361 540 465 "},"q":{"ha":784,"x_min":45,"x_max":705,"o":"m 45 361 l 45 347 q 120 85 45 184 q 330 -14 195 -14 q 430 7 387 -14 q 507 68 474 28 l 507 -282 l 705 -282 l 705 734 l 536 734 l 518 644 q 439 721 485 694 q 332 747 393 747 q 120 641 195 747 q 45 361 45 534 m 243 347 l 243 361 q 276 530 243 465 q 382 595 310 595 q 456 577 425 595 q 507 527 487 559 l 507 201 q 456 154 487 170 q 381 138 425 138 q 275 194 308 138 q 243 347 243 250 "},"r":{"ha":489,"x_min":76,"x_max":483,"o":"m 462 564 l 483 739 q 457 745 470 743 q 430 747 445 747 q 335 715 376 747 q 269 625 294 683 l 260 734 l 76 734 l 76 0 l 273 0 l 273 496 q 317 547 288 529 q 389 566 345 566 l 462 564 "},"s":{"ha":716,"x_min":39,"x_max":665,"o":"m 473 203 q 444 143 473 165 q 360 121 415 121 q 264 148 301 121 q 226 233 228 174 l 45 233 l 43 229 q 124 60 39 134 q 356 -14 210 -14 q 580 49 495 -14 q 665 211 665 112 q 598 356 665 303 q 397 435 532 408 q 280 474 309 452 q 252 529 252 495 q 279 587 252 564 q 355 611 307 611 q 437 583 408 611 q 465 511 465 555 l 656 511 l 658 515 q 577 681 661 614 q 355 747 494 747 q 142 681 222 747 q 62 520 62 614 q 129 378 62 431 q 324 300 195 326 q 441 259 410 283 q 473 203 473 236 "},"t":{"ha":484,"x_min":9,"x_max":448,"o":"m 313 913 l 116 913 l 116 734 l 9 734 l 9 595 l 116 595 l 116 220 q 171 42 116 98 q 329 -14 227 -14 q 390 -9 362 -14 q 448 6 418 -4 l 432 149 q 406 143 417 145 q 378 142 394 142 q 331 160 349 142 q 313 221 313 178 l 313 595 l 437 595 l 437 734 l 313 734 l 313 913 "},"u":{"ha":784,"x_min":71,"x_max":711,"o":"m 526 109 l 547 0 l 711 0 l 711 734 l 513 734 l 513 200 q 457 155 491 170 q 376 140 423 140 q 295 175 321 140 q 269 307 269 211 l 269 734 l 71 734 l 71 309 q 137 64 71 143 q 318 -14 202 -14 q 439 18 387 -14 q 526 109 492 50 "},"v":{"ha":709,"x_min":11,"x_max":699,"o":"m 341 273 l 218 734 l 11 734 l 260 0 l 450 0 l 699 734 l 492 734 l 372 273 l 358 205 l 354 205 l 341 273 "},"w":{"ha":1022,"x_min":20,"x_max":1000,"o":"m 714 273 l 576 734 l 444 734 l 307 275 l 302 275 l 212 734 l 20 734 l 206 0 l 371 0 l 507 423 l 511 423 l 648 0 l 813 0 l 1000 734 l 807 734 l 718 273 l 714 273 "},"x":{"ha":709,"x_min":13,"x_max":700,"o":"m 352 500 l 242 734 l 20 734 l 241 371 l 13 0 l 237 0 l 357 243 l 477 0 l 700 0 l 471 371 l 692 734 l 469 734 l 356 500 l 352 500 "},"y":{"ha":709,"x_min":3,"x_max":706,"o":"m 340 308 l 216 734 l 3 734 l 264 1 l 241 -56 q 200 -116 227 -92 q 125 -140 174 -140 q 106 -139 117 -140 q 87 -136 96 -138 l 64 -281 q 116 -292 95 -288 q 163 -296 138 -296 q 323 -242 270 -296 q 408 -110 377 -189 l 706 734 l 493 734 l 353 267 l 349 267 l 340 308 "},"z":{"ha":709,"x_min":51,"x_max":661,"o":"m 297 152 l 649 621 l 649 734 l 62 734 l 62 581 l 400 581 l 51 117 l 51 0 l 661 0 l 661 152 l 297 152 "},"{":{"ha":458,"x_min":33,"x_max":435,"o":"m 397 -244 l 435 -137 q 353 -62 377 -116 q 330 72 330 -8 l 330 210 q 299 333 330 279 q 208 420 269 388 q 299 505 269 450 q 330 630 330 559 l 330 768 q 353 902 330 848 q 435 977 377 956 l 397 1083 q 209 965 264 1046 q 153 768 153 884 l 153 630 q 123 525 153 562 q 33 488 94 488 l 33 351 q 123 314 94 351 q 153 210 153 277 l 153 72 q 209 -125 153 -44 q 397 -244 264 -207 "},"|":{"ha":352,"x_min":97,"x_max":254,"o":"m 254 -183 l 254 987 l 97 987 l 97 -183 l 254 -183 "},"}":{"ha":458,"x_min":23,"x_max":426,"o":"m 23 -137 l 61 -244 q 249 -125 193 -207 q 305 72 305 -44 l 305 210 q 334 314 305 277 q 426 351 363 351 l 426 488 q 334 525 363 488 q 305 630 305 562 l 305 768 q 249 965 305 884 q 61 1083 193 1046 l 23 977 q 104 902 81 956 q 128 768 128 848 l 128 630 q 159 504 128 559 q 254 419 191 450 q 159 334 191 389 q 128 210 128 280 l 128 72 q 104 -62 128 -8 q 23 -137 81 -116 "},"~":{"ha":900,"x_min":71,"x_max":827,"o":"m 827 514 l 690 532 q 665 448 690 483 q 606 412 640 412 q 550 426 576 412 q 492 469 525 439 q 389 537 440 514 q 281 559 338 559 q 130 487 189 559 q 71 304 71 414 l 208 286 q 232 369 208 334 q 292 404 256 404 q 347 390 321 404 q 408 347 372 376 q 509 278 460 299 q 616 256 558 256 q 767 331 707 256 q 827 514 827 405 "}," ":{"ha":346,"x_min":0,"x_max":0,"o":""},"¡":{"ha":393,"x_min":96,"x_max":294,"o":"m 294 -254 l 294 393 l 96 393 l 96 -254 l 294 -254 m 294 559 l 294 734 l 96 734 l 96 559 l 294 559 "},"¢":{"ha":801,"x_min":42,"x_max":681,"o":"m 382 138 q 272 198 304 138 q 240 356 240 258 l 240 376 q 272 533 240 472 q 381 595 304 595 q 465 557 435 595 q 495 463 495 519 l 681 463 q 625 639 681 567 q 475 736 570 711 l 475 894 l 339 894 l 339 745 q 119 628 196 730 q 42 376 42 526 l 42 356 q 119 104 42 205 q 339 -12 196 3 l 339 -166 l 475 -166 l 475 -2 q 623 91 567 22 q 678 248 680 159 l 676 251 l 495 251 q 465 169 495 199 q 382 138 434 138 "},"£":{"ha":825,"x_min":62,"x_max":781,"o":"m 374 399 l 608 399 l 608 551 l 367 551 l 360 696 q 387 809 360 770 q 462 849 414 849 q 541 818 510 849 q 572 722 572 787 l 765 722 l 766 726 q 689 926 769 850 q 463 1002 608 1002 q 244 920 326 1002 q 162 696 162 839 l 168 551 l 62 551 l 62 399 l 174 399 l 176 332 q 160 216 176 273 q 113 152 144 160 l 106 152 l 106 0 l 781 0 l 781 152 l 298 152 q 356 239 336 191 q 376 341 376 288 l 374 399 "},"¤":{"ha":961,"x_min":54,"x_max":913,"o":"m 727 73 l 817 -18 l 913 80 l 819 176 q 868 287 850 227 q 885 412 885 347 q 866 542 885 480 q 812 657 847 604 l 913 760 l 817 858 l 719 758 q 608 816 668 795 q 482 837 547 837 q 356 817 416 837 q 246 759 296 796 l 150 857 l 54 760 l 152 660 q 97 544 116 607 q 78 412 78 481 q 95 285 78 346 q 146 173 113 224 l 54 80 l 150 -18 l 237 72 q 351 8 288 31 q 482 -14 414 -14 q 612 8 550 -14 q 727 73 675 31 m 204 412 q 285 623 204 536 q 482 709 366 709 q 679 623 597 709 q 760 412 760 536 q 679 201 760 288 q 482 115 597 115 q 285 201 366 115 q 204 412 204 287 "},"¥":{"ha":850,"x_min":15,"x_max":834,"o":"m 422 575 l 233 987 l 15 987 l 274 503 l 93 503 l 93 391 l 323 391 l 323 307 l 93 307 l 93 195 l 323 195 l 323 0 l 521 0 l 521 195 l 741 195 l 741 307 l 521 307 l 521 391 l 741 391 l 741 503 l 575 503 l 834 987 l 617 987 l 427 575 l 422 575 "},"¦":{"ha":351,"x_min":86,"x_max":264,"o":"m 86 -183 l 264 -183 l 264 356 l 86 356 l 86 -183 m 264 473 l 264 987 l 86 987 l 86 473 l 264 473 "},"§":{"ha":873,"x_min":64,"x_max":800,"o":"m 800 322 q 721 502 800 439 q 475 609 642 566 q 317 668 355 642 q 279 745 279 694 q 318 820 279 790 q 434 849 357 849 q 548 810 507 849 q 589 711 589 771 l 781 711 l 782 715 q 692 926 785 851 q 434 1002 599 1002 q 177 931 273 1002 q 81 743 81 860 q 104 629 81 677 q 174 547 127 581 q 92 471 121 517 q 64 363 64 424 q 143 183 64 247 q 388 77 222 120 q 544 15 503 43 q 585 -58 585 -12 q 545 -131 585 -103 q 432 -159 505 -159 q 310 -128 359 -159 q 260 -25 260 -97 l 68 -26 l 67 -30 q 169 -245 64 -178 q 432 -313 275 -313 q 688 -245 593 -313 q 783 -57 783 -177 q 759 57 783 9 q 690 139 736 104 q 772 214 743 168 q 800 322 800 260 m 406 450 q 564 384 522 414 q 606 305 606 353 q 591 248 606 273 q 550 208 576 222 q 503 222 526 215 q 456 235 479 229 q 299 299 336 271 q 261 381 261 327 q 274 439 261 414 q 312 479 286 464 q 356 464 333 471 q 406 450 379 456 "},"¨":{"ha":739,"x_min":106,"x_max":625,"o":"m 625 849 l 625 987 l 445 987 l 445 849 l 625 849 m 286 849 l 286 987 l 106 987 l 106 849 l 286 849 "},"©":{"ha":1089,"x_min":58,"x_max":1021,"o":"m 752 404 l 652 404 q 622 311 652 339 q 530 283 591 283 q 433 329 467 283 q 399 454 399 376 l 399 535 q 433 659 399 612 q 530 705 467 705 q 622 676 591 705 q 652 584 652 648 l 753 584 l 754 588 q 697 743 757 689 q 530 797 637 797 q 358 724 422 797 q 294 534 294 652 l 294 454 q 358 263 294 335 q 530 191 422 191 q 696 244 637 191 q 753 400 756 298 l 752 404 m 141 494 q 257 794 141 673 q 540 916 373 916 q 822 794 705 916 q 938 494 938 673 q 822 193 938 315 q 540 71 705 71 q 257 193 374 71 q 141 494 141 315 m 58 494 q 199 133 58 280 q 540 -14 339 -14 q 880 133 739 -14 q 1021 494 1021 280 q 881 854 1021 708 q 540 1001 740 1001 q 199 854 339 1001 q 58 494 58 708 "},"ª":{"ha":616,"x_min":76,"x_max":530,"o":"m 410 479 l 530 479 q 516 537 520 507 q 512 602 512 567 l 512 814 q 459 954 512 905 q 315 1002 406 1002 q 162 958 220 1002 q 109 847 104 913 l 109 843 l 221 834 q 245 884 221 866 q 315 901 270 901 q 373 879 353 901 q 393 815 393 857 l 393 781 l 300 781 q 133 740 191 781 q 76 624 76 699 q 120 511 76 552 q 245 469 164 469 q 335 490 298 469 q 395 543 373 511 q 401 509 397 525 q 410 479 404 493 m 274 567 q 214 582 234 567 q 195 627 195 597 q 223 680 195 658 q 301 701 251 701 l 393 701 l 393 631 q 345 587 382 608 q 274 567 309 567 "},"«":{"ha":695,"x_min":66,"x_max":610,"o":"m 220 349 l 382 621 l 256 621 l 66 356 l 66 343 l 256 79 l 382 79 l 220 349 m 447 349 l 610 621 l 483 621 l 293 356 l 293 343 l 483 79 l 610 79 l 447 349 "},"¬":{"ha":766,"x_min":85,"x_max":652,"o":"m 652 254 l 652 546 l 85 546 l 85 430 l 516 430 l 516 254 l 652 254 "},"­":{"ha":605,"x_min":99,"x_max":498,"o":"m 498 346 l 498 498 l 99 498 l 99 346 l 498 346 "},"®":{"ha":1089,"x_min":58,"x_max":1021,"o":"m 58 494 q 199 133 58 280 q 540 -14 339 -14 q 880 133 739 -14 q 1021 494 1021 280 q 881 854 1021 708 q 540 1001 740 1001 q 199 854 339 1001 q 58 494 58 708 m 141 494 q 257 794 141 673 q 540 916 373 916 q 822 794 705 916 q 938 494 938 673 q 822 193 938 315 q 540 71 705 71 q 257 193 374 71 q 141 494 141 315 m 442 443 l 549 443 q 624 420 601 443 q 646 349 646 397 l 646 312 q 648 256 646 283 q 655 214 649 229 l 760 214 l 760 225 q 751 261 753 239 q 749 311 749 283 l 749 349 q 731 436 749 399 q 673 494 713 473 q 731 544 711 515 q 751 613 751 574 q 692 745 751 699 q 530 791 633 791 l 340 791 l 340 214 l 442 214 l 442 443 m 442 534 l 442 701 l 530 701 q 623 681 596 701 q 649 612 649 661 q 615 554 649 574 q 534 534 582 534 l 442 534 "},"¯":{"ha":697,"x_min":100,"x_max":596,"o":"m 596 876 l 596 988 l 100 988 l 100 876 l 596 876 "},"°":{"ha":540,"x_min":85,"x_max":452,"o":"m 85 816 q 140 686 85 739 q 271 632 194 632 q 399 686 345 632 q 452 816 452 739 q 399 947 452 892 q 271 1002 345 1002 q 140 947 195 1002 q 85 816 85 892 m 185 816 q 210 878 185 852 q 271 903 235 903 q 329 878 305 903 q 353 816 353 852 q 329 755 353 779 q 271 732 305 732 q 210 756 235 732 q 185 816 185 780 "},"±":{"ha":747,"x_min":61,"x_max":682,"o":"m 460 642 l 460 888 l 287 888 l 287 642 l 61 642 l 61 485 l 287 485 l 287 225 l 460 225 l 460 485 l 682 485 l 682 642 l 460 642 m 643 -29 l 643 125 l 77 125 l 77 -29 l 643 -29 "},"²":{"ha":583,"x_min":69,"x_max":499,"o":"m 499 452 l 499 557 l 264 557 l 263 562 l 337 625 q 458 737 422 694 q 494 835 494 779 q 441 959 494 915 q 290 1003 387 1003 q 129 952 189 1003 q 73 829 69 901 l 75 825 l 211 825 q 230 878 211 857 q 286 898 249 898 q 335 880 319 898 q 351 836 351 862 q 339 785 351 808 q 287 728 328 762 l 77 557 l 77 452 l 499 452 "},"³":{"ha":581,"x_min":60,"x_max":511,"o":"m 277 772 l 201 772 l 201 682 l 277 682 q 346 664 322 682 q 370 612 370 646 q 347 566 370 582 q 286 549 323 549 q 223 565 245 549 q 202 610 202 581 l 66 610 l 64 606 q 124 487 60 529 q 287 444 188 444 q 451 486 390 444 q 511 604 511 528 q 486 683 511 650 q 413 731 460 715 q 478 779 454 748 q 503 847 503 810 q 443 962 503 922 q 279 1002 382 1002 q 129 961 189 1002 q 73 850 69 919 l 75 846 l 210 846 q 230 882 210 867 q 283 897 249 897 q 340 880 321 897 q 359 837 359 863 q 339 789 359 806 q 277 772 319 772 "},"´":{"ha":493,"x_min":78,"x_max":435,"o":"m 213 1029 l 78 849 l 247 849 l 435 1025 l 433 1029 l 213 1029 "},"µ":{"ha":857,"x_min":94,"x_max":749,"o":"m 292 734 l 94 734 l 94 -282 l 292 -282 l 292 16 q 345 -7 315 0 q 409 -14 374 -14 q 493 1 454 -14 q 561 45 531 16 l 565 0 l 749 0 l 749 734 l 551 734 l 551 212 q 498 158 532 177 q 414 140 465 140 q 322 176 353 140 q 292 313 292 212 l 292 734 "},"¶":{"ha":731,"x_min":41,"x_max":629,"o":"m 431 0 l 629 0 l 629 987 l 375 987 q 129 899 217 987 q 41 670 41 810 q 129 440 41 528 q 375 353 217 353 l 431 353 l 431 0 "},"·":{"ha":420,"x_min":108,"x_max":306,"o":"m 306 385 l 306 562 l 108 562 l 108 385 l 306 385 "},"¸":{"ha":372,"x_min":66,"x_max":330,"o":"m 235 4 l 87 4 l 66 -92 q 140 -107 119 -96 q 162 -146 162 -118 q 142 -188 162 -174 q 87 -202 121 -202 l 92 -311 q 268 -268 205 -311 q 330 -152 330 -224 q 300 -70 330 -98 q 228 -35 271 -42 l 235 4 "},"¹":{"ha":389,"x_min":53,"x_max":282,"o":"m 282 451 l 282 1002 l 53 986 l 53 878 l 139 878 l 139 451 l 282 451 "},"º":{"ha":635,"x_min":80,"x_max":550,"o":"m 80 774 l 80 695 q 144 531 80 594 q 316 469 208 469 q 486 531 422 469 q 550 695 550 594 l 550 774 q 486 938 550 875 q 315 1002 422 1002 q 144 938 208 1002 q 80 774 80 875 m 199 695 l 199 774 q 228 866 199 831 q 315 901 258 901 q 401 866 371 901 q 431 774 431 831 l 431 695 q 401 603 431 637 q 316 568 372 568 q 229 603 258 568 q 199 695 199 637 "},"»":{"ha":695,"x_min":69,"x_max":621,"o":"m 231 373 l 69 102 l 197 102 l 387 367 l 387 380 l 197 644 l 69 644 l 231 373 m 466 373 l 304 102 l 431 102 l 621 367 l 621 380 l 431 644 l 304 644 l 466 373 "},"¼":{"ha":1013,"x_min":113,"x_max":1016,"o":"m 342 450 l 342 1001 l 113 985 l 113 878 l 199 878 l 199 450 l 342 450 m 306 79 l 788 851 l 692 902 l 210 130 l 306 79 m 947 201 l 947 543 l 804 543 l 517 180 l 526 94 l 804 94 l 804 0 l 947 0 l 947 94 l 1016 94 l 1016 201 l 947 201 m 663 201 l 791 363 l 800 376 l 804 375 l 804 201 l 663 201 "},"½":{"ha":1053,"x_min":113,"x_max":1049,"o":"m 315 79 l 797 851 l 701 902 l 218 130 l 315 79 m 342 450 l 342 1001 l 113 985 l 113 878 l 199 878 l 199 450 l 342 450 m 1049 0 l 1049 105 l 814 105 l 813 109 l 887 172 q 1008 284 972 242 q 1044 382 1044 327 q 991 507 1044 463 q 840 551 937 551 q 679 500 739 551 q 623 377 619 449 l 625 373 l 761 373 q 780 425 761 405 q 836 446 799 446 q 885 428 869 446 q 901 383 901 410 q 889 333 901 355 q 837 276 878 310 l 627 105 l 627 0 l 1049 0 "},"¾":{"ha":1164,"x_min":71,"x_max":1144,"o":"m 430 79 l 912 851 l 816 902 l 334 130 l 430 79 m 1076 201 l 1076 543 l 932 543 l 645 180 l 654 94 l 932 94 l 932 0 l 1076 0 l 1076 94 l 1144 94 l 1144 201 l 1076 201 m 791 201 l 920 363 l 928 376 l 932 375 l 932 201 l 791 201 m 288 773 l 212 773 l 212 683 l 288 683 q 357 665 333 683 q 380 612 380 646 q 357 566 380 583 q 296 550 334 550 q 234 566 256 550 q 213 610 213 582 l 77 610 l 75 606 q 135 487 71 530 q 298 445 199 445 q 461 487 401 445 q 522 605 522 529 q 497 683 522 651 q 424 732 471 715 q 489 780 465 749 q 513 848 513 810 q 453 963 513 922 q 290 1003 393 1003 q 140 961 199 1003 q 84 851 80 920 l 85 847 l 221 847 q 240 883 221 868 q 294 898 260 898 q 351 881 332 898 q 370 838 370 863 q 350 790 370 806 q 288 773 330 773 "},"¿":{"ha":703,"x_min":51,"x_max":692,"o":"m 492 453 l 295 453 q 282 363 295 395 q 228 300 269 331 q 101 176 151 250 q 51 18 51 103 q 137 -191 51 -114 q 376 -267 223 -267 q 604 -198 516 -267 q 690 0 692 -130 l 689 4 l 497 4 q 460 -83 495 -54 q 376 -112 426 -112 q 282 -77 315 -112 q 249 20 249 -41 q 278 121 249 75 q 355 206 307 167 q 464 313 436 269 q 492 453 491 357 m 294 734 l 294 564 l 493 564 l 493 734 l 294 734 "},"À":{"ha":884,"x_min":12,"x_max":880,"o":"m 606 213 l 673 0 l 880 0 l 548 987 l 345 987 l 12 0 l 219 0 l 286 213 l 606 213 m 334 368 l 444 716 l 448 716 l 557 368 l 334 368 m 538 1085 l 405 1265 l 184 1265 l 183 1261 l 368 1085 l 538 1085 "},"Á":{"ha":884,"x_min":12,"x_max":880,"o":"m 606 213 l 673 0 l 880 0 l 548 987 l 345 987 l 12 0 l 219 0 l 286 213 l 606 213 m 334 368 l 444 716 l 448 716 l 557 368 l 334 368 m 482 1265 l 347 1085 l 516 1085 l 704 1261 l 703 1265 l 482 1265 "},"Â":{"ha":884,"x_min":12,"x_max":880,"o":"m 606 213 l 673 0 l 880 0 l 548 987 l 345 987 l 12 0 l 219 0 l 286 213 l 606 213 m 334 368 l 444 716 l 448 716 l 557 368 l 334 368 m 695 1095 l 500 1260 l 386 1260 l 195 1097 l 195 1080 l 349 1080 l 443 1170 l 538 1080 l 695 1080 l 695 1095 "},"Ã":{"ha":884,"x_min":12,"x_max":880,"o":"m 606 213 l 673 0 l 880 0 l 548 987 l 345 987 l 12 0 l 219 0 l 286 213 l 606 213 m 334 368 l 444 716 l 448 716 l 557 368 l 334 368 m 696 1259 l 592 1289 q 574 1236 592 1257 q 534 1214 557 1214 q 433 1243 498 1214 q 330 1273 368 1273 q 229 1226 269 1273 q 189 1115 189 1179 l 294 1086 q 311 1139 294 1117 q 351 1161 327 1161 q 447 1132 387 1161 q 554 1102 507 1102 q 656 1148 616 1102 q 696 1259 696 1194 "},"Ä":{"ha":884,"x_min":12,"x_max":880,"o":"m 606 213 l 673 0 l 880 0 l 548 987 l 345 987 l 12 0 l 219 0 l 286 213 l 606 213 m 334 368 l 444 716 l 448 716 l 557 368 l 334 368 m 703 1086 l 703 1224 l 522 1224 l 522 1086 l 703 1086 m 363 1086 l 363 1224 l 183 1224 l 183 1086 l 363 1086 "},"Å":{"ha":884,"x_min":12,"x_max":880,"o":"m 606 213 l 673 0 l 880 0 l 548 987 l 345 987 l 12 0 l 219 0 l 286 213 l 606 213 m 334 368 l 444 716 l 448 716 l 557 368 l 334 368 m 316 1184 q 353 1102 316 1134 q 444 1069 389 1069 q 533 1102 496 1069 q 569 1184 569 1134 q 533 1267 569 1234 q 444 1301 496 1301 q 353 1267 389 1301 q 316 1184 316 1234 m 395 1184 q 409 1220 395 1206 q 444 1234 422 1234 q 477 1220 464 1234 q 490 1184 490 1206 q 477 1149 490 1162 q 444 1135 464 1135 q 409 1149 422 1135 q 395 1184 395 1163 "},"Æ":{"ha":1319,"x_min":8,"x_max":1271,"o":"m 1271 0 l 1271 154 l 853 154 l 842 431 l 1174 431 l 1174 585 l 836 585 l 825 833 l 1229 833 l 1229 987 l 540 987 l 8 0 l 240 0 l 354 227 l 652 227 l 662 0 l 1271 0 m 435 390 l 626 770 l 630 769 l 646 390 l 435 390 "},"Ç":{"ha":884,"x_min":67,"x_max":837,"o":"m 831 327 l 640 327 q 596 184 640 231 q 463 138 552 138 q 317 210 370 138 q 264 395 264 281 l 264 593 q 314 778 264 706 q 453 849 364 849 q 594 803 549 849 q 640 661 640 756 l 833 661 l 834 665 q 735 913 837 825 q 453 1002 633 1002 q 174 887 280 1002 q 67 591 67 772 l 67 395 q 176 100 67 214 q 463 -14 286 -14 q 736 75 637 -14 q 833 323 836 165 l 831 327 m 529 3 l 380 3 l 359 -94 q 434 -108 412 -97 q 456 -147 456 -119 q 435 -190 456 -176 q 380 -203 415 -203 l 385 -313 q 561 -269 499 -313 q 623 -153 623 -226 q 594 -71 623 -99 q 522 -36 565 -43 l 529 3 "},"È":{"ha":772,"x_min":91,"x_max":724,"o":"m 655 434 l 655 587 l 289 587 l 289 835 l 723 835 l 723 987 l 91 987 l 91 0 l 724 0 l 724 152 l 289 152 l 289 434 l 655 434 m 503 1085 l 370 1265 l 149 1265 l 148 1261 l 332 1085 l 503 1085 "},"É":{"ha":772,"x_min":91,"x_max":724,"o":"m 655 434 l 655 587 l 289 587 l 289 835 l 723 835 l 723 987 l 91 987 l 91 0 l 724 0 l 724 152 l 289 152 l 289 434 l 655 434 m 447 1265 l 312 1085 l 481 1085 l 669 1261 l 667 1265 l 447 1265 "},"Ê":{"ha":772,"x_min":91,"x_max":724,"o":"m 655 434 l 655 587 l 289 587 l 289 835 l 723 835 l 723 987 l 91 987 l 91 0 l 724 0 l 724 152 l 289 152 l 289 434 l 655 434 m 660 1095 l 465 1260 l 351 1260 l 159 1097 l 159 1080 l 313 1080 l 408 1170 l 503 1080 l 660 1080 l 660 1095 "},"Ë":{"ha":772,"x_min":91,"x_max":724,"o":"m 655 434 l 655 587 l 289 587 l 289 835 l 723 835 l 723 987 l 91 987 l 91 0 l 724 0 l 724 152 l 289 152 l 289 434 l 655 434 m 667 1086 l 667 1224 l 487 1224 l 487 1086 l 667 1086 m 328 1086 l 328 1224 l 148 1224 l 148 1086 l 328 1086 "},"Ì":{"ha":408,"x_min":-56,"x_max":302,"o":"m 302 0 l 302 987 l 104 987 l 104 0 l 302 0 m 299 1085 l 166 1265 l -54 1265 l -56 1261 l 129 1085 l 299 1085 "},"Í":{"ha":408,"x_min":104,"x_max":465,"o":"m 302 0 l 302 987 l 104 987 l 104 0 l 302 0 m 243 1265 l 108 1085 l 277 1085 l 465 1261 l 463 1265 l 243 1265 "},"Î":{"ha":408,"x_min":-44,"x_max":456,"o":"m 302 0 l 302 987 l 104 987 l 104 0 l 302 0 m 456 1095 l 262 1260 l 147 1260 l -44 1097 l -44 1080 l 110 1080 l 204 1170 l 299 1080 l 456 1080 l 456 1095 "},"Ï":{"ha":408,"x_min":-56,"x_max":464,"o":"m 302 0 l 302 987 l 104 987 l 104 0 l 302 0 m 464 1086 l 464 1224 l 283 1224 l 283 1086 l 464 1086 m 125 1086 l 125 1224 l -56 1224 l -56 1086 l 125 1086 "},"Ð":{"ha":919,"x_min":-1,"x_max":851,"o":"m 91 0 l 435 0 q 734 115 616 0 q 851 412 851 230 l 851 575 q 734 872 851 756 q 435 987 616 987 l 91 987 l 91 565 l -1 565 l -1 442 l 91 442 l 91 0 m 454 442 l 454 565 l 289 565 l 289 835 l 435 835 q 593 762 533 835 q 652 576 652 690 l 652 412 q 593 225 652 298 q 435 152 533 152 l 289 152 l 289 442 l 454 442 "},"Ñ":{"ha":980,"x_min":91,"x_max":889,"o":"m 889 0 l 889 987 l 691 987 l 691 323 l 687 322 l 289 987 l 91 987 l 91 0 l 289 0 l 289 665 l 293 666 l 691 0 l 889 0 m 743 1259 l 639 1289 q 621 1236 639 1257 q 581 1214 604 1214 q 480 1243 545 1214 q 377 1273 415 1273 q 276 1226 316 1273 q 235 1115 235 1179 l 341 1086 q 357 1139 341 1117 q 398 1161 374 1161 q 493 1132 433 1161 q 601 1102 553 1102 q 703 1148 663 1102 q 743 1259 743 1194 "},"Ò":{"ha":956,"x_min":66,"x_max":890,"o":"m 890 405 l 890 583 q 774 883 890 764 q 475 1002 659 1002 q 179 883 293 1002 q 66 583 66 764 l 66 405 q 180 104 66 223 q 477 -14 294 -14 q 775 104 661 -14 q 890 405 890 222 m 692 584 l 692 405 q 635 214 692 288 q 477 140 578 140 q 319 214 376 140 q 263 405 263 288 l 263 584 q 319 773 263 699 q 475 847 375 847 q 635 773 577 847 q 692 584 692 699 m 573 1099 l 440 1280 l 220 1280 l 218 1276 l 403 1099 l 573 1099 "},"Ó":{"ha":956,"x_min":66,"x_max":890,"o":"m 890 405 l 890 583 q 774 883 890 764 q 475 1002 659 1002 q 179 883 293 1002 q 66 583 66 764 l 66 405 q 180 104 66 223 q 477 -14 294 -14 q 775 104 661 -14 q 890 405 890 222 m 692 584 l 692 405 q 635 214 692 288 q 477 140 578 140 q 319 214 376 140 q 263 405 263 288 l 263 584 q 319 773 263 699 q 475 847 375 847 q 635 773 577 847 q 692 584 692 699 m 517 1280 l 382 1099 l 551 1099 l 739 1276 l 738 1280 l 517 1280 "},"Ô":{"ha":956,"x_min":66,"x_max":890,"o":"m 890 405 l 890 583 q 774 883 890 764 q 475 1002 659 1002 q 179 883 293 1002 q 66 583 66 764 l 66 405 q 180 104 66 223 q 477 -14 294 -14 q 775 104 661 -14 q 890 405 890 222 m 692 584 l 692 405 q 635 214 692 288 q 477 140 578 140 q 319 214 376 140 q 263 405 263 288 l 263 584 q 319 773 263 699 q 475 847 375 847 q 635 773 577 847 q 692 584 692 699 m 730 1109 l 536 1274 l 421 1274 l 230 1112 l 230 1094 l 384 1094 l 478 1184 l 573 1094 l 730 1094 l 730 1109 "},"Õ":{"ha":956,"x_min":66,"x_max":890,"o":"m 890 405 l 890 583 q 774 883 890 764 q 475 1002 659 1002 q 179 883 293 1002 q 66 583 66 764 l 66 405 q 180 104 66 223 q 477 -14 294 -14 q 775 104 661 -14 q 890 405 890 222 m 692 584 l 692 405 q 635 214 692 288 q 477 140 578 140 q 319 214 376 140 q 263 405 263 288 l 263 584 q 319 773 263 699 q 475 847 375 847 q 635 773 577 847 q 692 584 692 699 m 732 1273 l 627 1303 q 610 1250 627 1272 q 569 1228 592 1228 q 469 1258 534 1228 q 366 1287 404 1287 q 264 1240 304 1287 q 224 1129 224 1193 l 330 1101 q 346 1153 330 1131 q 387 1175 362 1175 q 482 1146 422 1175 q 589 1116 542 1116 q 691 1162 651 1116 q 732 1273 732 1208 "},"Ö":{"ha":956,"x_min":66,"x_max":890,"o":"m 890 405 l 890 583 q 774 883 890 764 q 475 1002 659 1002 q 179 883 293 1002 q 66 583 66 764 l 66 405 q 180 104 66 223 q 477 -14 294 -14 q 775 104 661 -14 q 890 405 890 222 m 692 584 l 692 405 q 635 214 692 288 q 477 140 578 140 q 319 214 376 140 q 263 405 263 288 l 263 584 q 319 773 263 699 q 475 847 375 847 q 635 773 577 847 q 692 584 692 699 m 738 1100 l 738 1238 l 557 1238 l 557 1100 l 738 1100 m 399 1100 l 399 1238 l 218 1238 l 218 1100 l 399 1100 "},"×":{"ha":738,"x_min":43,"x_max":688,"o":"m 43 252 l 160 140 l 366 350 l 572 140 l 688 252 l 479 465 l 688 679 l 572 790 l 366 580 l 160 790 l 43 679 l 253 465 l 43 252 "},"Ø":{"ha":956,"x_min":66,"x_max":890,"o":"m 890 405 l 890 583 q 860 747 890 671 q 777 880 831 823 l 863 1029 l 766 1029 l 711 935 q 602 984 661 967 q 475 1002 542 1002 q 179 883 293 1002 q 66 583 66 764 l 66 405 q 103 218 66 303 q 211 76 141 132 l 129 -64 l 226 -64 l 281 31 q 373 -3 324 8 q 477 -14 422 -14 q 775 104 661 -14 q 890 405 890 222 m 263 405 l 263 584 q 319 773 263 699 q 475 847 375 847 q 558 831 521 847 q 624 785 596 814 l 307 241 l 303 241 q 273 313 283 271 q 263 405 263 355 m 692 584 l 692 405 q 635 214 692 288 q 477 140 578 140 q 415 148 444 140 q 363 172 387 156 l 670 698 l 673 697 q 687 645 682 674 q 692 584 692 616 "},"Ù":{"ha":954,"x_min":81,"x_max":873,"o":"m 873 987 l 675 987 l 675 341 q 621 190 675 242 q 476 138 568 138 q 333 190 386 138 q 280 341 280 242 l 280 987 l 81 987 l 81 341 q 191 80 81 174 q 476 -14 300 -14 q 763 80 652 -14 q 873 341 873 174 l 873 987 m 572 1085 l 439 1265 l 219 1265 l 218 1261 l 402 1085 l 572 1085 "},"Ú":{"ha":954,"x_min":81,"x_max":873,"o":"m 873 987 l 675 987 l 675 341 q 621 190 675 242 q 476 138 568 138 q 333 190 386 138 q 280 341 280 242 l 280 987 l 81 987 l 81 341 q 191 80 81 174 q 476 -14 300 -14 q 763 80 652 -14 q 873 341 873 174 l 873 987 m 517 1265 l 382 1085 l 551 1085 l 739 1261 l 737 1265 l 517 1265 "},"Û":{"ha":954,"x_min":81,"x_max":873,"o":"m 873 987 l 675 987 l 675 341 q 621 190 675 242 q 476 138 568 138 q 333 190 386 138 q 280 341 280 242 l 280 987 l 81 987 l 81 341 q 191 80 81 174 q 476 -14 300 -14 q 763 80 652 -14 q 873 341 873 174 l 873 987 m 730 1095 l 535 1260 l 420 1260 l 229 1097 l 229 1080 l 383 1080 l 477 1170 l 572 1080 l 730 1080 l 730 1095 "},"Ü":{"ha":954,"x_min":81,"x_max":873,"o":"m 873 987 l 675 987 l 675 341 q 621 190 675 242 q 476 138 568 138 q 333 190 386 138 q 280 341 280 242 l 280 987 l 81 987 l 81 341 q 191 80 81 174 q 476 -14 300 -14 q 763 80 652 -14 q 873 341 873 174 l 873 987 m 737 1086 l 737 1224 l 557 1224 l 557 1086 l 737 1086 m 398 1086 l 398 1224 l 218 1224 l 218 1086 l 398 1086 "},"Ý":{"ha":884,"x_min":7,"x_max":876,"o":"m 439 532 l 224 987 l 7 987 l 340 357 l 340 0 l 538 0 l 538 347 l 876 987 l 659 987 l 444 532 l 439 532 m 485 1265 l 350 1085 l 519 1085 l 707 1261 l 705 1265 l 485 1265 "},"Þ":{"ha":846,"x_min":90,"x_max":802,"o":"m 288 987 l 90 987 l 90 0 l 288 0 l 288 196 l 437 196 q 706 280 610 196 q 802 500 802 364 q 706 720 802 636 q 437 804 610 804 l 288 804 l 288 987 m 288 652 l 437 652 q 563 608 521 652 q 604 499 604 564 q 563 392 604 435 q 437 349 521 349 l 288 349 l 288 652 "},"ß":{"ha":878,"x_min":92,"x_max":832,"o":"m 289 0 l 289 744 q 321 869 289 823 q 405 915 353 915 q 475 884 444 915 q 505 808 505 854 q 468 689 505 757 q 431 560 431 621 q 533 373 431 464 q 635 233 635 281 q 606 163 635 189 q 525 138 576 138 q 442 149 481 138 q 377 175 404 160 l 340 24 q 420 -4 366 6 q 529 -14 474 -14 q 754 50 676 -14 q 832 241 832 113 q 730 432 832 336 q 629 566 629 528 q 665 679 629 612 q 701 818 701 745 q 621 1002 701 937 q 418 1067 540 1067 q 179 983 267 1067 q 92 747 92 900 l 92 0 l 289 0 "},"à":{"ha":746,"x_min":39,"x_max":706,"o":"m 509 0 l 706 0 q 681 90 689 45 q 673 187 673 136 l 673 490 q 592 681 673 614 q 378 747 510 747 q 154 680 239 747 q 73 519 68 612 l 74 515 l 264 515 q 291 579 264 556 q 365 603 317 603 q 448 574 420 603 q 475 492 475 545 l 475 433 l 364 433 q 122 374 205 433 q 39 207 39 315 q 101 45 39 104 q 279 -14 163 -14 q 398 21 348 -14 q 479 110 448 56 q 490 53 482 81 q 509 0 498 25 m 328 132 q 261 154 285 132 q 237 214 237 176 q 269 290 237 259 q 364 321 301 321 l 475 321 l 475 218 q 420 158 460 184 q 328 132 379 132 m 465 867 l 332 1047 l 112 1047 l 111 1043 l 295 867 l 465 867 "},"á":{"ha":746,"x_min":39,"x_max":706,"o":"m 509 0 l 706 0 q 681 90 689 45 q 673 187 673 136 l 673 490 q 592 681 673 614 q 378 747 510 747 q 154 680 239 747 q 73 519 68 612 l 74 515 l 264 515 q 291 579 264 556 q 365 603 317 603 q 448 574 420 603 q 475 492 475 545 l 475 433 l 364 433 q 122 374 205 433 q 39 207 39 315 q 101 45 39 104 q 279 -14 163 -14 q 398 21 348 -14 q 479 110 448 56 q 490 53 482 81 q 509 0 498 25 m 328 132 q 261 154 285 132 q 237 214 237 176 q 269 290 237 259 q 364 321 301 321 l 475 321 l 475 218 q 420 158 460 184 q 328 132 379 132 m 410 1047 l 275 867 l 444 867 l 631 1043 l 630 1047 l 410 1047 "},"â":{"ha":746,"x_min":39,"x_max":706,"o":"m 509 0 l 706 0 q 681 90 689 45 q 673 187 673 136 l 673 490 q 592 681 673 614 q 378 747 510 747 q 154 680 239 747 q 73 519 68 612 l 74 515 l 264 515 q 291 579 264 556 q 365 603 317 603 q 448 574 420 603 q 475 492 475 545 l 475 433 l 364 433 q 122 374 205 433 q 39 207 39 315 q 101 45 39 104 q 279 -14 163 -14 q 398 21 348 -14 q 479 110 448 56 q 490 53 482 81 q 509 0 498 25 m 328 132 q 261 154 285 132 q 237 214 237 176 q 269 290 237 259 q 364 321 301 321 l 475 321 l 475 218 q 420 158 460 184 q 328 132 379 132 m 623 877 l 428 1042 l 313 1042 l 122 879 l 122 861 l 276 861 l 370 951 l 465 861 l 623 861 l 623 877 "},"ã":{"ha":746,"x_min":39,"x_max":706,"o":"m 509 0 l 706 0 q 681 90 689 45 q 673 187 673 136 l 673 490 q 592 681 673 614 q 378 747 510 747 q 154 680 239 747 q 73 519 68 612 l 74 515 l 264 515 q 291 579 264 556 q 365 603 317 603 q 448 574 420 603 q 475 492 475 545 l 475 433 l 364 433 q 122 374 205 433 q 39 207 39 315 q 101 45 39 104 q 279 -14 163 -14 q 398 21 348 -14 q 479 110 448 56 q 490 53 482 81 q 509 0 498 25 m 328 132 q 261 154 285 132 q 237 214 237 176 q 269 290 237 259 q 364 321 301 321 l 475 321 l 475 218 q 420 158 460 184 q 328 132 379 132 m 624 1040 l 519 1071 q 502 1017 519 1039 q 461 996 484 996 q 361 1025 426 996 q 258 1055 296 1055 q 156 1007 197 1055 q 116 897 116 960 l 222 868 q 238 921 222 899 q 279 943 254 943 q 374 913 314 943 q 481 884 434 884 q 584 929 543 884 q 624 1040 624 975 "},"ä":{"ha":746,"x_min":39,"x_max":706,"o":"m 509 0 l 706 0 q 681 90 689 45 q 673 187 673 136 l 673 490 q 592 681 673 614 q 378 747 510 747 q 154 680 239 747 q 73 519 68 612 l 74 515 l 264 515 q 291 579 264 556 q 365 603 317 603 q 448 574 420 603 q 475 492 475 545 l 475 433 l 364 433 q 122 374 205 433 q 39 207 39 315 q 101 45 39 104 q 279 -14 163 -14 q 398 21 348 -14 q 479 110 448 56 q 490 53 482 81 q 509 0 498 25 m 328 132 q 261 154 285 132 q 237 214 237 176 q 269 290 237 259 q 364 321 301 321 l 475 321 l 475 218 q 420 158 460 184 q 328 132 379 132 m 630 867 l 630 1006 l 450 1006 l 450 867 l 630 867 m 291 867 l 291 1006 l 111 1006 l 111 867 l 291 867 "},"å":{"ha":746,"x_min":39,"x_max":706,"o":"m 509 0 l 706 0 q 681 90 689 45 q 673 187 673 136 l 673 490 q 592 681 673 614 q 378 747 510 747 q 154 680 239 747 q 73 519 68 612 l 74 515 l 264 515 q 291 579 264 556 q 365 603 317 603 q 448 574 420 603 q 475 492 475 545 l 475 433 l 364 433 q 122 374 205 433 q 39 207 39 315 q 101 45 39 104 q 279 -14 163 -14 q 398 21 348 -14 q 479 110 448 56 q 490 53 482 81 q 509 0 498 25 m 328 132 q 261 154 285 132 q 237 214 237 176 q 269 290 237 259 q 364 321 301 321 l 475 321 l 475 218 q 420 158 460 184 q 328 132 379 132 m 243 966 q 280 883 243 916 q 371 851 317 851 q 460 883 424 851 q 496 966 496 916 q 460 1049 496 1015 q 371 1082 424 1082 q 280 1049 317 1082 q 243 966 243 1015 m 322 966 q 336 1001 322 987 q 371 1015 350 1015 q 405 1001 391 1015 q 418 966 418 987 q 405 930 418 944 q 371 917 391 917 q 336 931 350 917 q 322 966 322 945 "},"æ":{"ha":1201,"x_min":55,"x_max":1161,"o":"m 868 -14 q 1026 11 954 -14 q 1141 68 1099 35 l 1089 193 q 993 151 1035 165 q 889 138 951 138 q 763 183 805 138 q 718 304 721 229 l 720 308 l 1161 308 l 1161 415 q 1079 658 1161 568 q 852 747 996 747 q 730 729 785 747 q 634 675 675 710 q 537 729 594 710 q 411 747 480 747 q 181 684 267 747 q 98 522 94 620 l 100 518 l 291 506 q 322 569 291 544 q 409 595 354 595 q 487 564 459 595 q 514 479 514 533 l 514 439 l 391 439 q 141 381 227 439 q 55 215 55 323 q 126 47 55 109 q 327 -14 197 -14 q 490 16 421 -14 q 600 93 559 46 q 713 13 645 41 q 868 -14 781 -14 m 364 125 q 280 149 309 125 q 252 212 252 172 q 290 284 252 254 q 393 315 327 315 l 514 315 l 514 195 q 446 146 489 167 q 364 125 404 125 m 852 595 q 938 557 909 595 q 966 456 966 519 l 966 437 l 721 437 l 720 440 q 756 553 724 511 q 852 595 788 595 "},"ç":{"ha":716,"x_min":42,"x_max":680,"o":"m 382 138 q 272 198 304 138 q 240 356 240 258 l 240 376 q 272 533 240 472 q 381 595 304 595 q 465 557 435 595 q 495 463 495 519 l 675 463 l 677 467 q 597 670 680 593 q 381 747 515 747 q 131 643 219 747 q 42 376 42 538 l 42 356 q 131 90 42 194 q 382 -14 220 -14 q 594 61 509 -14 q 677 247 680 136 l 675 251 l 495 251 q 465 169 495 199 q 382 138 434 138 m 452 3 l 304 3 l 283 -94 q 357 -108 336 -97 q 379 -147 379 -119 q 359 -190 379 -176 q 304 -203 338 -203 l 309 -313 q 485 -269 422 -313 q 547 -153 547 -226 q 517 -71 547 -99 q 445 -36 488 -43 l 452 3 "},"è":{"ha":726,"x_min":45,"x_max":687,"o":"m 394 -14 q 558 10 483 -14 q 677 71 633 35 l 624 193 q 528 151 574 165 q 415 138 481 138 q 293 184 334 138 q 248 307 252 231 l 250 311 l 687 311 l 687 413 q 608 657 687 566 q 381 747 529 747 q 135 643 224 748 q 45 373 45 538 l 45 346 q 138 86 45 187 q 394 -14 230 -14 m 381 595 q 467 558 440 595 q 493 456 493 521 l 493 441 l 252 441 l 250 445 q 289 554 257 513 q 381 595 321 595 m 460 867 l 328 1048 l 107 1048 l 106 1044 l 290 867 l 460 867 "},"é":{"ha":726,"x_min":45,"x_max":687,"o":"m 394 -14 q 558 10 483 -14 q 677 71 633 35 l 624 193 q 528 151 574 165 q 415 138 481 138 q 293 184 334 138 q 248 307 252 231 l 250 311 l 687 311 l 687 413 q 608 657 687 566 q 381 747 529 747 q 135 643 224 748 q 45 373 45 538 l 45 346 q 138 86 45 187 q 394 -14 230 -14 m 381 595 q 467 558 440 595 q 493 456 493 521 l 493 441 l 252 441 l 250 445 q 289 554 257 513 q 381 595 321 595 m 405 1048 l 270 867 l 439 867 l 627 1044 l 625 1048 l 405 1048 "},"ê":{"ha":726,"x_min":45,"x_max":687,"o":"m 394 -14 q 558 10 483 -14 q 677 71 633 35 l 624 193 q 528 151 574 165 q 415 138 481 138 q 293 184 334 138 q 248 307 252 231 l 250 311 l 687 311 l 687 413 q 608 657 687 566 q 381 747 529 747 q 135 643 224 748 q 45 373 45 538 l 45 346 q 138 86 45 187 q 394 -14 230 -14 m 381 595 q 467 558 440 595 q 493 456 493 521 l 493 441 l 252 441 l 250 445 q 289 554 257 513 q 381 595 321 595 m 618 878 l 423 1042 l 309 1042 l 117 880 l 117 862 l 271 862 l 366 952 l 460 862 l 618 862 l 618 878 "},"ë":{"ha":726,"x_min":45,"x_max":687,"o":"m 394 -14 q 558 10 483 -14 q 677 71 633 35 l 624 193 q 528 151 574 165 q 415 138 481 138 q 293 184 334 138 q 248 307 252 231 l 250 311 l 687 311 l 687 413 q 608 657 687 566 q 381 747 529 747 q 135 643 224 748 q 45 373 45 538 l 45 346 q 138 86 45 187 q 394 -14 230 -14 m 381 595 q 467 558 440 595 q 493 456 493 521 l 493 441 l 252 441 l 250 445 q 289 554 257 513 q 381 595 321 595 m 625 868 l 625 1006 l 445 1006 l 445 868 l 625 868 m 286 868 l 286 1006 l 106 1006 l 106 868 l 286 868 "},"ì":{"ha":381,"x_min":-69,"x_max":288,"o":"m 288 0 l 288 734 l 90 734 l 90 0 l 288 0 m 286 852 l 153 1033 l -68 1033 l -69 1029 l 115 852 l 286 852 "},"í":{"ha":381,"x_min":90,"x_max":451,"o":"m 288 0 l 288 734 l 90 734 l 90 0 l 288 0 m 229 1033 l 94 852 l 263 852 l 451 1029 l 450 1033 l 229 1033 "},"î":{"ha":381,"x_min":-58,"x_max":443,"o":"m 288 0 l 288 734 l 90 734 l 90 0 l 288 0 m 443 863 l 248 1028 l 134 1028 l -58 865 l -58 848 l 96 848 l 191 938 l 286 848 l 443 848 l 443 863 "},"ï":{"ha":381,"x_min":-69,"x_max":450,"o":"m 288 0 l 288 734 l 90 734 l 90 0 l 288 0 m 450 853 l 450 991 l 270 991 l 270 853 l 450 853 m 111 853 l 111 991 l -69 991 l -69 853 l 111 853 "},"ð":{"ha":826,"x_min":33,"x_max":770,"o":"m 625 875 l 734 936 l 682 1013 l 548 939 q 447 993 501 970 q 332 1029 392 1016 l 270 881 q 322 863 297 873 q 368 843 347 854 l 369 839 l 239 767 l 292 690 l 458 783 q 526 697 498 745 q 562 593 553 650 l 559 591 q 475 638 524 621 q 372 656 427 656 q 124 563 215 656 q 33 317 33 471 q 135 81 33 176 q 398 -14 237 -14 q 664 93 557 -14 q 770 370 770 201 l 770 503 q 732 709 770 614 q 625 875 694 803 m 401 138 q 277 190 323 138 q 231 317 231 241 q 275 458 231 405 q 403 512 320 512 q 505 494 462 512 q 572 450 549 477 l 572 370 q 526 203 572 269 q 401 138 479 138 "},"ñ":{"ha":784,"x_min":73,"x_max":712,"o":"m 257 734 l 73 734 l 73 0 l 271 0 l 271 531 q 326 577 292 560 q 404 593 359 593 q 486 561 458 593 q 513 449 513 528 l 513 0 l 712 0 l 712 450 q 650 676 712 604 q 476 747 587 747 q 356 716 410 747 q 266 629 302 685 l 257 734 m 645 1040 l 541 1071 q 523 1017 541 1039 q 482 996 505 996 q 382 1025 447 996 q 279 1055 317 1055 q 177 1007 218 1055 q 137 897 137 960 l 243 868 q 259 921 243 899 q 300 943 275 943 q 395 913 335 943 q 503 884 455 884 q 605 929 564 884 q 645 1040 645 975 "},"ò":{"ha":784,"x_min":45,"x_max":738,"o":"m 45 374 l 45 359 q 137 90 45 194 q 392 -14 229 -14 q 646 90 554 -14 q 738 359 738 194 l 738 374 q 646 643 738 538 q 391 747 553 747 q 137 643 229 747 q 45 374 45 538 m 243 359 l 243 374 q 278 533 243 471 q 391 595 314 595 q 504 533 468 595 q 540 374 540 471 l 540 359 q 504 199 540 260 q 392 138 469 138 q 278 198 313 138 q 243 359 243 259 m 486 867 l 353 1047 l 133 1047 l 132 1043 l 316 867 l 486 867 "},"ó":{"ha":784,"x_min":45,"x_max":738,"o":"m 45 374 l 45 359 q 137 90 45 194 q 392 -14 229 -14 q 646 90 554 -14 q 738 359 738 194 l 738 374 q 646 643 738 538 q 391 747 553 747 q 137 643 229 747 q 45 374 45 538 m 243 359 l 243 374 q 278 533 243 471 q 391 595 314 595 q 504 533 468 595 q 540 374 540 471 l 540 359 q 504 199 540 260 q 392 138 469 138 q 278 198 313 138 q 243 359 243 259 m 431 1047 l 296 867 l 465 867 l 652 1043 l 651 1047 l 431 1047 "},"ô":{"ha":784,"x_min":45,"x_max":738,"o":"m 45 374 l 45 359 q 137 90 45 194 q 392 -14 229 -14 q 646 90 554 -14 q 738 359 738 194 l 738 374 q 646 643 738 538 q 391 747 553 747 q 137 643 229 747 q 45 374 45 538 m 243 359 l 243 374 q 278 533 243 471 q 391 595 314 595 q 504 533 468 595 q 540 374 540 471 l 540 359 q 504 199 540 260 q 392 138 469 138 q 278 198 313 138 q 243 359 243 259 m 644 877 l 449 1042 l 334 1042 l 143 879 l 143 861 l 297 861 l 391 951 l 486 861 l 644 861 l 644 877 "},"õ":{"ha":784,"x_min":45,"x_max":738,"o":"m 45 374 l 45 359 q 137 90 45 194 q 392 -14 229 -14 q 646 90 554 -14 q 738 359 738 194 l 738 374 q 646 643 738 538 q 391 747 553 747 q 137 643 229 747 q 45 374 45 538 m 243 359 l 243 374 q 278 533 243 471 q 391 595 314 595 q 504 533 468 595 q 540 374 540 471 l 540 359 q 504 199 540 260 q 392 138 469 138 q 278 198 313 138 q 243 359 243 259 m 645 1040 l 541 1071 q 523 1017 541 1039 q 482 996 505 996 q 382 1025 447 996 q 279 1055 317 1055 q 177 1007 218 1055 q 137 897 137 960 l 243 868 q 259 921 243 899 q 300 943 275 943 q 395 913 335 943 q 503 884 455 884 q 605 929 564 884 q 645 1040 645 975 "},"ö":{"ha":784,"x_min":45,"x_max":738,"o":"m 45 374 l 45 359 q 137 90 45 194 q 392 -14 229 -14 q 646 90 554 -14 q 738 359 738 194 l 738 374 q 646 643 738 538 q 391 747 553 747 q 137 643 229 747 q 45 374 45 538 m 243 359 l 243 374 q 278 533 243 471 q 391 595 314 595 q 504 533 468 595 q 540 374 540 471 l 540 359 q 504 199 540 260 q 392 138 469 138 q 278 198 313 138 q 243 359 243 259 m 651 867 l 651 1006 l 471 1006 l 471 867 l 651 867 m 312 867 l 312 1006 l 132 1006 l 132 867 l 312 867 "},"÷":{"ha":792,"x_min":43,"x_max":741,"o":"m 741 389 l 741 543 l 43 543 l 43 389 l 741 389 m 492 660 l 492 818 l 293 818 l 293 660 l 492 660 m 492 111 l 492 269 l 293 269 l 293 111 l 492 111 "},"ø":{"ha":784,"x_min":45,"x_max":738,"o":"m 45 374 l 45 359 q 81 177 45 258 q 185 47 117 96 l 115 -96 l 224 -96 l 273 3 q 330 -9 300 -5 q 392 -14 359 -14 q 646 90 554 -14 q 738 359 738 194 l 738 374 q 703 551 738 471 q 604 681 669 631 l 674 824 l 565 824 l 517 727 q 456 742 488 736 q 391 747 425 747 q 137 643 229 747 q 45 374 45 538 m 243 359 l 243 374 q 278 533 243 471 q 391 595 314 595 q 420 592 406 595 q 447 583 434 589 l 271 223 l 267 224 q 249 282 254 247 q 243 359 243 317 m 540 374 l 540 359 q 504 199 540 260 q 392 138 469 138 q 365 139 378 138 q 342 146 353 141 l 515 499 l 519 498 q 534 443 529 475 q 540 374 540 410 "},"ù":{"ha":784,"x_min":71,"x_max":711,"o":"m 526 109 l 547 0 l 711 0 l 711 734 l 513 734 l 513 200 q 457 155 491 170 q 376 140 423 140 q 295 175 321 140 q 269 307 269 211 l 269 734 l 71 734 l 71 309 q 137 64 71 143 q 318 -14 202 -14 q 439 18 387 -14 q 526 109 492 50 m 486 852 l 353 1033 l 132 1033 l 131 1029 l 315 852 l 486 852 "},"ú":{"ha":784,"x_min":71,"x_max":711,"o":"m 526 109 l 547 0 l 711 0 l 711 734 l 513 734 l 513 200 q 457 155 491 170 q 376 140 423 140 q 295 175 321 140 q 269 307 269 211 l 269 734 l 71 734 l 71 309 q 137 64 71 143 q 318 -14 202 -14 q 439 18 387 -14 q 526 109 492 50 m 430 1033 l 295 852 l 464 852 l 652 1029 l 650 1033 l 430 1033 "},"û":{"ha":784,"x_min":71,"x_max":711,"o":"m 526 109 l 547 0 l 711 0 l 711 734 l 513 734 l 513 200 q 457 155 491 170 q 376 140 423 140 q 295 175 321 140 q 269 307 269 211 l 269 734 l 71 734 l 71 309 q 137 64 71 143 q 318 -14 202 -14 q 439 18 387 -14 q 526 109 492 50 m 643 863 l 448 1028 l 334 1028 l 142 865 l 142 848 l 296 848 l 391 938 l 486 848 l 643 848 l 643 863 "},"ü":{"ha":784,"x_min":71,"x_max":711,"o":"m 526 109 l 547 0 l 711 0 l 711 734 l 513 734 l 513 200 q 457 155 491 170 q 376 140 423 140 q 295 175 321 140 q 269 307 269 211 l 269 734 l 71 734 l 71 309 q 137 64 71 143 q 318 -14 202 -14 q 439 18 387 -14 q 526 109 492 50 m 650 853 l 650 991 l 470 991 l 470 853 l 650 853 m 311 853 l 311 991 l 131 991 l 131 853 l 311 853 "},"ý":{"ha":709,"x_min":3,"x_max":706,"o":"m 340 308 l 216 734 l 3 734 l 264 1 l 241 -56 q 200 -116 227 -92 q 125 -140 174 -140 q 106 -139 117 -140 q 87 -136 96 -138 l 64 -281 q 116 -292 95 -288 q 163 -296 138 -296 q 323 -242 270 -296 q 408 -110 377 -189 l 706 734 l 493 734 l 353 267 l 349 267 l 340 308 m 394 1033 l 259 852 l 428 852 l 616 1029 l 614 1033 l 394 1033 "},"þ":{"ha":788,"x_min":82,"x_max":745,"o":"m 745 347 l 745 361 q 669 641 745 534 q 458 747 594 747 q 356 724 400 747 q 280 657 312 701 l 280 1058 l 82 1058 l 82 0 l 83 0 l 83 -282 l 280 -282 l 280 70 q 357 7 312 28 q 459 -14 401 -14 q 669 85 594 -14 q 745 347 745 184 m 547 361 l 547 347 q 513 194 547 250 q 408 138 479 138 q 330 154 361 138 q 280 201 298 170 l 280 523 q 330 575 298 557 q 406 593 361 593 q 512 529 477 593 q 547 361 547 465 "},"ÿ":{"ha":709,"x_min":3,"x_max":706,"o":"m 340 308 l 216 734 l 3 734 l 264 1 l 241 -56 q 200 -116 227 -92 q 125 -140 174 -140 q 106 -139 117 -140 q 87 -136 96 -138 l 64 -281 q 116 -292 95 -288 q 163 -296 138 -296 q 323 -242 270 -296 q 408 -110 377 -189 l 706 734 l 493 734 l 353 267 l 349 267 l 340 308 m 615 853 l 615 991 l 435 991 l 435 853 l 615 853 m 276 853 l 276 991 l 96 991 l 96 853 l 276 853 "},"Ā":{"ha":884,"x_min":12,"x_max":880,"o":"m 606 213 l 673 0 l 880 0 l 548 987 l 345 987 l 12 0 l 219 0 l 286 213 l 606 213 m 334 368 l 444 716 l 448 716 l 557 368 l 334 368 m 692 1094 l 692 1206 l 196 1206 l 196 1094 l 692 1094 "},"ā":{"ha":746,"x_min":39,"x_max":706,"o":"m 509 0 l 706 0 q 681 90 689 45 q 673 187 673 136 l 673 490 q 592 681 673 614 q 378 747 510 747 q 154 680 239 747 q 73 519 68 612 l 74 515 l 264 515 q 291 579 264 556 q 365 603 317 603 q 448 574 420 603 q 475 492 475 545 l 475 433 l 364 433 q 122 374 205 433 q 39 207 39 315 q 101 45 39 104 q 279 -14 163 -14 q 398 21 348 -14 q 479 110 448 56 q 490 53 482 81 q 509 0 498 25 m 328 132 q 261 154 285 132 q 237 214 237 176 q 269 290 237 259 q 364 321 301 321 l 475 321 l 475 218 q 420 158 460 184 q 328 132 379 132 m 619 876 l 619 988 l 123 988 l 123 876 l 619 876 "},"Ă":{"ha":884,"x_min":12,"x_max":880,"o":"m 606 213 l 673 0 l 880 0 l 548 987 l 345 987 l 12 0 l 219 0 l 286 213 l 606 213 m 334 368 l 444 716 l 448 716 l 557 368 l 334 368 m 673 1286 l 528 1286 q 507 1227 528 1250 q 444 1204 486 1204 q 379 1227 399 1204 q 358 1286 358 1250 l 214 1286 l 212 1282 q 272 1141 208 1196 q 444 1086 336 1086 q 614 1141 551 1086 q 674 1282 677 1196 l 673 1286 "},"ă":{"ha":746,"x_min":39,"x_max":706,"o":"m 509 0 l 706 0 q 681 90 689 45 q 673 187 673 136 l 673 490 q 592 681 673 614 q 378 747 510 747 q 154 680 239 747 q 73 519 68 612 l 74 515 l 264 515 q 291 579 264 556 q 365 603 317 603 q 448 574 420 603 q 475 492 475 545 l 475 433 l 364 433 q 122 374 205 433 q 39 207 39 315 q 101 45 39 104 q 279 -14 163 -14 q 398 21 348 -14 q 479 110 448 56 q 490 53 482 81 q 509 0 498 25 m 328 132 q 261 154 285 132 q 237 214 237 176 q 269 290 237 259 q 364 321 301 321 l 475 321 l 475 218 q 420 158 460 184 q 328 132 379 132 m 600 1067 l 455 1067 q 434 1008 455 1031 q 371 985 414 985 q 306 1008 327 985 q 286 1067 286 1031 l 141 1067 l 140 1063 q 199 923 136 977 q 371 868 263 868 q 542 923 478 868 q 602 1063 605 977 l 600 1067 "},"Ą":{"ha":884,"x_min":12,"x_max":898,"o":"m 606 213 l 673 0 l 880 0 l 548 987 l 345 987 l 12 0 l 219 0 l 286 213 l 606 213 m 334 368 l 444 716 l 448 716 l 557 368 l 334 368 m 823 0 l 733 41 q 635 -43 667 4 q 604 -142 604 -90 q 651 -249 604 -211 q 772 -288 699 -288 q 843 -279 813 -288 q 898 -258 873 -271 l 874 -153 q 844 -163 859 -159 q 810 -167 829 -167 q 764 -152 775 -167 q 752 -119 752 -138 q 769 -61 752 -86 q 823 0 786 -36 "},"ą":{"ha":746,"x_min":39,"x_max":724,"o":"m 509 0 l 706 0 q 681 90 689 45 q 673 187 673 136 l 673 490 q 592 681 673 614 q 378 747 510 747 q 154 680 239 747 q 73 519 68 612 l 74 515 l 264 515 q 291 579 264 556 q 365 603 317 603 q 448 574 420 603 q 475 492 475 545 l 475 433 l 364 433 q 122 374 205 433 q 39 207 39 315 q 101 45 39 104 q 279 -14 163 -14 q 398 21 348 -14 q 479 110 448 56 q 490 53 482 81 q 509 0 498 25 m 328 132 q 261 154 285 132 q 237 214 237 176 q 269 290 237 259 q 364 321 301 321 l 475 321 l 475 218 q 420 158 460 184 q 328 132 379 132 m 648 0 l 559 41 q 461 -43 492 4 q 430 -142 430 -90 q 477 -249 430 -211 q 597 -288 524 -288 q 669 -279 639 -288 q 724 -258 699 -271 l 700 -153 q 670 -163 684 -159 q 636 -167 655 -167 q 589 -152 601 -167 q 578 -119 578 -138 q 595 -61 578 -86 q 648 0 612 -36 "},"Ć":{"ha":884,"x_min":67,"x_max":837,"o":"m 831 327 l 640 327 q 596 184 640 231 q 463 138 552 138 q 317 210 370 138 q 264 395 264 281 l 264 593 q 314 778 264 706 q 453 849 364 849 q 594 803 549 849 q 640 661 640 756 l 833 661 l 834 665 q 735 913 837 825 q 453 1002 633 1002 q 174 887 280 1002 q 67 591 67 772 l 67 395 q 176 100 67 214 q 463 -14 286 -14 q 736 75 637 -14 q 833 323 836 165 l 831 327 m 500 1280 l 365 1099 l 534 1099 l 722 1276 l 720 1280 l 500 1280 "},"ć":{"ha":716,"x_min":42,"x_max":680,"o":"m 382 138 q 272 198 304 138 q 240 356 240 258 l 240 376 q 272 533 240 472 q 381 595 304 595 q 465 557 435 595 q 495 463 495 519 l 675 463 l 677 467 q 597 670 680 593 q 381 747 515 747 q 131 643 219 747 q 42 376 42 538 l 42 356 q 131 90 42 194 q 382 -14 220 -14 q 594 61 509 -14 q 677 247 680 136 l 675 251 l 495 251 q 465 169 495 199 q 382 138 434 138 m 401 1047 l 267 867 l 435 867 l 623 1043 l 622 1047 l 401 1047 "},"Ĉ":{"ha":884,"x_min":67,"x_max":837,"o":"m 831 327 l 640 327 q 596 184 640 231 q 463 138 552 138 q 317 210 370 138 q 264 395 264 281 l 264 593 q 314 778 264 706 q 453 849 364 849 q 594 803 549 849 q 640 661 640 756 l 833 661 l 834 665 q 735 913 837 825 q 453 1002 633 1002 q 174 887 280 1002 q 67 591 67 772 l 67 395 q 176 100 67 214 q 463 -14 286 -14 q 736 75 637 -14 q 833 323 836 165 l 831 327 m 713 1109 l 518 1274 l 404 1274 l 212 1112 l 212 1094 l 366 1094 l 460 1184 l 555 1094 l 713 1094 l 713 1109 "},"ĉ":{"ha":716,"x_min":42,"x_max":680,"o":"m 382 138 q 272 198 304 138 q 240 356 240 258 l 240 376 q 272 533 240 472 q 381 595 304 595 q 465 557 435 595 q 495 463 495 519 l 675 463 l 677 467 q 597 670 680 593 q 381 747 515 747 q 131 643 219 747 q 42 376 42 538 l 42 356 q 131 90 42 194 q 382 -14 220 -14 q 594 61 509 -14 q 677 247 680 136 l 675 251 l 495 251 q 465 169 495 199 q 382 138 434 138 m 614 877 l 420 1042 l 305 1042 l 114 879 l 114 861 l 268 861 l 362 951 l 457 861 l 614 861 l 614 877 "},"Ċ":{"ha":884,"x_min":67,"x_max":837,"o":"m 831 327 l 640 327 q 596 184 640 231 q 463 138 552 138 q 317 210 370 138 q 264 395 264 281 l 264 593 q 314 778 264 706 q 453 849 364 849 q 594 803 549 849 q 640 661 640 756 l 833 661 l 834 665 q 735 913 837 825 q 453 1002 633 1002 q 174 887 280 1002 q 67 591 67 772 l 67 395 q 176 100 67 214 q 463 -14 286 -14 q 736 75 637 -14 q 833 323 836 165 l 831 327 m 572 1100 l 572 1263 l 350 1263 l 350 1100 l 572 1100 "},"ċ":{"ha":716,"x_min":42,"x_max":680,"o":"m 382 138 q 272 198 304 138 q 240 356 240 258 l 240 376 q 272 533 240 472 q 381 595 304 595 q 465 557 435 595 q 495 463 495 519 l 675 463 l 677 467 q 597 670 680 593 q 381 747 515 747 q 131 643 219 747 q 42 376 42 538 l 42 356 q 131 90 42 194 q 382 -14 220 -14 q 594 61 509 -14 q 677 247 680 136 l 675 251 l 495 251 q 465 169 495 199 q 382 138 434 138 m 473 867 l 473 1031 l 252 1031 l 252 867 l 473 867 "},"Č":{"ha":884,"x_min":67,"x_max":837,"o":"m 831 327 l 640 327 q 596 184 640 231 q 463 138 552 138 q 317 210 370 138 q 264 395 264 281 l 264 593 q 314 778 264 706 q 453 849 364 849 q 594 803 549 849 q 640 661 640 756 l 833 661 l 834 665 q 735 913 837 825 q 453 1002 633 1002 q 174 887 280 1002 q 67 591 67 772 l 67 395 q 176 100 67 214 q 463 -14 286 -14 q 736 75 637 -14 q 833 323 836 165 l 831 327 m 460 1198 l 381 1284 l 202 1284 l 202 1274 l 393 1100 l 528 1100 l 718 1273 l 718 1284 l 539 1284 l 460 1198 "},"č":{"ha":716,"x_min":42,"x_max":680,"o":"m 382 138 q 272 198 304 138 q 240 356 240 258 l 240 376 q 272 533 240 472 q 381 595 304 595 q 465 557 435 595 q 495 463 495 519 l 675 463 l 677 467 q 597 670 680 593 q 381 747 515 747 q 131 643 219 747 q 42 376 42 538 l 42 356 q 131 90 42 194 q 382 -14 220 -14 q 594 61 509 -14 q 677 247 680 136 l 675 251 l 495 251 q 465 169 495 199 q 382 138 434 138 m 361 966 l 283 1052 l 104 1052 l 104 1041 l 294 867 l 429 867 l 620 1040 l 620 1052 l 441 1052 l 361 966 "},"Ď":{"ha":919,"x_min":91,"x_max":851,"o":"m 91 0 l 435 0 q 734 115 616 0 q 851 412 851 230 l 851 575 q 734 872 851 756 q 435 987 616 987 l 91 987 l 91 0 m 289 835 l 435 835 q 593 762 533 835 q 652 576 652 690 l 652 412 q 593 225 652 298 q 435 152 533 152 l 289 152 l 289 835 m 399 1184 l 321 1270 l 142 1270 l 142 1259 l 332 1086 l 467 1086 l 658 1259 l 658 1270 l 479 1270 l 399 1184 "},"ď":{"ha":784,"x_min":45,"x_max":928,"o":"m 45 361 l 45 347 q 120 85 45 184 q 330 -14 195 -14 q 439 13 391 -14 q 521 90 486 39 l 538 0 l 707 0 l 707 1058 l 508 1058 l 508 656 q 431 724 475 700 q 332 747 387 747 q 120 641 195 747 q 45 361 45 534 m 243 347 l 243 361 q 276 529 243 465 q 382 593 310 593 q 456 574 425 593 q 508 520 488 555 l 508 208 q 456 157 488 174 q 381 140 424 140 q 275 195 308 140 q 243 347 243 250 m 928 948 l 928 1057 l 799 1057 l 799 955 l 758 789 l 840 789 l 928 948 "},"Đ":{"ha":919,"x_min":-1,"x_max":851,"o":"m 91 0 l 435 0 q 734 115 616 0 q 851 412 851 230 l 851 575 q 734 872 851 756 q 435 987 616 987 l 91 987 l 91 565 l -1 565 l -1 442 l 91 442 l 91 0 m 454 442 l 454 565 l 289 565 l 289 835 l 435 835 q 593 762 533 835 q 652 576 652 690 l 652 412 q 593 225 652 298 q 435 152 533 152 l 289 152 l 289 442 l 454 442 "},"đ":{"ha":784,"x_min":45,"x_max":804,"o":"m 804 827 l 804 950 l 707 950 l 707 1058 l 508 1058 l 508 950 l 349 950 l 349 827 l 508 827 l 508 656 q 431 724 475 700 q 332 747 387 747 q 120 641 195 747 q 45 361 45 534 l 45 347 q 120 85 45 184 q 330 -14 195 -14 q 439 13 391 -14 q 521 90 486 39 l 538 0 l 707 0 l 707 827 l 804 827 m 243 347 l 243 361 q 276 529 243 465 q 382 593 310 593 q 456 574 425 593 q 508 520 488 555 l 508 208 q 456 157 488 174 q 381 140 424 140 q 275 195 308 140 q 243 347 243 250 "},"Ē":{"ha":772,"x_min":91,"x_max":724,"o":"m 655 434 l 655 587 l 289 587 l 289 835 l 723 835 l 723 987 l 91 987 l 91 0 l 724 0 l 724 152 l 289 152 l 289 434 l 655 434 m 656 1094 l 656 1206 l 161 1206 l 161 1094 l 656 1094 "},"ē":{"ha":726,"x_min":45,"x_max":687,"o":"m 394 -14 q 558 10 483 -14 q 677 71 633 35 l 624 193 q 528 151 574 165 q 415 138 481 138 q 293 184 334 138 q 248 307 252 231 l 250 311 l 687 311 l 687 413 q 608 657 687 566 q 381 747 529 747 q 135 643 224 748 q 45 373 45 538 l 45 346 q 138 86 45 187 q 394 -14 230 -14 m 381 595 q 467 558 440 595 q 493 456 493 521 l 493 441 l 252 441 l 250 445 q 289 554 257 513 q 381 595 321 595 m 614 876 l 614 988 l 119 988 l 119 876 l 614 876 "},"Ĕ":{"ha":772,"x_min":91,"x_max":724,"o":"m 655 434 l 655 587 l 289 587 l 289 835 l 723 835 l 723 987 l 91 987 l 91 0 l 724 0 l 724 152 l 289 152 l 289 434 l 655 434 m 637 1286 l 492 1286 q 472 1227 492 1250 q 408 1204 451 1204 q 343 1227 364 1204 q 323 1286 323 1250 l 178 1286 l 177 1282 q 237 1141 173 1196 q 408 1086 300 1086 q 579 1141 515 1086 q 639 1282 642 1196 l 637 1286 "},"ĕ":{"ha":726,"x_min":45,"x_max":687,"o":"m 394 -14 q 558 10 483 -14 q 677 71 633 35 l 624 193 q 528 151 574 165 q 415 138 481 138 q 293 184 334 138 q 248 307 252 231 l 250 311 l 687 311 l 687 413 q 608 657 687 566 q 381 747 529 747 q 135 643 224 748 q 45 373 45 538 l 45 346 q 138 86 45 187 q 394 -14 230 -14 m 381 595 q 467 558 440 595 q 493 456 493 521 l 493 441 l 252 441 l 250 445 q 289 554 257 513 q 381 595 321 595 m 595 1068 l 450 1068 q 430 1009 450 1032 q 366 986 409 986 q 301 1009 322 986 q 281 1068 281 1032 l 136 1068 l 135 1064 q 195 923 131 978 q 366 869 258 869 q 537 923 473 869 q 597 1064 600 978 l 595 1068 "},"Ė":{"ha":772,"x_min":91,"x_max":724,"o":"m 655 434 l 655 587 l 289 587 l 289 835 l 723 835 l 723 987 l 91 987 l 91 0 l 724 0 l 724 152 l 289 152 l 289 434 l 655 434 m 519 1086 l 519 1249 l 297 1249 l 297 1086 l 519 1086 "},"ė":{"ha":726,"x_min":45,"x_max":687,"o":"m 394 -14 q 558 10 483 -14 q 677 71 633 35 l 624 193 q 528 151 574 165 q 415 138 481 138 q 293 184 334 138 q 248 307 252 231 l 250 311 l 687 311 l 687 413 q 608 657 687 566 q 381 747 529 747 q 135 643 224 748 q 45 373 45 538 l 45 346 q 138 86 45 187 q 394 -14 230 -14 m 381 595 q 467 558 440 595 q 493 456 493 521 l 493 441 l 252 441 l 250 445 q 289 554 257 513 q 381 595 321 595 m 477 868 l 477 1031 l 255 1031 l 255 868 l 477 868 "},"Ę":{"ha":772,"x_min":91,"x_max":724,"o":"m 655 434 l 655 587 l 289 587 l 289 835 l 723 835 l 723 987 l 91 987 l 91 0 l 724 0 l 724 152 l 289 152 l 289 434 l 655 434 m 458 0 l 368 41 q 271 -43 302 4 q 239 -142 239 -90 q 287 -249 239 -211 q 407 -288 334 -288 q 478 -279 448 -288 q 533 -258 509 -271 l 509 -153 q 479 -163 494 -159 q 446 -167 465 -167 q 399 -152 410 -167 q 387 -119 387 -138 q 404 -61 387 -86 q 458 0 421 -36 "},"ę":{"ha":726,"x_min":45,"x_max":687,"o":"m 394 -14 q 558 10 483 -14 q 677 71 633 35 l 624 193 q 528 151 574 165 q 415 138 481 138 q 293 184 334 138 q 248 307 252 231 l 250 311 l 687 311 l 687 413 q 608 657 687 566 q 381 747 529 747 q 135 643 224 748 q 45 373 45 538 l 45 346 q 138 86 45 187 q 394 -14 230 -14 m 381 595 q 467 558 440 595 q 493 456 493 521 l 493 441 l 252 441 l 250 445 q 289 554 257 513 q 381 595 321 595 m 594 28 l 505 69 q 407 -15 438 33 q 376 -114 376 -62 q 423 -221 376 -182 q 543 -259 470 -259 q 615 -251 585 -259 q 669 -229 645 -242 l 646 -125 q 615 -134 630 -130 q 582 -138 601 -138 q 535 -124 547 -138 q 524 -91 524 -109 q 541 -33 524 -58 q 594 28 557 -7 "},"Ě":{"ha":772,"x_min":91,"x_max":724,"o":"m 655 434 l 655 587 l 289 587 l 289 835 l 723 835 l 723 987 l 91 987 l 91 0 l 724 0 l 724 152 l 289 152 l 289 434 l 655 434 m 407 1184 l 328 1270 l 149 1270 l 149 1259 l 340 1086 l 475 1086 l 665 1259 l 665 1270 l 486 1270 l 407 1184 "},"ě":{"ha":726,"x_min":45,"x_max":687,"o":"m 394 -14 q 558 10 483 -14 q 677 71 633 35 l 624 193 q 528 151 574 165 q 415 138 481 138 q 293 184 334 138 q 248 307 252 231 l 250 311 l 687 311 l 687 413 q 608 657 687 566 q 381 747 529 747 q 135 643 224 748 q 45 373 45 538 l 45 346 q 138 86 45 187 q 394 -14 230 -14 m 381 595 q 467 558 440 595 q 493 456 493 521 l 493 441 l 252 441 l 250 445 q 289 554 257 513 q 381 595 321 595 m 365 966 l 286 1053 l 107 1053 l 107 1042 l 298 868 l 433 868 l 623 1041 l 623 1053 l 444 1053 l 365 966 "},"Ĝ":{"ha":925,"x_min":67,"x_max":848,"o":"m 848 135 l 848 516 l 459 516 l 459 379 l 649 379 l 649 188 q 586 152 627 166 q 474 138 545 138 q 321 208 378 138 q 264 391 264 279 l 264 598 q 320 779 264 709 q 467 849 376 849 q 599 805 553 849 q 644 683 644 762 l 831 683 l 832 687 q 739 916 836 830 q 462 1002 643 1002 q 178 889 288 1002 q 67 597 67 776 l 67 391 q 181 98 67 211 q 474 -14 295 -14 q 710 30 618 -14 q 848 135 802 75 m 709 1109 l 515 1274 l 400 1274 l 209 1112 l 209 1094 l 363 1094 l 457 1184 l 552 1094 l 709 1094 l 709 1109 "},"ĝ":{"ha":784,"x_min":47,"x_max":708,"o":"m 47 361 l 47 347 q 122 85 47 184 q 332 -14 197 -14 q 433 7 389 -14 q 510 71 477 29 l 510 4 q 472 -102 510 -68 q 352 -136 433 -136 q 247 -124 296 -136 q 153 -92 199 -113 l 120 -239 q 235 -281 173 -266 q 353 -296 298 -296 q 614 -218 521 -296 q 708 3 708 -140 l 708 734 l 538 734 l 522 640 q 442 720 489 692 q 334 747 395 747 q 122 641 197 747 q 47 361 47 534 m 245 347 l 245 361 q 278 529 245 465 q 384 593 311 593 q 459 575 428 593 q 510 523 491 557 l 510 205 q 459 156 491 173 q 382 140 428 140 q 277 195 309 140 q 245 347 245 250 m 630 877 l 435 1042 l 321 1042 l 130 879 l 130 861 l 283 861 l 378 951 l 473 861 l 630 861 l 630 877 "},"Ğ":{"ha":925,"x_min":67,"x_max":848,"o":"m 848 135 l 848 516 l 459 516 l 459 379 l 649 379 l 649 188 q 586 152 627 166 q 474 138 545 138 q 321 208 378 138 q 264 391 264 279 l 264 598 q 320 779 264 709 q 467 849 376 849 q 599 805 553 849 q 644 683 644 762 l 831 683 l 832 687 q 739 916 836 830 q 462 1002 643 1002 q 178 889 288 1002 q 67 597 67 776 l 67 391 q 181 98 67 211 q 474 -14 295 -14 q 710 30 618 -14 q 848 135 802 75 m 687 1300 l 542 1300 q 521 1241 542 1264 q 458 1218 500 1218 q 393 1241 414 1218 q 372 1300 372 1264 l 228 1300 l 227 1296 q 286 1155 222 1210 q 458 1101 350 1101 q 628 1155 565 1101 q 688 1296 692 1210 l 687 1300 "},"ğ":{"ha":784,"x_min":47,"x_max":708,"o":"m 47 361 l 47 347 q 122 85 47 184 q 332 -14 197 -14 q 433 7 389 -14 q 510 71 477 29 l 510 4 q 472 -102 510 -68 q 352 -136 433 -136 q 247 -124 296 -136 q 153 -92 199 -113 l 120 -239 q 235 -281 173 -266 q 353 -296 298 -296 q 614 -218 521 -296 q 708 3 708 -140 l 708 734 l 538 734 l 522 640 q 442 720 489 692 q 334 747 395 747 q 122 641 197 747 q 47 361 47 534 m 245 347 l 245 361 q 278 529 245 465 q 384 593 311 593 q 459 575 428 593 q 510 523 491 557 l 510 205 q 459 156 491 173 q 382 140 428 140 q 277 195 309 140 q 245 347 245 250 m 608 1067 l 463 1067 q 442 1008 463 1031 q 378 985 421 985 q 314 1008 334 985 q 293 1067 293 1031 l 149 1067 l 147 1063 q 207 923 143 977 q 378 868 271 868 q 549 923 486 868 q 609 1063 612 977 l 608 1067 "},"Ġ":{"ha":925,"x_min":67,"x_max":848,"o":"m 848 135 l 848 516 l 459 516 l 459 379 l 649 379 l 649 188 q 586 152 627 166 q 474 138 545 138 q 321 208 378 138 q 264 391 264 279 l 264 598 q 320 779 264 709 q 467 849 376 849 q 599 805 553 849 q 644 683 644 762 l 831 683 l 832 687 q 739 916 836 830 q 462 1002 643 1002 q 178 889 288 1002 q 67 597 67 776 l 67 391 q 181 98 67 211 q 474 -14 295 -14 q 710 30 618 -14 q 848 135 802 75 m 568 1100 l 568 1263 l 347 1263 l 347 1100 l 568 1100 "},"ġ":{"ha":784,"x_min":47,"x_max":708,"o":"m 47 361 l 47 347 q 122 85 47 184 q 332 -14 197 -14 q 433 7 389 -14 q 510 71 477 29 l 510 4 q 472 -102 510 -68 q 352 -136 433 -136 q 247 -124 296 -136 q 153 -92 199 -113 l 120 -239 q 235 -281 173 -266 q 353 -296 298 -296 q 614 -218 521 -296 q 708 3 708 -140 l 708 734 l 538 734 l 522 640 q 442 720 489 692 q 334 747 395 747 q 122 641 197 747 q 47 361 47 534 m 245 347 l 245 361 q 278 529 245 465 q 384 593 311 593 q 459 575 428 593 q 510 523 491 557 l 510 205 q 459 156 491 173 q 382 140 428 140 q 277 195 309 140 q 245 347 245 250 m 489 867 l 489 1031 l 267 1031 l 267 867 l 489 867 "},"Ģ":{"ha":925,"x_min":67,"x_max":848,"o":"m 848 135 l 848 516 l 459 516 l 459 379 l 649 379 l 649 188 q 586 152 627 166 q 474 138 545 138 q 321 208 378 138 q 264 391 264 279 l 264 598 q 320 779 264 709 q 467 849 376 849 q 599 805 553 849 q 644 683 644 762 l 831 683 l 832 687 q 739 916 836 830 q 462 1002 643 1002 q 178 889 288 1002 q 67 597 67 776 l 67 391 q 181 98 67 211 q 474 -14 295 -14 q 710 30 618 -14 q 848 135 802 75 m 528 -181 l 528 -72 l 399 -72 l 399 -174 l 357 -340 l 440 -340 l 528 -181 "},"ģ":{"ha":784,"x_min":47,"x_max":708,"o":"m 47 361 l 47 347 q 122 85 47 184 q 332 -14 197 -14 q 433 7 389 -14 q 510 71 477 29 l 510 4 q 472 -102 510 -68 q 352 -136 433 -136 q 247 -124 296 -136 q 153 -92 199 -113 l 120 -239 q 235 -281 173 -266 q 353 -296 298 -296 q 614 -218 521 -296 q 708 3 708 -140 l 708 734 l 538 734 l 522 640 q 442 720 489 692 q 334 747 395 747 q 122 641 197 747 q 47 361 47 534 m 245 347 l 245 361 q 278 529 245 465 q 384 593 311 593 q 459 575 428 593 q 510 523 491 557 l 510 205 q 459 156 491 173 q 382 140 428 140 q 277 195 309 140 q 245 347 245 250 m 293 972 l 293 853 l 455 853 l 455 965 l 479 1148 l 371 1148 l 293 972 "},"Ĥ":{"ha":980,"x_min":91,"x_max":889,"o":"m 889 0 l 889 987 l 691 987 l 691 563 l 289 563 l 289 987 l 91 987 l 91 0 l 289 0 l 289 410 l 691 410 l 691 0 l 889 0 m 741 1095 l 546 1260 l 431 1260 l 240 1097 l 240 1080 l 394 1080 l 488 1170 l 583 1080 l 741 1080 l 741 1095 "},"ĥ":{"ha":784,"x_min":71,"x_max":711,"o":"m 269 641 l 269 1058 l 71 1058 l 71 0 l 269 0 l 269 537 q 324 579 290 564 q 403 593 357 593 q 485 558 458 593 q 513 437 513 522 l 513 0 l 711 0 l 711 435 q 645 671 711 595 q 465 747 580 747 q 354 719 404 747 q 269 641 304 691 m 604 1096 l 409 1261 l 294 1261 l 103 1098 l 103 1080 l 257 1080 l 351 1171 l 446 1080 l 604 1080 l 604 1096 "},"Ħ":{"ha":980,"x_min":11,"x_max":975,"o":"m 895 813 l 895 987 l 696 987 l 696 813 l 294 813 l 294 987 l 96 987 l 96 813 l 11 813 l 11 697 l 96 697 l 96 0 l 294 0 l 294 410 l 696 410 l 696 0 l 895 0 l 895 697 l 975 697 l 975 813 l 895 813 m 294 563 l 294 697 l 696 697 l 696 563 l 294 563 "},"ħ":{"ha":784,"x_min":-9,"x_max":711,"o":"m 446 825 l 446 948 l 269 948 l 269 1058 l 71 1058 l 71 948 l -9 948 l -9 825 l 71 825 l 71 0 l 269 0 l 269 537 q 324 579 290 564 q 403 593 357 593 q 485 558 458 593 q 513 437 513 522 l 513 0 l 711 0 l 711 435 q 645 671 711 595 q 465 747 580 747 q 354 719 404 747 q 269 641 304 691 l 269 825 l 446 825 "},"Ĩ":{"ha":408,"x_min":-50,"x_max":458,"o":"m 302 0 l 302 987 l 104 987 l 104 0 l 302 0 m 458 1259 l 353 1289 q 336 1236 353 1257 q 295 1214 318 1214 q 195 1243 260 1214 q 92 1273 130 1273 q -10 1226 31 1273 q -50 1115 -50 1179 l 56 1086 q 72 1139 56 1117 q 113 1161 88 1161 q 208 1132 148 1161 q 315 1102 268 1102 q 417 1148 377 1102 q 458 1259 458 1194 "},"ĩ":{"ha":381,"x_min":-64,"x_max":444,"o":"m 288 0 l 288 734 l 90 734 l 90 0 l 288 0 m 444 1026 l 340 1057 q 322 1003 340 1025 q 281 981 304 981 q 181 1011 246 981 q 78 1040 116 1040 q -23 993 17 1040 q -64 882 -64 946 l 42 854 q 58 906 42 884 q 99 928 75 928 q 194 899 134 928 q 302 869 254 869 q 404 915 363 869 q 444 1026 444 961 "},"Ī":{"ha":408,"x_min":-43,"x_max":453,"o":"m 302 0 l 302 987 l 104 987 l 104 0 l 302 0 m 453 1094 l 453 1206 l -43 1206 l -43 1094 l 453 1094 "},"ī":{"ha":381,"x_min":-56,"x_max":439,"o":"m 288 0 l 288 734 l 90 734 l 90 0 l 288 0 m 439 862 l 439 974 l -56 974 l -56 862 l 439 862 "},"Ĭ":{"ha":408,"x_min":-31,"x_max":439,"o":"m 302 0 l 302 987 l 104 987 l 104 0 l 302 0 m 434 1286 l 289 1286 q 268 1227 289 1250 q 205 1204 248 1204 q 140 1227 161 1204 q 119 1286 119 1250 l -25 1286 l -26 1282 q 33 1141 -31 1196 q 205 1086 97 1086 q 375 1141 312 1086 q 435 1282 439 1196 l 434 1286 "},"ĭ":{"ha":381,"x_min":-44,"x_max":425,"o":"m 288 0 l 288 734 l 90 734 l 90 0 l 288 0 m 420 1053 l 275 1053 q 255 994 275 1017 q 191 971 234 971 q 126 994 147 971 q 106 1053 106 1017 l -39 1053 l -40 1049 q 20 908 -44 963 q 191 854 83 854 q 362 908 298 854 q 422 1049 425 963 l 420 1053 "},"Į":{"ha":408,"x_min":27,"x_max":321,"o":"m 302 0 l 302 987 l 104 987 l 104 0 l 302 0 m 245 0 l 156 41 q 58 -43 90 4 q 27 -142 27 -90 q 74 -249 27 -211 q 195 -288 121 -288 q 266 -279 236 -288 q 321 -258 296 -271 l 297 -153 q 267 -163 281 -159 q 233 -167 252 -167 q 186 -152 198 -167 q 175 -119 175 -138 q 192 -61 175 -86 q 245 0 209 -36 "},"į":{"ha":371,"x_min":9,"x_max":302,"o":"m 284 0 l 284 734 l 86 734 l 86 0 l 284 0 m 284 909 l 284 1058 l 86 1058 l 86 909 l 284 909 m 227 0 l 138 41 q 40 -43 71 4 q 9 -142 9 -90 q 56 -249 9 -211 q 176 -288 103 -288 q 248 -279 218 -288 q 302 -258 278 -271 l 279 -153 q 249 -163 263 -159 q 215 -167 234 -167 q 168 -152 180 -167 q 157 -119 157 -138 q 174 -61 157 -86 q 227 0 191 -36 "},"İ":{"ha":408,"x_min":94,"x_max":315,"o":"m 302 0 l 302 987 l 104 987 l 104 0 l 302 0 m 315 1086 l 315 1249 l 94 1249 l 94 1086 l 315 1086 "},"ı":{"ha":381,"x_min":90,"x_max":288,"o":"m 288 0 l 288 734 l 90 734 l 90 0 l 288 0 "},"Ĳ":{"ha":1179,"x_min":104,"x_max":1089,"o":"m 302 0 l 302 987 l 104 987 l 104 0 l 302 0 m 892 987 l 892 306 q 857 183 892 228 q 768 138 823 138 q 665 175 703 138 q 626 292 626 213 l 433 292 l 432 288 q 520 63 429 140 q 768 -14 612 -14 q 999 73 909 -14 q 1089 306 1089 159 l 1089 987 l 892 987 "},"ĳ":{"ha":739,"x_min":86,"x_max":661,"o":"m 284 0 l 284 734 l 86 734 l 86 0 l 284 0 m 284 909 l 284 1058 l 86 1058 l 86 909 l 284 909 m 661 734 l 462 734 l 462 -27 q 440 -114 462 -85 q 378 -142 418 -142 q 345 -140 361 -142 q 314 -134 330 -138 l 304 -285 q 352 -294 330 -291 q 401 -296 374 -296 q 592 -226 524 -296 q 661 -27 661 -156 l 661 734 m 656 911 l 656 1058 l 458 1058 l 458 911 l 656 911 "},"Ĵ":{"ha":771,"x_min":21,"x_max":823,"o":"m 484 987 l 484 306 q 450 183 484 228 q 361 138 415 138 q 257 175 296 138 q 218 292 218 213 l 26 292 l 24 288 q 113 63 21 140 q 361 -14 204 -14 q 592 73 502 -14 q 682 306 682 159 l 682 987 l 484 987 m 823 1093 l 629 1257 l 514 1257 l 323 1095 l 323 1077 l 477 1077 l 571 1167 l 666 1077 l 823 1077 l 823 1093 "},"ĵ":{"ha":392,"x_min":-62,"x_max":439,"o":"m 299 734 l 102 734 l 102 -27 q 80 -113 102 -83 q 20 -144 58 -144 q -15 -141 2 -144 q -47 -135 -31 -139 l -57 -285 q -9 -294 -31 -291 q 41 -296 13 -296 q 231 -226 162 -296 q 299 -27 299 -156 l 299 734 m 439 858 l 244 1023 l 130 1023 l -62 860 l -62 842 l 92 842 l 186 932 l 281 842 l 439 842 l 439 858 "},"Ķ":{"ha":885,"x_min":91,"x_max":886,"o":"m 361 412 l 634 0 l 886 0 l 518 528 l 860 987 l 615 987 l 345 584 l 289 584 l 289 987 l 91 987 l 91 0 l 289 0 l 289 412 l 361 412 m 496 -173 l 496 -64 l 368 -64 l 368 -166 l 326 -332 l 409 -332 l 496 -173 "},"ķ":{"ha":744,"x_min":76,"x_max":755,"o":"m 324 307 l 528 0 l 755 0 l 484 399 l 723 734 l 494 734 l 318 458 l 274 458 l 274 1058 l 76 1058 l 76 0 l 274 0 l 274 307 l 324 307 m 444 -172 l 444 -63 l 315 -63 l 315 -165 l 273 -332 l 356 -332 l 444 -172 "},"ĸ":{"ha":821,"x_min":87,"x_max":795,"o":"m 364 275 l 541 0 l 795 0 l 523 390 l 783 734 l 534 734 l 345 454 l 286 454 l 286 734 l 87 734 l 87 0 l 286 0 l 286 275 l 364 275 "},"Ĺ":{"ha":772,"x_min":91,"x_max":731,"o":"m 289 152 l 289 987 l 91 987 l 91 0 l 731 0 l 731 152 l 289 152 m 231 1250 l 96 1069 l 264 1069 l 452 1246 l 451 1250 l 231 1250 "},"ĺ":{"ha":371,"x_min":86,"x_max":446,"o":"m 284 0 l 284 1058 l 86 1058 l 86 0 l 284 0 m 224 1284 l 90 1104 l 258 1104 l 446 1280 l 445 1284 l 224 1284 "},"Ļ":{"ha":772,"x_min":91,"x_max":731,"o":"m 289 152 l 289 987 l 91 987 l 91 0 l 731 0 l 731 152 l 289 152 m 470 -172 l 470 -63 l 341 -63 l 341 -165 l 300 -332 l 382 -332 l 470 -172 "},"ļ":{"ha":371,"x_min":75,"x_max":284,"o":"m 284 0 l 284 1058 l 86 1058 l 86 0 l 284 0 m 245 -172 l 245 -63 l 116 -63 l 116 -165 l 75 -332 l 157 -332 l 245 -172 "},"Ľ":{"ha":772,"x_min":91,"x_max":731,"o":"m 289 152 l 289 987 l 91 987 l 91 0 l 731 0 l 731 152 l 289 152 m 586 880 l 586 989 l 457 989 l 457 886 l 416 720 l 498 720 l 586 880 "},"ľ":{"ha":371,"x_min":86,"x_max":517,"o":"m 284 0 l 284 1058 l 86 1058 l 86 0 l 284 0 m 517 948 l 517 1057 l 388 1057 l 388 955 l 347 789 l 429 789 l 517 948 "},"Ŀ":{"ha":772,"x_min":91,"x_max":731,"o":"m 289 152 l 289 987 l 91 987 l 91 0 l 731 0 l 731 152 l 289 152 m 627 461 l 627 625 l 406 625 l 406 461 l 627 461 "},"ŀ":{"ha":371,"x_min":86,"x_max":488,"o":"m 284 0 l 284 1058 l 86 1058 l 86 0 l 284 0 m 488 426 l 488 589 l 267 589 l 267 426 l 488 426 "},"Ł":{"ha":705,"x_min":8,"x_max":726,"o":"m 284 600 l 284 987 l 86 987 l 86 543 l 8 520 l 8 388 l 86 410 l 86 0 l 726 0 l 726 152 l 284 152 l 284 467 l 449 515 l 449 647 l 284 600 "},"ł":{"ha":403,"x_min":10,"x_max":393,"o":"m 298 615 l 298 1058 l 100 1058 l 100 549 l 10 520 l 10 388 l 100 417 l 100 0 l 298 0 l 298 483 l 393 515 l 393 647 l 298 615 "},"Ń":{"ha":980,"x_min":91,"x_max":889,"o":"m 889 0 l 889 987 l 691 987 l 691 323 l 687 322 l 289 987 l 91 987 l 91 0 l 289 0 l 289 665 l 293 666 l 691 0 l 889 0 m 529 1265 l 394 1085 l 563 1085 l 751 1261 l 749 1265 l 529 1265 "},"ń":{"ha":784,"x_min":73,"x_max":712,"o":"m 257 734 l 73 734 l 73 0 l 271 0 l 271 531 q 326 577 292 560 q 404 593 359 593 q 486 561 458 593 q 513 449 513 528 l 513 0 l 712 0 l 712 450 q 650 676 712 604 q 476 747 587 747 q 356 716 410 747 q 266 629 302 685 l 257 734 m 431 1047 l 296 867 l 465 867 l 652 1043 l 651 1047 l 431 1047 "},"Ņ":{"ha":980,"x_min":91,"x_max":889,"o":"m 889 0 l 889 987 l 691 987 l 691 323 l 687 322 l 289 987 l 91 987 l 91 0 l 289 0 l 289 665 l 293 666 l 691 0 l 889 0 m 549 -172 l 549 -63 l 420 -63 l 420 -165 l 379 -332 l 462 -332 l 549 -172 "},"ņ":{"ha":784,"x_min":73,"x_max":712,"o":"m 257 734 l 73 734 l 73 0 l 271 0 l 271 531 q 326 577 292 560 q 404 593 359 593 q 486 561 458 593 q 513 449 513 528 l 513 0 l 712 0 l 712 450 q 650 676 712 604 q 476 747 587 747 q 356 716 410 747 q 266 629 302 685 l 257 734 m 451 -172 l 451 -63 l 322 -63 l 322 -165 l 281 -332 l 363 -332 l 451 -172 "},"Ň":{"ha":980,"x_min":91,"x_max":889,"o":"m 889 0 l 889 987 l 691 987 l 691 323 l 687 322 l 289 987 l 91 987 l 91 0 l 289 0 l 289 665 l 293 666 l 691 0 l 889 0 m 489 1184 l 410 1270 l 231 1270 l 231 1259 l 422 1086 l 557 1086 l 747 1259 l 747 1270 l 568 1270 l 489 1184 "},"ň":{"ha":784,"x_min":73,"x_max":712,"o":"m 257 734 l 73 734 l 73 0 l 271 0 l 271 531 q 326 577 292 560 q 404 593 359 593 q 486 561 458 593 q 513 449 513 528 l 513 0 l 712 0 l 712 450 q 650 676 712 604 q 476 747 587 747 q 356 716 410 747 q 266 629 302 685 l 257 734 m 391 966 l 312 1052 l 133 1052 l 133 1041 l 323 867 l 458 867 l 649 1040 l 649 1052 l 470 1052 l 391 966 "},"ŉ":{"ha":784,"x_min":-18,"x_max":712,"o":"m 257 734 l 73 734 l 73 0 l 271 0 l 271 531 q 326 577 292 560 q 404 593 359 593 q 486 561 458 593 q 513 449 513 528 l 513 0 l 712 0 l 712 450 q 650 676 712 604 q 476 747 587 747 q 356 716 410 747 q 266 629 302 685 l 257 734 m 152 948 l 152 1057 l 23 1057 l 23 955 l -18 789 l 64 789 l 152 948 "},"Ŋ":{"ha":975,"x_min":89,"x_max":887,"o":"m 887 987 l 690 987 l 690 323 l 686 322 l 288 987 l 89 987 l 89 0 l 288 0 l 288 665 l 292 666 l 690 0 l 690 -27 q 668 -113 690 -83 q 608 -144 646 -144 q 572 -141 589 -144 q 540 -135 555 -139 l 530 -285 q 578 -294 555 -291 q 629 -296 601 -296 q 819 -226 750 -296 q 887 -27 887 -156 l 887 987 "},"ŋ":{"ha":784,"x_min":73,"x_max":711,"o":"m 257 734 l 73 734 l 73 0 l 271 0 l 271 533 q 326 577 292 562 q 402 593 359 593 q 485 561 457 593 q 512 449 512 528 l 512 -27 q 491 -112 512 -83 q 431 -141 470 -141 q 395 -139 412 -141 q 363 -133 378 -137 l 354 -285 q 401 -294 378 -291 q 452 -296 425 -296 q 642 -226 574 -296 q 711 -27 711 -156 l 711 450 q 648 676 711 604 q 475 747 586 747 q 355 716 409 747 q 266 631 302 686 l 257 734 "},"Ō":{"ha":956,"x_min":66,"x_max":890,"o":"m 890 405 l 890 583 q 774 883 890 764 q 475 1002 659 1002 q 179 883 293 1002 q 66 583 66 764 l 66 405 q 180 104 66 223 q 477 -14 294 -14 q 775 104 661 -14 q 890 405 890 222 m 692 584 l 692 405 q 635 214 692 288 q 477 140 578 140 q 319 214 376 140 q 263 405 263 288 l 263 584 q 319 773 263 699 q 475 847 375 847 q 635 773 577 847 q 692 584 692 699 m 727 1108 l 727 1220 l 231 1220 l 231 1108 l 727 1108 "},"ō":{"ha":784,"x_min":45,"x_max":738,"o":"m 45 374 l 45 359 q 137 90 45 194 q 392 -14 229 -14 q 646 90 554 -14 q 738 359 738 194 l 738 374 q 646 643 738 538 q 391 747 553 747 q 137 643 229 747 q 45 374 45 538 m 243 359 l 243 374 q 278 533 243 471 q 391 595 314 595 q 504 533 468 595 q 540 374 540 471 l 540 359 q 504 199 540 260 q 392 138 469 138 q 278 198 313 138 q 243 359 243 259 m 640 876 l 640 988 l 144 988 l 144 876 l 640 876 "},"Ŏ":{"ha":956,"x_min":66,"x_max":890,"o":"m 890 405 l 890 583 q 774 883 890 764 q 475 1002 659 1002 q 179 883 293 1002 q 66 583 66 764 l 66 405 q 180 104 66 223 q 477 -14 294 -14 q 775 104 661 -14 q 890 405 890 222 m 692 584 l 692 405 q 635 214 692 288 q 477 140 578 140 q 319 214 376 140 q 263 405 263 288 l 263 584 q 319 773 263 699 q 475 847 375 847 q 635 773 577 847 q 692 584 692 699 m 708 1300 l 563 1300 q 542 1241 563 1264 q 479 1218 522 1218 q 414 1241 435 1218 q 393 1300 393 1264 l 249 1300 l 248 1296 q 307 1155 243 1210 q 479 1101 371 1101 q 649 1155 586 1101 q 709 1296 713 1210 l 708 1300 "},"ŏ":{"ha":784,"x_min":45,"x_max":738,"o":"m 45 374 l 45 359 q 137 90 45 194 q 392 -14 229 -14 q 646 90 554 -14 q 738 359 738 194 l 738 374 q 646 643 738 538 q 391 747 553 747 q 137 643 229 747 q 45 374 45 538 m 243 359 l 243 374 q 278 533 243 471 q 391 595 314 595 q 504 533 468 595 q 540 374 540 471 l 540 359 q 504 199 540 260 q 392 138 469 138 q 278 198 313 138 q 243 359 243 259 m 621 1067 l 476 1067 q 455 1008 476 1031 q 392 985 435 985 q 327 1008 348 985 q 307 1067 307 1031 l 162 1067 l 161 1063 q 220 923 157 977 q 392 868 284 868 q 563 923 499 868 q 623 1063 626 977 l 621 1067 "},"Ő":{"ha":956,"x_min":66,"x_max":890,"o":"m 890 405 l 890 583 q 774 883 890 764 q 475 1002 659 1002 q 179 883 293 1002 q 66 583 66 764 l 66 405 q 180 104 66 223 q 477 -14 294 -14 q 775 104 661 -14 q 890 405 890 222 m 692 584 l 692 405 q 635 214 692 288 q 477 140 578 140 q 319 214 376 140 q 263 405 263 288 l 263 584 q 319 773 263 699 q 475 847 375 847 q 635 773 577 847 q 692 584 692 699 m 666 1280 l 503 1103 l 505 1100 l 663 1100 l 857 1276 l 855 1280 l 666 1280 m 403 1280 l 269 1100 l 428 1100 l 591 1277 l 589 1280 l 403 1280 "},"ő":{"ha":784,"x_min":45,"x_max":770,"o":"m 45 374 l 45 359 q 137 90 45 194 q 392 -14 229 -14 q 646 90 554 -14 q 738 359 738 194 l 738 374 q 646 643 738 538 q 391 747 553 747 q 137 643 229 747 q 45 374 45 538 m 243 359 l 243 374 q 278 533 243 471 q 391 595 314 595 q 504 533 468 595 q 540 374 540 471 l 540 359 q 504 199 540 260 q 392 138 469 138 q 278 198 313 138 q 243 359 243 259 m 579 1048 l 416 871 l 418 867 l 576 867 l 770 1044 l 768 1048 l 579 1048 m 316 1048 l 182 867 l 341 867 l 504 1044 l 503 1048 l 316 1048 "},"Œ":{"ha":1345,"x_min":66,"x_max":1223,"o":"m 1223 0 l 1223 152 l 787 152 l 787 434 l 1154 434 l 1154 587 l 787 587 l 787 835 l 1221 835 l 1221 987 l 672 987 q 570 998 618 994 q 475 1002 522 1002 q 179 889 292 1002 q 66 597 66 777 l 66 391 q 180 98 66 210 q 477 -14 294 -14 q 566 -11 522 -14 q 672 0 610 -7 l 1223 0 m 477 138 q 320 203 376 138 q 263 391 263 267 l 263 598 q 319 785 263 721 q 475 849 375 849 q 531 847 503 849 q 589 842 559 845 l 589 144 q 534 140 562 141 q 477 138 505 138 "},"œ":{"ha":1253,"x_min":45,"x_max":1216,"o":"m 923 -14 q 1087 10 1012 -14 q 1206 71 1162 35 l 1153 193 q 1057 151 1103 165 q 944 138 1010 138 q 822 184 863 138 q 777 307 781 231 l 779 311 l 1216 311 l 1216 413 q 1137 657 1216 566 q 910 747 1058 747 q 763 718 828 747 q 655 632 699 688 q 543 717 610 687 q 391 747 475 747 q 137 643 229 747 q 45 374 45 538 l 45 359 q 137 90 45 194 q 392 -14 229 -14 q 543 16 476 -14 q 654 100 609 45 q 767 16 699 45 q 923 -14 836 -14 m 243 359 l 243 374 q 278 533 243 471 q 391 595 314 595 q 504 533 468 595 q 540 374 540 471 l 540 359 q 504 199 540 260 q 392 138 469 138 q 278 198 313 138 q 243 359 243 259 m 910 595 q 996 558 969 595 q 1022 456 1022 521 l 1022 441 l 781 441 l 779 445 q 818 554 786 513 q 910 595 850 595 "},"Ŕ":{"ha":885,"x_min":91,"x_max":848,"o":"m 289 395 l 446 395 q 561 354 520 395 q 601 239 601 313 l 601 169 q 609 72 601 122 q 644 0 616 22 l 848 0 l 848 14 q 809 81 821 36 q 798 168 798 126 l 798 240 q 760 389 798 329 q 634 475 722 450 q 752 565 711 509 q 792 696 792 620 q 697 910 792 833 q 433 987 602 987 l 91 987 l 91 0 l 289 0 l 289 395 m 289 547 l 289 835 l 433 835 q 553 795 512 835 q 594 687 594 755 q 553 583 594 618 q 429 547 513 547 l 289 547 m 465 1265 l 330 1085 l 499 1085 l 687 1261 l 686 1265 l 465 1265 "},"ŕ":{"ha":489,"x_min":76,"x_max":541,"o":"m 462 564 l 483 739 q 457 745 470 743 q 430 747 445 747 q 335 715 376 747 q 269 625 294 683 l 260 734 l 76 734 l 76 0 l 273 0 l 273 496 q 317 547 288 529 q 389 566 345 566 l 462 564 m 319 1047 l 184 867 l 353 867 l 541 1043 l 539 1047 l 319 1047 "},"Ŗ":{"ha":885,"x_min":91,"x_max":848,"o":"m 289 395 l 446 395 q 561 354 520 395 q 601 239 601 313 l 601 169 q 609 72 601 122 q 644 0 616 22 l 848 0 l 848 14 q 809 81 821 36 q 798 168 798 126 l 798 240 q 760 389 798 329 q 634 475 722 450 q 752 565 711 509 q 792 696 792 620 q 697 910 792 833 q 433 987 602 987 l 91 987 l 91 0 l 289 0 l 289 395 m 289 547 l 289 835 l 433 835 q 553 795 512 835 q 594 687 594 755 q 553 583 594 618 q 429 547 513 547 l 289 547 m 486 -172 l 486 -63 l 357 -63 l 357 -165 l 315 -332 l 398 -332 l 486 -172 "},"ŗ":{"ha":489,"x_min":73,"x_max":483,"o":"m 462 564 l 483 739 q 457 745 470 743 q 430 747 445 747 q 335 715 376 747 q 269 625 294 683 l 260 734 l 76 734 l 76 0 l 273 0 l 273 496 q 317 547 288 529 q 389 566 345 566 l 462 564 m 243 -172 l 243 -63 l 115 -63 l 115 -165 l 73 -332 l 156 -332 l 243 -172 "},"Ř":{"ha":885,"x_min":91,"x_max":848,"o":"m 289 395 l 446 395 q 561 354 520 395 q 601 239 601 313 l 601 169 q 609 72 601 122 q 644 0 616 22 l 848 0 l 848 14 q 809 81 821 36 q 798 168 798 126 l 798 240 q 760 389 798 329 q 634 475 722 450 q 752 565 711 509 q 792 696 792 620 q 697 910 792 833 q 433 987 602 987 l 91 987 l 91 0 l 289 0 l 289 395 m 289 547 l 289 835 l 433 835 q 553 795 512 835 q 594 687 594 755 q 553 583 594 618 q 429 547 513 547 l 289 547 m 425 1184 l 347 1270 l 168 1270 l 168 1259 l 358 1086 l 493 1086 l 684 1259 l 684 1270 l 505 1270 l 425 1184 "},"ř":{"ha":489,"x_min":22,"x_max":538,"o":"m 462 564 l 483 739 q 457 745 470 743 q 430 747 445 747 q 335 715 376 747 q 269 625 294 683 l 260 734 l 76 734 l 76 0 l 273 0 l 273 496 q 317 547 288 529 q 389 566 345 566 l 462 564 m 279 966 l 201 1052 l 22 1052 l 22 1041 l 212 867 l 347 867 l 538 1040 l 538 1052 l 359 1052 l 279 966 "},"Ś":{"ha":859,"x_min":55,"x_max":804,"o":"m 606 258 q 564 169 606 202 q 443 136 522 136 q 303 177 355 136 q 252 306 252 218 l 60 306 l 58 302 q 169 65 55 144 q 443 -14 283 -14 q 705 59 606 -14 q 804 259 804 132 q 718 455 804 380 q 470 575 633 529 q 320 643 363 611 q 277 726 277 675 q 317 816 277 781 q 430 851 357 851 q 555 811 511 851 q 600 698 600 772 l 792 698 l 793 702 q 697 919 797 836 q 433 1002 597 1002 q 178 925 278 1002 q 79 726 79 848 q 167 536 79 606 q 427 414 256 466 q 566 349 526 384 q 606 258 606 315 m 468 1280 l 333 1099 l 502 1099 l 690 1276 l 688 1280 l 468 1280 "},"ś":{"ha":716,"x_min":39,"x_max":665,"o":"m 473 203 q 444 143 473 165 q 360 121 415 121 q 264 148 301 121 q 226 233 228 174 l 45 233 l 43 229 q 124 60 39 134 q 356 -14 210 -14 q 580 49 495 -14 q 665 211 665 112 q 598 356 665 303 q 397 435 532 408 q 280 474 309 452 q 252 529 252 495 q 279 587 252 564 q 355 611 307 611 q 437 583 408 611 q 465 511 465 555 l 656 511 l 658 515 q 577 681 661 614 q 355 747 494 747 q 142 681 222 747 q 62 520 62 614 q 129 378 62 431 q 324 300 195 326 q 441 259 410 283 q 473 203 473 236 m 392 1047 l 257 867 l 426 867 l 614 1043 l 612 1047 l 392 1047 "},"Ŝ":{"ha":859,"x_min":55,"x_max":804,"o":"m 606 258 q 564 169 606 202 q 443 136 522 136 q 303 177 355 136 q 252 306 252 218 l 60 306 l 58 302 q 169 65 55 144 q 443 -14 283 -14 q 705 59 606 -14 q 804 259 804 132 q 718 455 804 380 q 470 575 633 529 q 320 643 363 611 q 277 726 277 675 q 317 816 277 781 q 430 851 357 851 q 555 811 511 851 q 600 698 600 772 l 792 698 l 793 702 q 697 919 797 836 q 433 1002 597 1002 q 178 925 278 1002 q 79 726 79 848 q 167 536 79 606 q 427 414 256 466 q 566 349 526 384 q 606 258 606 315 m 681 1109 l 486 1274 l 372 1274 l 180 1112 l 180 1094 l 334 1094 l 429 1184 l 524 1094 l 681 1094 l 681 1109 "},"ŝ":{"ha":716,"x_min":39,"x_max":665,"o":"m 473 203 q 444 143 473 165 q 360 121 415 121 q 264 148 301 121 q 226 233 228 174 l 45 233 l 43 229 q 124 60 39 134 q 356 -14 210 -14 q 580 49 495 -14 q 665 211 665 112 q 598 356 665 303 q 397 435 532 408 q 280 474 309 452 q 252 529 252 495 q 279 587 252 564 q 355 611 307 611 q 437 583 408 611 q 465 511 465 555 l 656 511 l 658 515 q 577 681 661 614 q 355 747 494 747 q 142 681 222 747 q 62 520 62 614 q 129 378 62 431 q 324 300 195 326 q 441 259 410 283 q 473 203 473 236 m 605 877 l 410 1042 l 296 1042 l 104 879 l 104 861 l 258 861 l 353 951 l 448 861 l 605 861 l 605 877 "},"Ş":{"ha":859,"x_min":55,"x_max":804,"o":"m 606 258 q 564 169 606 202 q 443 136 522 136 q 303 177 355 136 q 252 306 252 218 l 60 306 l 58 302 q 169 65 55 144 q 443 -14 283 -14 q 705 59 606 -14 q 804 259 804 132 q 718 455 804 380 q 470 575 633 529 q 320 643 363 611 q 277 726 277 675 q 317 816 277 781 q 430 851 357 851 q 555 811 511 851 q 600 698 600 772 l 792 698 l 793 702 q 697 919 797 836 q 433 1002 597 1002 q 178 925 278 1002 q 79 726 79 848 q 167 536 79 606 q 427 414 256 466 q 566 349 526 384 q 606 258 606 315 m 505 -2 l 357 -2 l 336 -98 q 410 -113 389 -102 q 432 -152 432 -124 q 412 -194 432 -180 q 357 -208 391 -208 l 361 -317 q 537 -274 475 -317 q 600 -158 600 -231 q 570 -76 600 -104 q 498 -41 541 -48 l 505 -2 "},"ş":{"ha":716,"x_min":39,"x_max":665,"o":"m 473 203 q 444 143 473 165 q 360 121 415 121 q 264 148 301 121 q 226 233 228 174 l 45 233 l 43 229 q 124 60 39 134 q 356 -14 210 -14 q 580 49 495 -14 q 665 211 665 112 q 598 356 665 303 q 397 435 532 408 q 280 474 309 452 q 252 529 252 495 q 279 587 252 564 q 355 611 307 611 q 437 583 408 611 q 465 511 465 555 l 656 511 l 658 515 q 577 681 661 614 q 355 747 494 747 q 142 681 222 747 q 62 520 62 614 q 129 378 62 431 q 324 300 195 326 q 441 259 410 283 q 473 203 473 236 m 429 -2 l 281 -2 l 260 -98 q 334 -113 313 -102 q 356 -152 356 -124 q 336 -194 356 -180 q 281 -208 315 -208 l 286 -317 q 461 -274 399 -317 q 524 -158 524 -231 q 494 -76 524 -104 q 422 -41 465 -48 l 429 -2 "},"Š":{"ha":859,"x_min":55,"x_max":804,"o":"m 606 258 q 564 169 606 202 q 443 136 522 136 q 303 177 355 136 q 252 306 252 218 l 60 306 l 58 302 q 169 65 55 144 q 443 -14 283 -14 q 705 59 606 -14 q 804 259 804 132 q 718 455 804 380 q 470 575 633 529 q 320 643 363 611 q 277 726 277 675 q 317 816 277 781 q 430 851 357 851 q 555 811 511 851 q 600 698 600 772 l 792 698 l 793 702 q 697 919 797 836 q 433 1002 597 1002 q 178 925 278 1002 q 79 726 79 848 q 167 536 79 606 q 427 414 256 466 q 566 349 526 384 q 606 258 606 315 m 428 1198 l 349 1284 l 170 1284 l 170 1274 l 361 1100 l 496 1100 l 686 1273 l 686 1284 l 507 1284 l 428 1198 "},"š":{"ha":716,"x_min":39,"x_max":665,"o":"m 473 203 q 444 143 473 165 q 360 121 415 121 q 264 148 301 121 q 226 233 228 174 l 45 233 l 43 229 q 124 60 39 134 q 356 -14 210 -14 q 580 49 495 -14 q 665 211 665 112 q 598 356 665 303 q 397 435 532 408 q 280 474 309 452 q 252 529 252 495 q 279 587 252 564 q 355 611 307 611 q 437 583 408 611 q 465 511 465 555 l 656 511 l 658 515 q 577 681 661 614 q 355 747 494 747 q 142 681 222 747 q 62 520 62 614 q 129 378 62 431 q 324 300 195 326 q 441 259 410 283 q 473 203 473 236 m 352 966 l 273 1052 l 94 1052 l 94 1041 l 285 867 l 420 867 l 610 1040 l 610 1052 l 431 1052 l 352 966 "},"Ţ":{"ha":797,"x_min":21,"x_max":779,"o":"m 779 835 l 779 987 l 21 987 l 21 835 l 299 835 l 299 0 l 497 0 l 497 835 l 779 835 m 459 -172 l 459 -63 l 330 -63 l 330 -165 l 289 -332 l 372 -332 l 459 -172 "},"ţ":{"ha":484,"x_min":9,"x_max":448,"o":"m 313 913 l 116 913 l 116 734 l 9 734 l 9 595 l 116 595 l 116 220 q 171 42 116 98 q 329 -14 227 -14 q 390 -9 362 -14 q 448 6 418 -4 l 432 149 q 406 143 417 145 q 378 142 394 142 q 331 160 349 142 q 313 221 313 178 l 313 595 l 437 595 l 437 734 l 313 734 l 313 913 m 355 -179 l 355 -70 l 226 -70 l 226 -172 l 184 -338 l 267 -338 l 355 -179 "},"Ť":{"ha":797,"x_min":21,"x_max":779,"o":"m 779 835 l 779 987 l 21 987 l 21 835 l 299 835 l 299 0 l 497 0 l 497 835 l 779 835 m 399 1184 l 320 1270 l 141 1270 l 141 1259 l 332 1086 l 467 1086 l 657 1259 l 657 1270 l 478 1270 l 399 1184 "},"ť":{"ha":484,"x_min":9,"x_max":568,"o":"m 313 913 l 116 913 l 116 734 l 9 734 l 9 595 l 116 595 l 116 220 q 171 42 116 98 q 329 -14 227 -14 q 390 -9 362 -14 q 448 6 418 -4 l 432 149 q 406 143 417 145 q 378 142 394 142 q 331 160 349 142 q 313 221 313 178 l 313 595 l 437 595 l 437 734 l 313 734 l 313 913 m 568 968 l 568 1078 l 439 1078 l 439 975 l 398 809 l 481 809 l 568 968 "},"Ŧ":{"ha":797,"x_min":21,"x_max":779,"o":"m 631 513 l 631 636 l 497 636 l 497 835 l 779 835 l 779 987 l 21 987 l 21 835 l 299 835 l 299 636 l 176 636 l 176 513 l 299 513 l 299 0 l 497 0 l 497 513 l 631 513 "},"ŧ":{"ha":484,"x_min":-7,"x_max":448,"o":"m 313 913 l 116 913 l 116 734 l 9 734 l 9 595 l 116 595 l 116 488 l -7 488 l -7 366 l 116 366 l 116 220 q 171 42 116 98 q 329 -14 227 -14 q 390 -9 362 -14 q 448 6 418 -4 l 432 149 q 406 143 417 145 q 378 142 394 142 q 331 160 349 142 q 313 221 313 178 l 313 366 l 448 366 l 448 488 l 313 488 l 313 595 l 437 595 l 437 734 l 313 734 l 313 913 "},"Ũ":{"ha":954,"x_min":81,"x_max":873,"o":"m 873 987 l 675 987 l 675 341 q 621 190 675 242 q 476 138 568 138 q 333 190 386 138 q 280 341 280 242 l 280 987 l 81 987 l 81 341 q 191 80 81 174 q 476 -14 300 -14 q 763 80 652 -14 q 873 341 873 174 l 873 987 m 731 1259 l 627 1289 q 609 1236 627 1257 q 568 1214 591 1214 q 468 1243 533 1214 q 365 1273 403 1273 q 263 1226 304 1273 q 223 1115 223 1179 l 329 1086 q 345 1139 329 1117 q 386 1161 361 1161 q 481 1132 421 1161 q 589 1102 541 1102 q 691 1148 650 1102 q 731 1259 731 1194 "},"ũ":{"ha":784,"x_min":71,"x_max":711,"o":"m 526 109 l 547 0 l 711 0 l 711 734 l 513 734 l 513 200 q 457 155 491 170 q 376 140 423 140 q 295 175 321 140 q 269 307 269 211 l 269 734 l 71 734 l 71 309 q 137 64 71 143 q 318 -14 202 -14 q 439 18 387 -14 q 526 109 492 50 m 644 1026 l 540 1057 q 522 1003 540 1025 q 481 981 505 981 q 381 1011 446 981 q 278 1040 316 1040 q 177 993 217 1040 q 136 882 136 946 l 242 854 q 258 906 242 884 q 299 928 275 928 q 394 899 334 928 q 502 869 454 869 q 604 915 564 869 q 644 1026 644 961 "},"Ū":{"ha":954,"x_min":81,"x_max":873,"o":"m 873 987 l 675 987 l 675 341 q 621 190 675 242 q 476 138 568 138 q 333 190 386 138 q 280 341 280 242 l 280 987 l 81 987 l 81 341 q 191 80 81 174 q 476 -14 300 -14 q 763 80 652 -14 q 873 341 873 174 l 873 987 m 726 1094 l 726 1206 l 231 1206 l 231 1094 l 726 1094 "},"ū":{"ha":784,"x_min":71,"x_max":711,"o":"m 526 109 l 547 0 l 711 0 l 711 734 l 513 734 l 513 200 q 457 155 491 170 q 376 140 423 140 q 295 175 321 140 q 269 307 269 211 l 269 734 l 71 734 l 71 309 q 137 64 71 143 q 318 -14 202 -14 q 439 18 387 -14 q 526 109 492 50 m 640 862 l 640 974 l 144 974 l 144 862 l 640 862 "},"Ŭ":{"ha":954,"x_min":81,"x_max":873,"o":"m 873 987 l 675 987 l 675 341 q 621 190 675 242 q 476 138 568 138 q 333 190 386 138 q 280 341 280 242 l 280 987 l 81 987 l 81 341 q 191 80 81 174 q 476 -14 300 -14 q 763 80 652 -14 q 873 341 873 174 l 873 987 m 707 1286 l 562 1286 q 542 1227 562 1250 q 478 1204 521 1204 q 413 1227 434 1204 q 393 1286 393 1250 l 248 1286 l 247 1282 q 307 1141 243 1196 q 478 1086 370 1086 q 649 1141 585 1086 q 709 1282 712 1196 l 707 1286 "},"ŭ":{"ha":784,"x_min":71,"x_max":711,"o":"m 526 109 l 547 0 l 711 0 l 711 734 l 513 734 l 513 200 q 457 155 491 170 q 376 140 423 140 q 295 175 321 140 q 269 307 269 211 l 269 734 l 71 734 l 71 309 q 137 64 71 143 q 318 -14 202 -14 q 439 18 387 -14 q 526 109 492 50 m 621 1053 l 475 1053 q 455 994 475 1017 q 391 971 434 971 q 327 994 347 971 q 306 1053 306 1017 l 161 1053 l 160 1049 q 220 908 156 963 q 391 854 283 854 q 562 908 498 854 q 622 1049 625 963 l 621 1053 "},"Ů":{"ha":954,"x_min":81,"x_max":873,"o":"m 873 987 l 675 987 l 675 341 q 621 190 675 242 q 476 138 568 138 q 333 190 386 138 q 280 341 280 242 l 280 987 l 81 987 l 81 341 q 191 80 81 174 q 476 -14 300 -14 q 763 80 652 -14 q 873 341 873 174 l 873 987 m 351 1184 q 387 1102 351 1134 q 478 1069 424 1069 q 567 1102 531 1069 q 604 1184 604 1134 q 567 1267 604 1234 q 478 1301 531 1301 q 387 1267 424 1301 q 351 1184 351 1234 m 429 1184 q 443 1220 429 1206 q 478 1234 457 1234 q 512 1220 498 1234 q 525 1184 525 1206 q 512 1149 525 1162 q 478 1135 498 1135 q 443 1149 457 1135 q 429 1184 429 1163 "},"ů":{"ha":784,"x_min":71,"x_max":711,"o":"m 526 109 l 547 0 l 711 0 l 711 734 l 513 734 l 513 200 q 457 155 491 170 q 376 140 423 140 q 295 175 321 140 q 269 307 269 211 l 269 734 l 71 734 l 71 309 q 137 64 71 143 q 318 -14 202 -14 q 439 18 387 -14 q 526 109 492 50 m 264 951 q 300 869 264 901 q 391 837 337 837 q 480 869 444 837 q 517 951 517 901 q 480 1035 517 1001 q 391 1068 444 1068 q 300 1035 337 1068 q 264 951 264 1001 m 342 951 q 356 987 342 973 q 391 1001 370 1001 q 425 987 412 1001 q 438 951 438 973 q 425 916 438 930 q 391 903 412 903 q 356 917 370 903 q 342 951 342 930 "},"Ű":{"ha":954,"x_min":81,"x_max":873,"o":"m 873 987 l 675 987 l 675 341 q 621 190 675 242 q 476 138 568 138 q 333 190 386 138 q 280 341 280 242 l 280 987 l 81 987 l 81 341 q 191 80 81 174 q 476 -14 300 -14 q 763 80 652 -14 q 873 341 873 174 l 873 987 m 665 1266 l 503 1089 l 504 1086 l 663 1086 l 856 1262 l 854 1266 l 665 1266 m 402 1266 l 268 1086 l 427 1086 l 590 1263 l 589 1266 l 402 1266 "},"ű":{"ha":784,"x_min":71,"x_max":769,"o":"m 526 109 l 547 0 l 711 0 l 711 734 l 513 734 l 513 200 q 457 155 491 170 q 376 140 423 140 q 295 175 321 140 q 269 307 269 211 l 269 734 l 71 734 l 71 309 q 137 64 71 143 q 318 -14 202 -14 q 439 18 387 -14 q 526 109 492 50 m 578 1034 l 416 857 l 417 853 l 576 853 l 769 1029 l 768 1034 l 578 1034 m 315 1034 l 181 853 l 340 853 l 503 1030 l 502 1034 l 315 1034 "},"Ų":{"ha":954,"x_min":81,"x_max":873,"o":"m 873 987 l 675 987 l 675 341 q 621 190 675 242 q 476 138 568 138 q 333 190 386 138 q 280 341 280 242 l 280 987 l 81 987 l 81 341 q 191 80 81 174 q 476 -14 300 -14 q 763 80 652 -14 q 873 341 873 174 l 873 987 m 549 0 l 459 41 q 361 -43 393 4 q 330 -142 330 -90 q 377 -249 330 -211 q 498 -288 425 -288 q 569 -279 539 -288 q 624 -258 600 -271 l 600 -153 q 570 -163 585 -159 q 536 -167 555 -167 q 490 -152 501 -167 q 478 -119 478 -138 q 495 -61 478 -86 q 549 0 512 -36 "},"ų":{"ha":784,"x_min":71,"x_max":728,"o":"m 526 109 l 547 0 l 711 0 l 711 734 l 513 734 l 513 200 q 457 155 491 170 q 376 140 423 140 q 295 175 321 140 q 269 307 269 211 l 269 734 l 71 734 l 71 309 q 137 64 71 143 q 318 -14 202 -14 q 439 18 387 -14 q 526 109 492 50 m 652 0 l 563 41 q 465 -43 496 4 q 434 -142 434 -90 q 481 -249 434 -211 q 602 -288 528 -288 q 673 -279 643 -288 q 728 -258 703 -271 l 704 -153 q 674 -163 688 -159 q 640 -167 659 -167 q 593 -152 605 -167 q 582 -119 582 -138 q 599 -61 582 -86 q 652 0 616 -36 "},"Ŵ":{"ha":1223,"x_min":14,"x_max":1209,"o":"m 870 317 l 691 987 l 531 987 l 353 318 l 349 318 l 218 987 l 14 987 l 244 0 l 428 0 l 609 650 l 613 650 l 795 0 l 979 0 l 1209 987 l 1005 987 l 874 317 l 870 317 m 864 1095 l 669 1260 l 555 1260 l 363 1097 l 363 1080 l 517 1080 l 612 1170 l 707 1080 l 864 1080 l 864 1095 "},"ŵ":{"ha":1022,"x_min":20,"x_max":1000,"o":"m 714 273 l 576 734 l 444 734 l 307 275 l 302 275 l 212 734 l 20 734 l 206 0 l 371 0 l 507 423 l 511 423 l 648 0 l 813 0 l 1000 734 l 807 734 l 718 273 l 714 273 m 762 863 l 568 1028 l 453 1028 l 262 865 l 262 848 l 416 848 l 510 938 l 605 848 l 762 848 l 762 863 "},"Ŷ":{"ha":884,"x_min":7,"x_max":876,"o":"m 439 532 l 224 987 l 7 987 l 340 357 l 340 0 l 538 0 l 538 347 l 876 987 l 659 987 l 444 532 l 439 532 m 698 1095 l 503 1260 l 389 1260 l 197 1097 l 197 1080 l 351 1080 l 446 1170 l 541 1080 l 698 1080 l 698 1095 "},"ŷ":{"ha":709,"x_min":3,"x_max":706,"o":"m 340 308 l 216 734 l 3 734 l 264 1 l 241 -56 q 200 -116 227 -92 q 125 -140 174 -140 q 106 -139 117 -140 q 87 -136 96 -138 l 64 -281 q 116 -292 95 -288 q 163 -296 138 -296 q 323 -242 270 -296 q 408 -110 377 -189 l 706 734 l 493 734 l 353 267 l 349 267 l 340 308 m 607 863 l 412 1028 l 298 1028 l 106 865 l 106 848 l 260 848 l 355 938 l 450 848 l 607 848 l 607 863 "},"Ÿ":{"ha":884,"x_min":7,"x_max":876,"o":"m 439 532 l 224 987 l 7 987 l 340 357 l 340 0 l 538 0 l 538 347 l 876 987 l 659 987 l 444 532 l 439 532 m 705 1086 l 705 1224 l 525 1224 l 525 1086 l 705 1086 m 366 1086 l 366 1224 l 186 1224 l 186 1086 l 366 1086 "},"Ź":{"ha":789,"x_min":52,"x_max":739,"o":"m 286 152 l 727 888 l 727 987 l 53 987 l 53 835 l 492 835 l 52 103 l 52 0 l 739 0 l 739 152 l 286 152 m 447 1266 l 312 1086 l 481 1086 l 669 1262 l 667 1266 l 447 1266 "},"ź":{"ha":709,"x_min":51,"x_max":661,"o":"m 297 152 l 649 621 l 649 734 l 62 734 l 62 581 l 400 581 l 51 117 l 51 0 l 661 0 l 661 152 l 297 152 m 395 1033 l 260 852 l 429 852 l 616 1029 l 615 1033 l 395 1033 "},"Ż":{"ha":789,"x_min":52,"x_max":739,"o":"m 286 152 l 727 888 l 727 987 l 53 987 l 53 835 l 492 835 l 52 103 l 52 0 l 739 0 l 739 152 l 286 152 m 519 1086 l 519 1250 l 297 1250 l 297 1086 l 519 1086 "},"ż":{"ha":709,"x_min":51,"x_max":661,"o":"m 297 152 l 649 621 l 649 734 l 62 734 l 62 581 l 400 581 l 51 117 l 51 0 l 661 0 l 661 152 l 297 152 m 467 853 l 467 1017 l 245 1017 l 245 853 l 467 853 "},"Ž":{"ha":789,"x_min":52,"x_max":739,"o":"m 286 152 l 727 888 l 727 987 l 53 987 l 53 835 l 492 835 l 52 103 l 52 0 l 739 0 l 739 152 l 286 152 m 407 1185 l 328 1271 l 149 1271 l 149 1260 l 340 1086 l 475 1086 l 665 1259 l 665 1271 l 486 1271 l 407 1185 "},"ž":{"ha":709,"x_min":51,"x_max":661,"o":"m 297 152 l 649 621 l 649 734 l 62 734 l 62 581 l 400 581 l 51 117 l 51 0 l 661 0 l 661 152 l 297 152 m 355 951 l 276 1038 l 97 1038 l 97 1027 l 288 853 l 422 853 l 613 1026 l 613 1038 l 434 1038 l 355 951 "},"ſ":{"ha":361,"x_min":79,"x_max":458,"o":"m 79 0 l 276 0 l 276 815 q 302 892 276 865 q 376 920 328 920 q 410 918 395 920 q 441 912 424 916 l 458 1058 q 400 1068 426 1065 q 350 1072 375 1072 q 150 1005 221 1072 q 79 815 79 939 l 79 0 "},"ƒ":{"ha":502,"x_min":-34,"x_max":505,"o":"m 463 595 l 463 734 l 323 734 l 323 815 q 348 891 323 865 q 420 918 372 918 q 456 916 440 918 q 488 911 472 913 l 505 1058 q 447 1068 472 1065 q 396 1072 421 1072 q 195 1005 267 1072 q 124 815 124 939 l 124 734 l 16 734 l 16 595 l 124 595 l 124 -27 q 103 -113 124 -83 q 43 -144 81 -144 q 8 -141 24 -144 q -24 -135 -8 -139 l -34 -285 q 14 -294 -9 -291 q 63 -296 36 -296 q 254 -226 185 -296 q 322 -27 322 -156 l 323 595 l 463 595 "},"Ơ":{"ha":973,"x_min":62,"x_max":1059,"o":"m 886 405 l 886 583 q 878 675 886 630 q 852 760 869 720 q 1006 881 952 795 q 1059 1097 1059 967 l 913 1097 q 877 956 913 1011 q 772 882 841 901 q 639 970 716 939 q 472 1002 562 1002 q 176 883 290 1002 q 62 583 62 764 l 62 405 q 176 104 62 223 q 473 -14 290 -14 q 772 104 657 -14 q 886 405 886 222 m 689 584 l 689 405 q 632 214 689 288 q 473 140 575 140 q 316 214 372 140 q 260 405 260 288 l 260 584 q 316 773 260 699 q 472 847 372 847 q 631 773 574 847 q 689 584 689 699 "},"ơ":{"ha":808,"x_min":45,"x_max":856,"o":"m 45 374 l 45 359 q 137 90 45 194 q 392 -14 229 -14 q 646 90 554 -14 q 738 359 738 194 l 738 374 q 727 474 738 426 q 697 565 717 523 q 815 667 774 598 q 856 835 856 736 l 713 835 q 693 723 713 770 q 635 653 673 677 q 528 723 590 698 q 391 747 467 747 q 137 643 229 747 q 45 374 45 538 m 243 359 l 243 374 q 278 533 243 471 q 391 595 314 595 q 504 533 468 595 q 540 374 540 471 l 540 359 q 504 199 540 260 q 392 138 469 138 q 278 198 313 138 q 243 359 243 259 "},"Ư":{"ha":990,"x_min":81,"x_max":1128,"o":"m 873 987 l 675 987 l 675 341 q 621 190 675 242 q 476 138 568 138 q 333 190 386 138 q 280 341 280 242 l 280 987 l 81 987 l 81 341 q 191 80 81 174 q 476 -14 300 -14 q 763 80 652 -14 q 873 341 873 174 l 873 734 q 1066 843 1004 753 q 1128 1090 1128 933 l 983 1090 q 958 935 983 991 q 878 864 934 878 l 873 865 l 873 987 "},"ư":{"ha":791,"x_min":71,"x_max":949,"o":"m 945 811 l 819 811 q 794 697 819 736 q 715 648 770 657 l 711 650 l 711 734 l 513 734 l 513 200 q 457 155 491 170 q 376 140 423 140 q 295 175 321 140 q 269 307 269 211 l 269 734 l 71 734 l 71 309 q 137 64 71 143 q 318 -14 202 -14 q 439 18 387 -14 q 526 109 492 50 l 547 0 l 711 0 l 711 540 q 891 622 834 555 q 947 808 949 688 l 945 811 "},"ǰ":{"ha":392,"x_min":-72,"x_max":444,"o":"m 299 734 l 102 734 l 102 -27 q 80 -113 102 -83 q 20 -144 58 -144 q -15 -141 2 -144 q -47 -135 -31 -139 l -57 -285 q -9 -294 -31 -291 q 41 -296 13 -296 q 231 -226 162 -296 q 299 -27 299 -156 l 299 734 m 186 947 l 107 1033 l -72 1033 l -72 1022 l 119 848 l 254 848 l 444 1021 l 444 1033 l 265 1033 l 186 947 "},"Ǻ":{"ha":884,"x_min":12,"x_max":880,"o":"m 606 213 l 673 0 l 880 0 l 548 987 l 345 987 l 12 0 l 219 0 l 286 213 l 606 213 m 334 368 l 444 716 l 448 716 l 557 368 l 334 368 m 512 1451 l 387 1312 l 389 1308 l 509 1308 l 687 1447 l 686 1451 l 512 1451 m 306 1150 q 346 1062 306 1097 q 444 1027 385 1027 q 539 1061 500 1027 q 578 1150 578 1096 q 539 1239 578 1203 q 444 1275 500 1275 q 346 1239 385 1275 q 306 1150 306 1203 m 382 1150 q 400 1194 382 1177 q 444 1211 417 1211 q 485 1194 469 1211 q 502 1150 502 1177 q 485 1107 502 1124 q 444 1090 469 1090 q 400 1107 417 1090 q 382 1150 382 1124 "},"ǻ":{"ha":746,"x_min":39,"x_max":706,"o":"m 509 0 l 706 0 q 681 90 689 45 q 673 187 673 136 l 673 490 q 592 681 673 614 q 378 747 510 747 q 154 680 239 747 q 73 519 68 612 l 74 515 l 264 515 q 291 579 264 556 q 365 603 317 603 q 448 574 420 603 q 475 492 475 545 l 475 433 l 364 433 q 122 374 205 433 q 39 207 39 315 q 101 45 39 104 q 279 -14 163 -14 q 398 21 348 -14 q 479 110 448 56 q 490 53 482 81 q 509 0 498 25 m 328 132 q 261 154 285 132 q 237 214 237 176 q 269 290 237 259 q 364 321 301 321 l 475 321 l 475 218 q 420 158 460 184 q 328 132 379 132 m 439 1233 l 315 1093 l 316 1090 l 436 1090 l 614 1229 l 613 1233 l 439 1233 m 233 932 q 273 843 233 878 q 371 808 313 808 q 467 843 428 808 q 506 932 506 878 q 467 1021 506 985 q 371 1057 428 1057 q 273 1021 313 1057 q 233 932 233 985 m 310 932 q 327 976 310 958 q 371 993 345 993 q 413 976 396 993 q 429 932 429 958 q 413 889 429 905 q 371 872 396 872 q 327 889 345 872 q 310 932 310 905 "},"Ǽ":{"ha":1319,"x_min":8,"x_max":1271,"o":"m 1271 0 l 1271 154 l 853 154 l 842 431 l 1174 431 l 1174 585 l 836 585 l 825 833 l 1229 833 l 1229 987 l 540 987 l 8 0 l 240 0 l 354 227 l 652 227 l 662 0 l 1271 0 m 435 390 l 626 770 l 630 769 l 646 390 l 435 390 m 679 1265 l 544 1085 l 713 1085 l 901 1261 l 899 1265 l 679 1265 "},"ǽ":{"ha":1201,"x_min":55,"x_max":1161,"o":"m 868 -14 q 1026 11 954 -14 q 1141 68 1099 35 l 1089 193 q 993 151 1035 165 q 889 138 951 138 q 763 183 805 138 q 718 304 721 229 l 720 308 l 1161 308 l 1161 415 q 1079 658 1161 568 q 852 747 996 747 q 730 729 785 747 q 634 675 675 710 q 537 729 594 710 q 411 747 480 747 q 181 684 267 747 q 98 522 94 620 l 100 518 l 291 506 q 322 569 291 544 q 409 595 354 595 q 487 564 459 595 q 514 479 514 533 l 514 439 l 391 439 q 141 381 227 439 q 55 215 55 323 q 126 47 55 109 q 327 -14 197 -14 q 490 16 421 -14 q 600 93 559 46 q 713 13 645 41 q 868 -14 781 -14 m 364 125 q 280 149 309 125 q 252 212 252 172 q 290 284 252 254 q 393 315 327 315 l 514 315 l 514 195 q 446 146 489 167 q 364 125 404 125 m 852 595 q 938 557 909 595 q 966 456 966 519 l 966 437 l 721 437 l 720 440 q 756 553 724 511 q 852 595 788 595 m 647 1048 l 512 867 l 681 867 l 869 1044 l 867 1048 l 647 1048 "},"Ǿ":{"ha":956,"x_min":66,"x_max":890,"o":"m 890 405 l 890 583 q 860 747 890 671 q 777 880 831 823 l 863 1029 l 766 1029 l 711 935 q 602 984 661 967 q 475 1002 542 1002 q 179 883 293 1002 q 66 583 66 764 l 66 405 q 103 218 66 303 q 211 76 141 132 l 129 -64 l 226 -64 l 281 31 q 373 -3 324 8 q 477 -14 422 -14 q 775 104 661 -14 q 890 405 890 222 m 263 405 l 263 584 q 319 773 263 699 q 475 847 375 847 q 558 831 521 847 q 624 785 596 814 l 307 241 l 303 241 q 273 313 283 271 q 263 405 263 355 m 692 584 l 692 405 q 635 214 692 288 q 477 140 578 140 q 415 148 444 140 q 363 172 387 156 l 670 698 l 673 697 q 687 645 682 674 q 692 584 692 616 m 523 1308 l 388 1127 l 557 1127 l 745 1303 l 743 1308 l 523 1308 "},"ǿ":{"ha":784,"x_min":45,"x_max":738,"o":"m 45 374 l 45 359 q 81 177 45 258 q 185 47 117 96 l 115 -96 l 224 -96 l 273 3 q 330 -9 300 -5 q 392 -14 359 -14 q 646 90 554 -14 q 738 359 738 194 l 738 374 q 703 551 738 471 q 604 681 669 631 l 674 824 l 565 824 l 517 727 q 456 742 488 736 q 391 747 425 747 q 137 643 229 747 q 45 374 45 538 m 243 359 l 243 374 q 278 533 243 471 q 391 595 314 595 q 420 592 406 595 q 447 583 434 589 l 271 223 l 267 224 q 249 282 254 247 q 243 359 243 317 m 540 374 l 540 359 q 504 199 540 260 q 392 138 469 138 q 365 139 378 138 q 342 146 353 141 l 515 499 l 519 498 q 534 443 529 475 q 540 374 540 410 m 405 1044 l 270 864 l 439 864 l 627 1040 l 625 1044 l 405 1044 "},"Ș":{"ha":859,"x_min":55,"x_max":804,"o":"m 606 258 q 564 169 606 202 q 443 136 522 136 q 303 177 355 136 q 252 306 252 218 l 60 306 l 58 302 q 169 65 55 144 q 443 -14 283 -14 q 705 59 606 -14 q 804 259 804 132 q 718 455 804 380 q 470 575 633 529 q 320 643 363 611 q 277 726 277 675 q 317 816 277 781 q 430 851 357 851 q 555 811 511 851 q 600 698 600 772 l 792 698 l 793 702 q 697 919 797 836 q 433 1002 597 1002 q 178 925 278 1002 q 79 726 79 848 q 167 536 79 606 q 427 414 256 466 q 566 349 526 384 q 606 258 606 315 m 488 -186 l 488 -77 l 359 -77 l 359 -179 l 318 -345 l 401 -345 l 488 -186 "},"ș":{"ha":716,"x_min":39,"x_max":665,"o":"m 473 203 q 444 143 473 165 q 360 121 415 121 q 264 148 301 121 q 226 233 228 174 l 45 233 l 43 229 q 124 60 39 134 q 356 -14 210 -14 q 580 49 495 -14 q 665 211 665 112 q 598 356 665 303 q 397 435 532 408 q 280 474 309 452 q 252 529 252 495 q 279 587 252 564 q 355 611 307 611 q 437 583 408 611 q 465 511 465 555 l 656 511 l 658 515 q 577 681 661 614 q 355 747 494 747 q 142 681 222 747 q 62 520 62 614 q 129 378 62 431 q 324 300 195 326 q 441 259 410 283 q 473 203 473 236 m 412 -186 l 412 -77 l 283 -77 l 283 -179 l 242 -345 l 325 -345 l 412 -186 "},"ȷ":{"ha":392,"x_min":-57,"x_max":299,"o":"m 299 734 l 102 734 l 102 -27 q 80 -113 102 -83 q 20 -144 58 -144 q -15 -141 2 -144 q -47 -135 -31 -139 l -57 -285 q -9 -294 -31 -291 q 41 -296 13 -296 q 231 -226 162 -296 q 299 -27 299 -156 l 299 734 "},"ʼ":{"ha":378,"x_min":108,"x_max":275,"o":"m 275 812 l 275 987 l 108 987 l 108 618 l 205 618 l 275 812 "},"ˆ":{"ha":689,"x_min":93,"x_max":593,"o":"m 593 865 l 399 1029 l 284 1029 l 93 867 l 93 849 l 247 849 l 341 939 l 436 849 l 593 849 l 593 865 "},"ˇ":{"ha":654,"x_min":67,"x_max":583,"o":"m 325 947 l 246 1034 l 67 1034 l 67 1023 l 258 849 l 393 849 l 583 1022 l 583 1034 l 404 1034 l 325 947 "},"˘":{"ha":617,"x_min":72,"x_max":541,"o":"m 536 987 l 391 987 q 371 928 391 951 q 307 905 350 905 q 242 928 263 905 q 222 987 222 951 l 77 987 l 76 983 q 136 843 72 897 q 307 788 199 788 q 478 843 414 788 q 538 983 541 897 l 536 987 "},"˙":{"ha":427,"x_min":94,"x_max":315,"o":"m 315 832 l 315 996 l 94 996 l 94 832 l 315 832 "},"˚":{"ha":463,"x_min":104,"x_max":357,"o":"m 104 885 q 141 803 104 835 q 232 770 178 770 q 321 803 285 770 q 357 885 357 835 q 321 968 357 935 q 232 1002 285 1002 q 141 968 178 1002 q 104 885 104 935 m 183 885 q 197 921 183 907 q 232 935 211 935 q 266 921 252 935 q 279 885 279 907 q 266 850 279 863 q 232 836 252 836 q 197 850 211 836 q 183 885 183 864 "},"˛":{"ha":419,"x_min":56,"x_max":350,"o":"m 275 0 l 185 41 q 87 -43 119 4 q 56 -142 56 -90 q 103 -249 56 -211 q 224 -288 151 -288 q 295 -279 265 -288 q 350 -258 326 -271 l 326 -153 q 296 -163 311 -159 q 262 -167 281 -167 q 216 -152 227 -167 q 204 -119 204 -138 q 221 -61 204 -86 q 275 0 238 -36 "},"˜":{"ha":669,"x_min":81,"x_max":589,"o":"m 589 1006 l 484 1037 q 467 983 484 1005 q 426 962 449 962 q 326 991 391 962 q 222 1021 260 1021 q 121 974 161 1021 q 81 863 81 926 l 186 834 q 203 887 186 865 q 243 909 219 909 q 339 879 279 909 q 446 850 399 850 q 548 896 508 850 q 589 1006 589 941 "},"˝":{"ha":594,"x_min":96,"x_max":684,"o":"m 493 1029 l 330 852 l 332 849 l 490 849 l 684 1025 l 682 1029 l 493 1029 m 230 1029 l 96 849 l 255 849 l 418 1026 l 416 1029 l 230 1029 "},"˳":{"ha":450,"x_min":107,"x_max":354,"o":"m 107 -155 q 143 -233 107 -202 q 232 -264 178 -264 q 319 -233 283 -264 q 354 -155 354 -202 q 319 -75 354 -106 q 232 -43 283 -43 q 143 -75 179 -43 q 107 -155 107 -106 m 184 -155 q 198 -120 184 -133 q 232 -106 211 -106 q 264 -120 252 -106 q 277 -155 277 -133 q 264 -188 277 -175 q 232 -201 252 -201 q 198 -188 211 -201 q 184 -155 184 -174 "},"̀":{"ha":0,"x_min":-552,"x_max":-304,"o":"m -304 857 l -397 1095 l -551 1095 l -552 1090 l -423 857 l -304 857 "},"́":{"ha":0,"x_min":-441,"x_max":-197,"o":"m -348 1096 l -440 857 l -325 857 l -197 1091 l -198 1096 l -348 1096 "},"̃":{"ha":0,"x_min":-610,"x_max":-102,"o":"m -102 1006 l -207 1037 q -224 983 -207 1005 q -265 962 -242 962 q -366 991 -300 962 q -469 1021 -431 1021 q -570 974 -530 1021 q -610 863 -610 926 l -505 834 q -488 887 -505 865 q -448 909 -472 909 q -352 879 -412 909 q -245 850 -292 850 q -143 896 -183 850 q -102 1006 -102 941 "},"̉":{"ha":0,"x_min":-501,"x_max":-238,"o":"m -488 857 l -340 857 l -340 901 q -267 932 -296 907 q -238 1000 -238 956 q -304 1097 -238 1061 q -496 1132 -371 1132 l -501 1042 q -431 1031 -456 1042 q -409 997 -406 1021 l -409 993 q -427 962 -406 972 q -498 950 -448 952 l -488 857 "},"̏":{"ha":0,"x_min":-702,"x_max":-114,"o":"m -349 852 l -512 1029 l -701 1029 l -702 1025 l -509 849 l -351 849 l -349 852 m -114 849 l -249 1029 l -435 1029 l -437 1026 l -274 849 l -114 849 "},"̣":{"ha":0,"x_min":-517,"x_max":-295,"o":"m -295 -240 l -295 -77 l -517 -77 l -517 -240 l -295 -240 "},"΄":{"ha":471,"x_min":163,"x_max":393,"o":"m 205 1053 l 163 861 l 260 861 l 393 1053 l 205 1053 "},"΅":{"ha":763,"x_min":104,"x_max":648,"o":"m 648 849 l 648 987 l 475 987 l 475 849 l 648 849 m 275 849 l 275 987 l 104 987 l 104 849 l 275 849 m 353 1192 l 324 1002 l 425 1002 l 544 1192 l 353 1192 "},"Ά":{"ha":884,"x_min":12,"x_max":880,"o":"m 606 213 l 673 0 l 880 0 l 548 987 l 345 987 l 12 0 l 219 0 l 286 213 l 606 213 m 334 368 l 444 716 l 448 716 l 557 368 l 334 368 m 104 1053 l 62 861 l 159 861 l 292 1053 l 104 1053 "},"·":{"ha":420,"x_min":108,"x_max":306,"o":"m 306 385 l 306 562 l 108 562 l 108 385 l 306 385 "},"Έ":{"ha":772,"x_min":-162,"x_max":724,"o":"m 655 434 l 655 587 l 289 587 l 289 835 l 723 835 l 723 987 l 91 987 l 91 0 l 724 0 l 724 152 l 289 152 l 289 434 l 655 434 m -121 1055 l -162 863 l -66 863 l 68 1055 l -121 1055 "},"Ή":{"ha":980,"x_min":-134,"x_max":889,"o":"m 889 0 l 889 987 l 691 987 l 691 563 l 289 563 l 289 987 l 91 987 l 91 0 l 289 0 l 289 410 l 691 410 l 691 0 l 889 0 m -92 1053 l -134 861 l -37 861 l 96 1053 l -92 1053 "},"Ί":{"ha":408,"x_min":-126,"x_max":302,"o":"m 302 0 l 302 987 l 104 987 l 104 0 l 302 0 m -85 1055 l -126 863 l -30 863 l 104 1055 l -85 1055 "},"Ό":{"ha":956,"x_min":-19,"x_max":890,"o":"m 890 405 l 890 583 q 774 883 890 764 q 475 1002 659 1002 q 179 883 293 1002 q 66 583 66 764 l 66 405 q 180 104 66 223 q 477 -14 294 -14 q 775 104 661 -14 q 890 405 890 222 m 692 584 l 692 405 q 635 214 692 288 q 477 140 578 140 q 319 214 376 140 q 263 405 263 288 l 263 584 q 319 773 263 699 q 475 847 375 847 q 635 773 577 847 q 692 584 692 699 m 22 1053 l -19 861 l 77 861 l 211 1053 l 22 1053 "},"Ύ":{"ha":884,"x_min":-195,"x_max":876,"o":"m 439 532 l 224 987 l 7 987 l 340 357 l 340 0 l 538 0 l 538 347 l 876 987 l 659 987 l 444 532 l 439 532 m -153 1053 l -195 861 l -98 861 l 35 1053 l -153 1053 "},"Ώ":{"ha":933,"x_min":-30,"x_max":851,"o":"m 498 157 l 498 0 l 841 0 l 841 154 l 667 154 q 800 312 749 215 q 851 518 851 408 l 851 581 q 742 884 851 766 q 460 1002 633 1002 q 179 884 287 1002 q 71 581 71 766 l 71 518 q 121 312 71 408 q 256 154 172 215 l 85 154 l 85 0 l 427 0 l 427 157 q 325 268 361 179 q 289 518 289 356 l 289 582 q 334 779 289 711 q 460 847 379 847 q 587 779 541 847 q 633 582 633 711 l 633 518 q 597 268 633 357 q 498 157 561 179 m 12 1053 l -30 861 l 66 861 l 200 1053 l 12 1053 "},"ΐ":{"ha":462,"x_min":-77,"x_max":467,"o":"m 291 733 l 93 733 l 93 220 q 150 44 93 102 q 313 -14 206 -14 q 379 -9 350 -14 q 439 9 408 -4 l 419 152 q 384 142 395 144 q 353 140 372 140 q 306 157 321 140 q 291 218 291 174 l 291 733 m 467 806 l 467 944 l 294 944 l 294 806 l 467 806 m 94 806 l 94 944 l -77 944 l -77 806 l 94 806 m 172 1148 l 143 959 l 243 959 l 363 1148 l 172 1148 "},"Α":{"ha":884,"x_min":12,"x_max":880,"o":"m 606 213 l 673 0 l 880 0 l 548 987 l 345 987 l 12 0 l 219 0 l 286 213 l 606 213 m 334 368 l 444 716 l 448 716 l 557 368 l 334 368 "},"Β":{"ha":885,"x_min":91,"x_max":831,"o":"m 91 0 l 473 0 q 738 73 644 0 q 831 288 831 146 q 785 435 831 372 q 646 515 738 498 q 749 595 713 542 q 784 717 784 649 q 686 919 784 851 q 414 987 589 987 l 91 987 l 91 0 m 289 437 l 471 437 q 593 398 553 437 q 634 288 634 359 q 593 186 634 220 q 473 152 551 152 l 289 152 l 289 437 m 289 574 l 289 835 l 414 835 q 543 802 500 835 q 586 701 586 770 q 543 606 586 639 q 421 574 500 574 l 289 574 "},"Γ":{"ha":771,"x_min":90,"x_max":733,"o":"m 733 835 l 733 987 l 90 987 l 90 0 l 288 0 l 288 835 l 733 835 "},"Δ":{"ha":1013,"x_min":15,"x_max":1002,"o":"m 410 987 l 15 0 l 1002 0 l 614 987 l 410 987 m 279 152 l 509 752 l 513 752 l 738 152 l 279 152 "},"Ε":{"ha":772,"x_min":91,"x_max":724,"o":"m 655 434 l 655 587 l 289 587 l 289 835 l 723 835 l 723 987 l 91 987 l 91 0 l 724 0 l 724 152 l 289 152 l 289 434 l 655 434 "},"Ζ":{"ha":789,"x_min":52,"x_max":739,"o":"m 286 152 l 727 888 l 727 987 l 53 987 l 53 835 l 492 835 l 52 103 l 52 0 l 739 0 l 739 152 l 286 152 "},"Η":{"ha":980,"x_min":91,"x_max":889,"o":"m 889 0 l 889 987 l 691 987 l 691 563 l 289 563 l 289 987 l 91 987 l 91 0 l 289 0 l 289 410 l 691 410 l 691 0 l 889 0 "},"Θ":{"ha":956,"x_min":66,"x_max":890,"o":"m 610 416 l 610 568 l 353 568 l 353 416 l 610 416 m 890 405 l 890 583 q 774 883 890 764 q 475 1002 659 1002 q 179 883 293 1002 q 66 583 66 764 l 66 405 q 180 104 66 223 q 477 -14 294 -14 q 775 104 661 -14 q 890 405 890 222 m 692 584 l 692 405 q 635 214 692 288 q 477 140 578 140 q 319 214 376 140 q 263 405 263 288 l 263 584 q 319 773 263 699 q 475 847 375 847 q 635 773 577 847 q 692 584 692 699 "},"Ι":{"ha":408,"x_min":104,"x_max":302,"o":"m 302 0 l 302 987 l 104 987 l 104 0 l 302 0 "},"Κ":{"ha":885,"x_min":91,"x_max":886,"o":"m 361 412 l 634 0 l 886 0 l 518 528 l 860 987 l 615 987 l 345 584 l 289 584 l 289 987 l 91 987 l 91 0 l 289 0 l 289 412 l 361 412 "},"Λ":{"ha":901,"x_min":13,"x_max":886,"o":"m 452 770 l 679 0 l 886 0 l 551 987 l 348 987 l 13 0 l 220 0 l 448 770 l 452 770 "},"Μ":{"ha":1208,"x_min":91,"x_max":1118,"o":"m 602 260 l 351 987 l 91 987 l 91 0 l 289 0 l 289 675 l 293 676 l 537 0 l 671 0 l 916 675 l 920 674 l 920 0 l 1118 0 l 1118 987 l 859 987 l 606 260 l 602 260 "},"Ν":{"ha":980,"x_min":91,"x_max":889,"o":"m 889 0 l 889 987 l 691 987 l 691 323 l 687 322 l 289 987 l 91 987 l 91 0 l 289 0 l 289 665 l 293 666 l 691 0 l 889 0 "},"Ξ":{"ha":789,"x_min":66,"x_max":732,"o":"m 66 152 l 66 0 l 732 0 l 732 152 l 66 152 m 142 576 l 142 429 l 655 429 l 655 576 l 142 576 m 81 987 l 81 835 l 704 835 l 704 987 l 81 987 "},"Ο":{"ha":956,"x_min":66,"x_max":890,"o":"m 890 405 l 890 583 q 774 883 890 764 q 475 1002 659 1002 q 179 883 293 1002 q 66 583 66 764 l 66 405 q 180 104 66 223 q 477 -14 294 -14 q 775 104 661 -14 q 890 405 890 222 m 692 584 l 692 405 q 635 214 692 288 q 477 140 578 140 q 319 214 376 140 q 263 405 263 288 l 263 584 q 319 773 263 699 q 475 847 375 847 q 635 773 577 847 q 692 584 692 699 "},"Π":{"ha":979,"x_min":90,"x_max":889,"o":"m 889 0 l 889 987 l 90 987 l 90 0 l 288 0 l 288 835 l 691 835 l 691 0 l 889 0 "},"Ρ":{"ha":885,"x_min":91,"x_max":834,"o":"m 289 358 l 469 358 q 736 444 639 358 q 834 672 834 530 q 736 901 834 814 q 469 987 639 987 l 91 987 l 91 0 l 289 0 l 289 358 m 289 511 l 289 835 l 469 835 q 594 788 552 835 q 637 671 637 742 q 594 556 637 601 q 469 511 551 511 l 289 511 "},"Σ":{"ha":789,"x_min":49,"x_max":749,"o":"m 559 491 l 559 503 l 313 835 l 731 835 l 731 987 l 49 987 l 49 885 l 349 497 l 49 103 l 49 0 l 749 0 l 749 153 l 312 153 l 559 491 "},"Τ":{"ha":797,"x_min":21,"x_max":779,"o":"m 779 835 l 779 987 l 21 987 l 21 835 l 299 835 l 299 0 l 497 0 l 497 835 l 779 835 "},"Υ":{"ha":884,"x_min":7,"x_max":876,"o":"m 439 532 l 224 987 l 7 987 l 340 357 l 340 0 l 538 0 l 538 347 l 876 987 l 659 987 l 444 532 l 439 532 "},"Φ":{"ha":1022,"x_min":40,"x_max":993,"o":"m 616 851 l 616 987 l 418 987 l 418 851 q 144 743 249 842 q 40 487 40 644 q 144 237 40 334 q 418 132 249 141 l 418 0 l 616 0 l 616 132 q 888 239 784 142 q 993 488 993 336 q 889 742 993 644 q 616 851 785 840 m 234 487 q 282 627 234 576 q 414 684 331 679 l 418 683 l 418 300 l 414 299 q 282 353 331 303 q 234 487 234 402 m 798 488 q 750 354 798 404 q 621 299 703 304 l 616 300 l 616 683 l 621 684 q 750 627 703 678 q 798 488 798 576 "},"Χ":{"ha":884,"x_min":21,"x_max":873,"o":"m 440 637 l 258 987 l 28 987 l 321 498 l 21 0 l 252 0 l 443 356 l 633 0 l 873 0 l 563 498 l 856 987 l 625 987 l 440 637 "},"Ψ":{"ha":1006,"x_min":38,"x_max":964,"o":"m 602 394 l 602 987 l 405 987 l 405 395 l 401 393 q 279 468 322 406 q 235 637 235 530 l 235 987 l 38 987 l 38 637 q 136 352 38 457 q 405 232 235 246 l 405 0 l 602 0 l 602 233 q 867 355 769 250 q 964 637 964 460 l 964 987 l 766 987 l 766 637 q 725 465 766 527 q 606 393 684 404 l 602 394 "},"Ω":{"ha":933,"x_min":71,"x_max":851,"o":"m 498 157 l 498 0 l 841 0 l 841 154 l 667 154 q 800 312 749 215 q 851 518 851 408 l 851 581 q 742 884 851 766 q 460 1002 633 1002 q 179 884 287 1002 q 71 581 71 766 l 71 518 q 121 312 71 408 q 256 154 172 215 l 85 154 l 85 0 l 427 0 l 427 157 q 325 268 361 179 q 289 518 289 356 l 289 582 q 334 779 289 711 q 460 847 379 847 q 587 779 541 847 q 633 582 633 711 l 633 518 q 597 268 633 357 q 498 157 561 179 "},"Ϊ":{"ha":408,"x_min":-56,"x_max":464,"o":"m 302 0 l 302 987 l 104 987 l 104 0 l 302 0 m 464 1086 l 464 1224 l 283 1224 l 283 1086 l 464 1086 m 125 1086 l 125 1224 l -56 1224 l -56 1086 l 125 1086 "},"Ϋ":{"ha":884,"x_min":7,"x_max":876,"o":"m 439 532 l 224 987 l 7 987 l 340 357 l 340 0 l 538 0 l 538 347 l 876 987 l 659 987 l 444 532 l 439 532 m 705 1086 l 705 1224 l 525 1224 l 525 1086 l 705 1086 m 366 1086 l 366 1224 l 186 1224 l 186 1086 l 366 1086 "},"ά":{"ha":783,"x_min":50,"x_max":791,"o":"m 698 733 l 550 733 l 519 643 q 440 720 486 693 q 336 747 395 747 q 125 641 200 747 q 50 361 50 534 l 50 347 q 124 85 50 184 q 335 -14 199 -14 q 443 13 397 -14 q 522 90 489 39 q 588 12 545 37 q 695 -14 632 -14 q 745 -10 724 -14 q 791 5 767 -6 l 774 147 q 761 143 767 144 q 746 142 755 142 q 710 160 722 142 q 698 220 698 177 l 698 733 m 248 347 l 248 361 q 281 530 248 465 q 387 595 314 595 q 453 578 425 595 q 500 531 481 562 l 500 220 q 500 208 500 213 q 500 198 500 203 q 454 153 482 168 q 385 138 425 138 q 280 194 312 138 q 248 347 248 250 m 387 1021 l 345 829 l 441 829 l 575 1021 l 387 1021 "},"έ":{"ha":773,"x_min":64,"x_max":726,"o":"m 396 311 l 523 311 l 523 439 l 396 439 q 306 460 337 439 q 275 519 275 481 q 305 578 275 553 q 395 603 335 603 q 484 581 449 603 q 518 523 518 559 l 709 523 l 711 527 q 625 686 714 625 q 406 747 536 747 q 167 691 256 747 q 77 533 77 635 q 111 443 77 484 q 203 378 144 402 q 100 312 136 355 q 64 208 64 269 q 160 46 64 105 q 406 -14 256 -14 q 631 45 536 -14 q 722 213 726 103 l 721 217 l 530 217 q 494 155 530 180 q 395 130 458 130 q 297 156 332 130 q 262 220 262 183 q 296 289 262 267 q 396 311 331 311 m 363 1021 l 322 829 l 418 829 l 552 1021 l 363 1021 "},"ή":{"ha":784,"x_min":73,"x_max":711,"o":"m 257 734 l 73 734 l 73 0 l 271 0 l 271 534 q 326 579 292 563 q 402 595 359 595 q 485 561 457 595 q 512 449 512 528 l 512 -281 l 711 -281 l 711 450 q 649 677 711 606 q 475 747 587 747 q 355 716 409 747 q 266 631 302 686 l 257 734 m 358 1021 l 317 829 l 413 829 l 547 1021 l 358 1021 "},"ί":{"ha":462,"x_min":93,"x_max":439,"o":"m 291 733 l 93 733 l 93 220 q 150 44 93 102 q 313 -14 206 -14 q 379 -9 350 -14 q 439 9 408 -4 l 419 152 q 384 142 395 144 q 353 140 372 140 q 306 157 321 140 q 291 218 291 174 l 291 733 m 169 1006 l 127 814 l 224 814 l 357 1006 l 169 1006 "},"ΰ":{"ha":784,"x_min":77,"x_max":733,"o":"m 274 734 l 77 734 l 77 320 q 164 68 77 151 q 406 -14 251 -14 q 656 94 579 -14 q 733 384 733 202 q 711 575 733 487 q 656 734 690 663 l 467 734 q 516 557 498 644 q 536 384 534 469 q 503 209 536 281 q 399 138 471 138 q 308 180 342 138 q 274 319 274 222 l 274 734 m 669 806 l 669 945 l 497 945 l 497 806 l 669 806 m 297 806 l 297 945 l 125 945 l 125 806 l 297 806 m 374 1149 l 346 960 l 446 960 l 566 1149 l 374 1149 "},"α":{"ha":783,"x_min":50,"x_max":791,"o":"m 698 733 l 550 733 l 519 643 q 440 720 486 693 q 336 747 395 747 q 125 641 200 747 q 50 361 50 534 l 50 347 q 124 85 50 184 q 335 -14 199 -14 q 443 13 397 -14 q 522 90 489 39 q 588 12 545 37 q 695 -14 632 -14 q 745 -10 724 -14 q 791 5 767 -6 l 774 147 q 761 143 767 144 q 746 142 755 142 q 710 160 722 142 q 698 220 698 177 l 698 733 m 248 347 l 248 361 q 281 530 248 465 q 387 595 314 595 q 453 578 425 595 q 500 531 481 562 l 500 220 q 500 208 500 213 q 500 198 500 203 q 454 153 482 168 q 385 138 425 138 q 280 194 312 138 q 248 347 248 250 "},"β":{"ha":836,"x_min":96,"x_max":787,"o":"m 425 1002 q 192 918 287 1002 q 96 703 96 834 l 96 -273 l 294 -273 l 294 37 q 385 -1 335 12 q 484 -14 434 -14 q 706 63 625 -14 q 787 281 787 141 q 742 432 787 369 q 614 524 696 495 q 709 612 675 557 q 744 734 744 667 q 657 930 744 859 q 425 1002 571 1002 m 422 583 l 378 583 l 378 443 l 444 443 q 551 400 513 443 q 589 283 589 357 q 548 179 589 220 q 439 138 508 138 q 357 148 394 138 q 294 179 320 159 l 294 703 q 330 809 294 769 q 425 849 367 849 q 514 812 483 849 q 546 721 546 774 q 516 618 546 654 q 422 583 486 583 "},"γ":{"ha":709,"x_min":11,"x_max":699,"o":"m 492 734 l 372 273 l 358 205 l 354 205 l 341 273 l 218 734 l 11 734 l 256 14 l 256 -283 l 454 -283 l 454 12 l 699 734 l 492 734 "},"δ":{"ha":784,"x_min":45,"x_max":738,"o":"m 664 987 l 115 987 l 115 867 l 313 707 l 312 703 l 307 702 q 119 587 192 682 q 45 356 45 492 l 45 342 q 137 85 45 184 q 392 -14 229 -14 q 646 90 554 -14 q 738 359 738 194 l 738 374 q 686 562 738 479 q 554 704 634 645 l 389 831 l 390 836 l 664 836 l 664 987 m 391 595 q 504 533 468 595 q 540 374 540 471 l 540 359 q 504 199 540 260 q 392 138 469 138 q 278 198 313 138 q 243 359 243 259 l 243 374 q 278 533 243 471 q 391 595 314 595 "},"ε":{"ha":773,"x_min":64,"x_max":726,"o":"m 396 311 l 523 311 l 523 439 l 396 439 q 306 460 337 439 q 275 519 275 481 q 305 578 275 553 q 395 603 335 603 q 484 581 449 603 q 518 523 518 559 l 709 523 l 711 527 q 625 686 714 625 q 406 747 536 747 q 167 691 256 747 q 77 533 77 635 q 111 443 77 484 q 203 378 144 402 q 100 312 136 355 q 64 208 64 269 q 160 46 64 105 q 406 -14 256 -14 q 631 45 536 -14 q 722 213 726 103 l 721 217 l 530 217 q 494 155 530 180 q 395 130 458 130 q 297 156 332 130 q 262 220 262 183 q 296 289 262 267 q 396 311 331 311 "},"ζ":{"ha":701,"x_min":51,"x_max":663,"o":"m 656 987 l 51 987 l 51 836 l 401 836 l 402 832 l 263 668 q 124 458 169 553 q 79 259 79 363 q 148 75 79 149 q 347 0 216 0 l 380 0 q 450 -15 429 0 q 471 -56 471 -29 q 445 -116 471 -92 q 374 -159 418 -140 l 439 -290 q 601 -193 541 -261 q 663 -40 661 -125 q 605 100 663 51 q 448 150 547 150 l 411 150 q 309 183 342 150 q 276 286 276 217 q 307 436 276 372 q 412 589 338 501 l 656 882 l 656 987 "},"η":{"ha":784,"x_min":73,"x_max":711,"o":"m 257 734 l 73 734 l 73 0 l 271 0 l 271 534 q 326 579 292 563 q 402 595 359 595 q 485 561 457 595 q 512 449 512 528 l 512 -281 l 711 -281 l 711 450 q 649 677 711 606 q 475 747 587 747 q 355 716 409 747 q 266 631 302 686 l 257 734 "},"θ":{"ha":820,"x_min":68,"x_max":736,"o":"m 736 357 l 736 629 q 645 902 736 802 q 402 1002 553 1002 q 160 902 251 1002 q 68 629 68 802 l 68 357 q 160 85 68 184 q 404 -14 252 -14 q 645 85 554 -14 q 736 357 736 184 m 539 422 l 539 338 q 504 190 539 241 q 404 138 468 138 q 302 190 338 138 q 266 338 266 241 l 266 422 l 539 422 m 266 570 l 266 650 q 301 797 266 745 q 402 849 337 849 q 503 797 467 849 q 539 650 539 745 l 539 570 l 266 570 "},"ι":{"ha":462,"x_min":93,"x_max":439,"o":"m 291 733 l 93 733 l 93 220 q 150 44 93 102 q 313 -14 206 -14 q 379 -9 350 -14 q 439 9 408 -4 l 419 152 q 384 142 395 144 q 353 140 372 140 q 306 157 321 140 q 291 218 291 174 l 291 733 "},"κ":{"ha":821,"x_min":87,"x_max":795,"o":"m 364 275 l 541 0 l 795 0 l 523 390 l 783 734 l 534 734 l 345 454 l 286 454 l 286 734 l 87 734 l 87 0 l 286 0 l 286 275 l 364 275 "},"λ":{"ha":747,"x_min":8,"x_max":775,"o":"m 222 0 l 345 422 l 355 477 l 359 477 l 456 211 q 536 60 486 122 q 673 -8 587 -2 q 718 -8 695 -9 q 762 -2 741 -6 l 775 146 q 756 146 765 146 q 740 147 748 146 q 692 175 712 152 q 660 234 672 198 l 414 844 q 329 976 383 922 q 168 1029 275 1029 q 121 1025 143 1029 q 71 1014 99 1021 l 75 872 q 97 875 83 873 q 120 876 111 876 q 183 852 156 876 q 227 791 210 829 l 263 718 l 8 0 l 222 0 "},"μ":{"ha":857,"x_min":94,"x_max":749,"o":"m 292 734 l 94 734 l 94 -282 l 292 -282 l 292 16 q 345 -7 315 0 q 409 -14 374 -14 q 493 1 454 -14 q 561 45 531 16 l 565 0 l 749 0 l 749 734 l 551 734 l 551 212 q 498 158 532 177 q 414 140 465 140 q 322 176 353 140 q 292 313 292 212 l 292 734 "},"ν":{"ha":709,"x_min":11,"x_max":699,"o":"m 341 273 l 218 734 l 11 734 l 260 0 l 450 0 l 699 734 l 492 734 l 372 273 l 358 205 l 354 205 l 341 273 "},"ξ":{"ha":744,"x_min":70,"x_max":731,"o":"m 665 987 l 83 987 l 83 830 l 227 830 q 156 773 180 808 q 131 691 131 738 q 167 595 131 635 q 270 532 203 555 q 121 437 172 500 q 70 285 70 375 q 164 65 70 144 q 416 -14 258 -14 l 464 -14 q 529 -32 508 -14 q 551 -79 551 -49 q 522 -145 551 -120 q 453 -187 493 -170 l 509 -304 q 672 -205 615 -271 q 731 -45 730 -140 q 672 96 731 48 q 509 143 613 143 l 427 143 q 310 181 353 143 q 267 282 267 220 q 322 410 267 366 q 484 454 378 454 l 581 454 l 581 611 l 479 611 q 365 641 401 611 q 329 721 329 670 q 365 799 329 770 q 475 830 401 828 l 665 830 l 665 987 "},"ο":{"ha":784,"x_min":45,"x_max":738,"o":"m 45 374 l 45 359 q 137 90 45 194 q 392 -14 229 -14 q 646 90 554 -14 q 738 359 738 194 l 738 374 q 646 643 738 538 q 391 747 553 747 q 137 643 229 747 q 45 374 45 538 m 243 359 l 243 374 q 278 533 243 471 q 391 595 314 595 q 504 533 468 595 q 540 374 540 471 l 540 359 q 504 199 540 260 q 392 138 469 138 q 278 198 313 138 q 243 359 243 259 "},"π":{"ha":920,"x_min":53,"x_max":847,"o":"m 829 589 l 829 734 l 53 734 l 53 589 l 161 589 l 161 0 l 359 0 l 359 589 l 500 589 l 500 220 q 557 44 500 102 q 720 -14 614 -14 q 786 -9 758 -14 q 847 9 815 -4 l 827 152 q 791 142 803 144 q 760 140 780 140 q 713 157 728 140 q 699 218 699 174 l 699 589 l 829 589 "},"ρ":{"ha":784,"x_min":76,"x_max":736,"o":"m 736 347 l 736 361 q 652 641 736 535 q 412 747 567 747 q 166 649 257 747 q 76 391 76 551 l 76 -282 l 273 -282 l 273 67 q 350 6 306 27 q 452 -14 395 -14 q 662 85 587 -14 q 736 347 736 184 m 539 361 l 539 347 q 506 194 539 250 q 401 138 473 138 q 323 154 355 138 q 273 201 292 170 l 273 375 l 273 375 l 273 376 q 305 532 273 470 q 401 595 337 595 q 506 530 473 595 q 539 361 539 465 "},"ς":{"ha":713,"x_min":42,"x_max":681,"o":"m 381 747 q 131 642 220 747 q 42 376 42 537 l 42 356 q 125 116 42 205 q 376 2 208 26 q 455 -23 430 -7 q 481 -65 481 -38 q 454 -125 481 -102 q 384 -168 428 -148 l 450 -298 q 610 -202 550 -270 q 672 -49 671 -134 q 613 85 672 42 q 427 149 555 129 q 284 214 328 163 q 240 356 240 264 l 240 376 q 273 533 240 471 q 381 595 305 595 q 467 557 437 595 q 496 463 496 520 l 677 463 l 678 467 q 599 672 681 596 q 381 747 517 747 "},"σ":{"ha":795,"x_min":44,"x_max":779,"o":"m 779 581 l 779 734 l 390 734 q 136 633 228 734 q 44 374 44 532 l 44 359 q 136 90 44 194 q 391 -14 228 -14 q 637 84 547 -14 q 726 332 726 182 l 726 346 q 692 474 726 413 q 604 581 659 536 l 779 581 m 242 359 l 242 374 q 278 523 242 465 q 390 581 313 581 q 495 523 462 581 q 529 374 529 465 l 529 359 q 496 199 529 260 q 391 138 463 138 q 277 198 313 138 q 242 359 242 259 "},"τ":{"ha":730,"x_min":35,"x_max":699,"o":"m 699 583 l 699 734 l 35 734 l 35 583 l 266 583 l 266 0 l 464 0 l 464 583 l 699 583 "},"υ":{"ha":784,"x_min":77,"x_max":733,"o":"m 274 734 l 77 734 l 77 320 q 164 68 77 151 q 406 -14 251 -14 q 656 94 579 -14 q 733 384 733 202 q 711 575 733 487 q 656 734 690 663 l 467 734 q 516 557 498 644 q 536 384 534 469 q 503 209 536 281 q 399 138 471 138 q 308 180 342 138 q 274 319 274 222 l 274 734 "},"φ":{"ha":1037,"x_min":36,"x_max":992,"o":"m 611 734 l 414 734 l 414 155 l 410 154 q 275 238 316 172 q 234 401 234 303 q 254 563 235 481 q 307 734 273 645 l 123 734 q 60 583 84 666 q 36 401 36 499 q 126 128 36 240 q 414 -8 216 16 l 414 -324 l 611 -324 l 611 -9 q 901 113 809 10 q 992 364 992 216 q 892 622 992 511 q 611 734 791 734 m 794 364 q 752 222 794 279 q 615 150 709 165 l 611 151 l 611 574 l 615 576 q 746 518 699 579 q 794 364 793 458 "},"χ":{"ha":747,"x_min":16,"x_max":738,"o":"m 113 745 q 64 741 87 745 q 16 730 42 736 l 20 588 q 41 591 27 589 q 64 592 56 592 q 135 569 104 592 q 182 507 166 547 l 297 240 l 43 -282 l 239 -282 l 388 20 l 392 20 l 432 -73 q 512 -224 466 -163 q 633 -292 557 -286 q 679 -293 656 -294 q 722 -287 702 -292 l 735 -138 q 716 -138 725 -138 q 700 -136 707 -138 q 653 -108 673 -131 q 620 -50 633 -85 l 495 239 l 738 734 l 537 734 l 404 460 l 400 461 l 358 559 q 274 691 328 637 q 113 745 220 745 "},"ψ":{"ha":1035,"x_min":46,"x_max":990,"o":"m 610 734 l 412 734 l 412 156 l 408 155 q 288 230 332 170 q 244 398 244 289 l 244 734 l 46 734 l 46 400 q 142 114 46 215 q 412 -7 237 14 l 412 -324 l 610 -324 l 610 -9 q 899 125 808 13 q 990 401 990 238 q 966 583 990 500 q 903 734 941 667 l 719 734 q 771 564 752 646 q 793 401 791 481 q 750 238 793 304 q 614 153 707 172 l 610 155 l 610 734 "},"ω":{"ha":1194,"x_min":54,"x_max":1139,"o":"m 347 734 l 159 734 q 83 575 111 663 q 54 384 54 488 q 127 94 54 202 q 364 -14 199 -14 q 503 23 443 -14 q 597 132 562 60 q 690 23 631 60 q 829 -14 749 -14 q 1066 94 994 -14 q 1139 384 1139 202 q 1110 576 1139 488 q 1034 734 1081 664 l 846 734 q 914 558 889 646 q 941 384 939 471 q 913 207 941 276 q 822 138 885 138 q 734 184 767 138 q 701 332 701 231 l 701 567 l 492 567 l 492 332 q 459 184 492 231 q 371 138 425 138 q 279 207 307 138 q 252 384 252 277 q 279 558 254 470 q 347 734 304 646 "},"ϊ":{"ha":462,"x_min":-58,"x_max":462,"o":"m 291 733 l 93 733 l 93 220 q 150 44 93 102 q 313 -14 206 -14 q 379 -9 350 -14 q 439 9 408 -4 l 419 152 q 384 142 395 144 q 353 140 372 140 q 306 157 321 140 q 291 218 291 174 l 291 733 m 462 852 l 462 991 l 281 991 l 281 852 l 462 852 m 123 852 l 123 991 l -58 991 l -58 852 l 123 852 "},"ϋ":{"ha":784,"x_min":77,"x_max":733,"o":"m 274 734 l 77 734 l 77 320 q 164 68 77 151 q 406 -14 251 -14 q 656 94 579 -14 q 733 384 733 202 q 711 575 733 487 q 656 734 690 663 l 467 734 q 516 557 498 644 q 536 384 534 469 q 503 209 536 281 q 399 138 471 138 q 308 180 342 138 q 274 319 274 222 l 274 734 m 665 853 l 665 991 l 484 991 l 484 853 l 665 853 m 326 853 l 326 991 l 145 991 l 145 853 l 326 853 "},"ό":{"ha":784,"x_min":45,"x_max":738,"o":"m 45 374 l 45 359 q 137 90 45 194 q 392 -14 229 -14 q 646 90 554 -14 q 738 359 738 194 l 738 374 q 646 643 738 538 q 391 747 553 747 q 137 643 229 747 q 45 374 45 538 m 243 359 l 243 374 q 278 533 243 471 q 391 595 314 595 q 504 533 468 595 q 540 374 540 471 l 540 359 q 504 199 540 260 q 392 138 469 138 q 278 198 313 138 q 243 359 243 259 m 358 1021 l 317 829 l 413 829 l 547 1021 l 358 1021 "},"ύ":{"ha":784,"x_min":77,"x_max":733,"o":"m 274 734 l 77 734 l 77 320 q 164 68 77 151 q 406 -14 251 -14 q 656 94 579 -14 q 733 384 733 202 q 711 575 733 487 q 656 734 690 663 l 467 734 q 516 557 498 644 q 536 384 534 469 q 503 209 536 281 q 399 138 471 138 q 308 180 342 138 q 274 319 274 222 l 274 734 m 372 1007 l 330 815 l 427 815 l 560 1007 l 372 1007 "},"ώ":{"ha":1194,"x_min":54,"x_max":1139,"o":"m 347 734 l 159 734 q 83 575 111 663 q 54 384 54 488 q 127 94 54 202 q 364 -14 199 -14 q 503 23 443 -14 q 597 132 562 60 q 690 23 631 60 q 829 -14 749 -14 q 1066 94 994 -14 q 1139 384 1139 202 q 1110 576 1139 488 q 1034 734 1081 664 l 846 734 q 914 558 889 646 q 941 384 939 471 q 913 207 941 276 q 822 138 885 138 q 734 184 767 138 q 701 332 701 231 l 701 567 l 492 567 l 492 332 q 459 184 492 231 q 371 138 425 138 q 279 207 307 138 q 252 384 252 277 q 279 558 254 470 q 347 734 304 646 m 563 1007 l 522 815 l 618 815 l 751 1007 l 563 1007 "},"ϑ":{"ha":947,"x_min":83,"x_max":884,"o":"m 370 656 l 370 656 q 457 459 370 539 q 676 370 545 379 q 624 204 673 264 q 488 144 574 144 q 344 209 397 144 q 292 377 292 274 l 292 850 l 83 849 l 83 377 q 195 97 83 208 q 488 -14 307 -14 q 775 93 666 -14 q 884 377 884 200 l 884 726 q 817 928 884 854 q 633 1002 749 1002 q 443 927 516 1002 q 370 726 370 852 l 370 656 m 676 745 l 676 517 l 672 516 q 589 560 619 522 q 558 655 558 599 l 558 745 q 575 811 558 788 q 622 833 593 833 q 662 811 648 833 q 676 745 676 789 "},"ϒ":{"ha":815,"x_min":-9,"x_max":824,"o":"m 522 816 l 422 559 l 409 498 l 405 498 l 393 559 l 292 821 q 200 964 251 924 q 60 1004 149 1004 q 21 1001 38 1004 q -9 991 4 998 l 7 840 q 21 842 9 841 q 41 844 33 844 q 84 826 65 844 q 117 779 103 808 l 307 332 l 307 0 l 504 0 l 504 323 l 698 779 q 729 826 710 808 q 773 844 748 844 q 793 842 781 844 q 808 840 805 841 l 824 991 q 793 1001 810 998 q 754 1004 776 1004 q 615 962 666 1004 q 522 816 564 920 "},"ϖ":{"ha":1150,"x_min":13,"x_max":1145,"o":"m 1145 610 l 1145 734 l 13 734 l 13 610 l 97 610 q 68 503 78 559 q 58 384 58 446 q 125 94 58 202 q 347 -14 193 -14 q 483 23 424 -14 q 576 132 541 60 q 668 23 609 60 q 805 -14 726 -14 q 1026 94 958 -14 q 1094 384 1094 202 q 1083 503 1094 446 q 1055 610 1073 559 l 1145 610 m 897 384 q 873 207 897 276 q 798 138 850 138 q 712 184 745 138 q 680 332 680 231 l 680 471 l 472 471 l 472 332 q 439 184 472 231 q 353 138 407 138 q 278 207 300 138 q 255 384 255 276 q 267 496 256 439 q 297 610 278 553 l 854 610 q 884 496 873 553 q 897 384 895 439 "},"Ѐ":{"ha":772,"x_min":91,"x_max":724,"o":"m 655 434 l 655 587 l 289 587 l 289 835 l 723 835 l 723 987 l 91 987 l 91 0 l 724 0 l 724 152 l 289 152 l 289 434 l 655 434 m 503 1085 l 370 1265 l 149 1265 l 148 1261 l 332 1085 l 503 1085 "},"Ё":{"ha":772,"x_min":91,"x_max":724,"o":"m 655 434 l 655 587 l 289 587 l 289 835 l 723 835 l 723 987 l 91 987 l 91 0 l 724 0 l 724 152 l 289 152 l 289 434 l 655 434 m 667 1086 l 667 1224 l 487 1224 l 487 1086 l 667 1086 m 328 1086 l 328 1224 l 148 1224 l 148 1086 l 328 1086 "},"Ђ":{"ha":1058,"x_min":35,"x_max":1028,"o":"m 793 835 l 793 987 l 35 987 l 35 835 l 313 835 l 313 0 l 511 0 l 511 467 l 629 467 q 777 422 724 467 q 829 292 829 377 q 794 181 829 226 q 692 106 759 136 l 775 -22 q 963 109 898 17 q 1027 292 1028 201 q 918 537 1027 452 q 629 622 810 622 l 511 622 l 511 835 l 793 835 "},"Ѓ":{"ha":771,"x_min":90,"x_max":733,"o":"m 733 835 l 733 987 l 90 987 l 90 0 l 288 0 l 288 835 l 733 835 m 451 1265 l 316 1085 l 485 1085 l 673 1261 l 671 1265 l 451 1265 "},"Є":{"ha":875,"x_min":79,"x_max":848,"o":"m 843 328 l 651 328 q 607 185 651 231 q 475 138 564 138 q 329 210 381 138 q 276 396 276 282 l 276 419 l 568 419 l 568 572 l 276 572 l 276 593 q 326 778 276 707 q 465 850 376 850 q 606 803 560 850 q 652 662 652 757 l 844 662 l 846 666 q 747 914 848 826 q 465 1002 645 1002 q 185 887 292 1002 q 79 592 79 772 l 79 396 q 188 101 79 215 q 475 -14 297 -14 q 748 76 649 -14 q 844 323 847 165 l 843 328 "},"Ѕ":{"ha":859,"x_min":55,"x_max":804,"o":"m 606 258 q 564 169 606 202 q 443 136 522 136 q 303 177 355 136 q 252 306 252 218 l 60 306 l 58 302 q 169 65 55 144 q 443 -14 283 -14 q 705 59 606 -14 q 804 259 804 132 q 718 455 804 380 q 470 575 633 529 q 320 643 363 611 q 277 726 277 675 q 317 816 277 781 q 430 851 357 851 q 555 811 511 851 q 600 698 600 772 l 792 698 l 793 702 q 697 919 797 836 q 433 1002 597 1002 q 178 925 278 1002 q 79 726 79 848 q 167 536 79 606 q 427 414 256 466 q 566 349 526 384 q 606 258 606 315 "},"І":{"ha":408,"x_min":104,"x_max":302,"o":"m 302 0 l 302 987 l 104 987 l 104 0 l 302 0 "},"Ї":{"ha":408,"x_min":-56,"x_max":464,"o":"m 302 0 l 302 987 l 104 987 l 104 0 l 302 0 m 464 1086 l 464 1224 l 283 1224 l 283 1086 l 464 1086 m 125 1086 l 125 1224 l -56 1224 l -56 1086 l 125 1086 "},"Ј":{"ha":771,"x_min":21,"x_max":682,"o":"m 484 987 l 484 306 q 450 183 484 228 q 361 138 415 138 q 257 175 296 138 q 218 292 218 213 l 26 292 l 24 288 q 113 63 21 140 q 361 -14 204 -14 q 592 73 502 -14 q 682 306 682 159 l 682 987 l 484 987 "},"Љ":{"ha":1471,"x_min":28,"x_max":1429,"o":"m 889 987 l 231 987 l 231 538 q 194 236 231 319 q 56 152 157 152 l 28 152 l 28 0 l 58 0 q 337 126 245 0 q 429 538 429 252 l 429 835 l 691 835 l 691 0 l 1059 0 q 1329 90 1228 0 q 1429 321 1429 179 q 1329 552 1429 463 q 1059 642 1228 642 l 889 642 l 889 987 m 889 490 l 1059 490 q 1186 441 1141 490 q 1232 323 1232 392 q 1186 201 1232 251 q 1059 152 1141 152 l 889 152 l 889 490 "},"Њ":{"ha":1470,"x_min":90,"x_max":1429,"o":"m 288 570 l 288 987 l 90 987 l 90 0 l 288 0 l 288 418 l 690 418 l 690 0 l 1058 0 q 1328 88 1227 0 q 1429 316 1429 176 q 1329 543 1429 455 q 1058 630 1228 630 l 888 630 l 888 987 l 690 987 l 690 570 l 288 570 m 888 477 l 1058 477 q 1186 431 1141 477 q 1231 317 1231 385 q 1186 201 1231 248 q 1058 155 1141 155 l 888 155 l 888 477 "},"Ћ":{"ha":1108,"x_min":45,"x_max":1024,"o":"m 804 835 l 804 987 l 45 987 l 45 835 l 323 835 l 323 0 l 522 0 l 522 511 l 654 511 q 787 473 747 511 q 826 338 826 435 l 826 0 l 1024 0 l 1024 338 q 928 584 1024 504 q 654 663 833 663 l 522 663 l 522 835 l 804 835 "},"Ќ":{"ha":885,"x_min":91,"x_max":886,"o":"m 361 412 l 634 0 l 886 0 l 518 528 l 860 987 l 615 987 l 345 584 l 289 584 l 289 987 l 91 987 l 91 0 l 289 0 l 289 412 l 361 412 m 446 1206 l 311 1025 l 479 1025 l 667 1202 l 666 1206 l 446 1206 "},"Ѝ":{"ha":970,"x_min":84,"x_max":882,"o":"m 684 987 l 286 328 l 281 328 l 281 987 l 84 987 l 84 0 l 281 0 l 680 661 l 684 660 l 684 0 l 882 0 l 882 987 l 684 987 m 578 1085 l 446 1265 l 225 1265 l 224 1261 l 408 1085 l 578 1085 "},"Ў":{"ha":888,"x_min":16,"x_max":871,"o":"m 432 549 l 230 987 l 16 987 l 364 271 l 349 233 q 302 162 332 186 q 217 138 273 138 q 170 142 193 138 q 116 155 146 146 l 93 14 q 166 -7 134 0 q 239 -14 198 -14 q 408 39 347 -14 q 511 187 468 92 l 871 987 l 661 987 l 454 488 l 450 489 l 432 549 m 673 1286 l 528 1286 q 508 1227 528 1250 q 444 1204 487 1204 q 379 1227 400 1204 q 359 1286 359 1250 l 214 1286 l 213 1282 q 273 1141 209 1196 q 444 1086 336 1086 q 615 1141 551 1086 q 675 1282 678 1196 l 673 1286 "},"Џ":{"ha":970,"x_min":81,"x_max":880,"o":"m 81 987 l 81 0 l 390 0 l 390 -244 l 588 -244 l 588 0 l 880 0 l 880 987 l 682 987 l 682 152 l 279 152 l 279 987 l 81 987 "},"А":{"ha":884,"x_min":12,"x_max":880,"o":"m 606 213 l 673 0 l 880 0 l 548 987 l 345 987 l 12 0 l 219 0 l 286 213 l 606 213 m 334 368 l 444 716 l 448 716 l 557 368 l 334 368 "},"Б":{"ha":870,"x_min":90,"x_max":828,"o":"m 733 835 l 733 987 l 90 987 l 90 0 l 457 0 q 727 90 627 0 q 828 321 828 179 q 728 551 828 463 q 457 640 627 640 l 288 640 l 288 835 l 733 835 m 288 488 l 457 488 q 586 440 541 488 q 631 323 631 392 q 586 201 631 251 q 457 152 541 152 l 288 152 l 288 488 "},"В":{"ha":885,"x_min":91,"x_max":831,"o":"m 91 0 l 473 0 q 738 73 644 0 q 831 288 831 146 q 785 435 831 372 q 646 515 738 498 q 749 595 713 542 q 784 717 784 649 q 686 919 784 851 q 414 987 589 987 l 91 987 l 91 0 m 289 437 l 471 437 q 593 398 553 437 q 634 288 634 359 q 593 186 634 220 q 473 152 551 152 l 289 152 l 289 437 m 289 574 l 289 835 l 414 835 q 543 802 500 835 q 586 701 586 770 q 543 606 586 639 q 421 574 500 574 l 289 574 "},"Г":{"ha":771,"x_min":90,"x_max":733,"o":"m 733 835 l 733 987 l 90 987 l 90 0 l 288 0 l 288 835 l 733 835 "},"Д":{"ha":994,"x_min":9,"x_max":999,"o":"m 999 -243 l 999 152 l 882 152 l 882 987 l 245 987 l 222 583 q 178 255 212 358 q 67 152 144 152 l 9 152 l 9 -243 l 207 -243 l 207 0 l 801 0 l 801 -243 l 999 -243 m 420 583 l 434 835 l 684 835 l 684 152 l 323 152 q 389 332 365 224 q 420 583 414 440 "},"Е":{"ha":772,"x_min":91,"x_max":724,"o":"m 655 434 l 655 587 l 289 587 l 289 835 l 723 835 l 723 987 l 91 987 l 91 0 l 724 0 l 724 152 l 289 152 l 289 434 l 655 434 "},"Ж":{"ha":1268,"x_min":4,"x_max":1263,"o":"m 799 412 l 1017 0 l 1263 0 l 956 533 l 1247 987 l 1003 987 l 784 584 l 736 584 l 736 987 l 539 987 l 539 584 l 489 584 l 265 987 l 20 987 l 315 532 l 4 0 l 251 0 l 473 412 l 539 412 l 539 0 l 736 0 l 736 412 l 799 412 "},"З":{"ha":912,"x_min":59,"x_max":848,"o":"m 452 578 l 319 578 l 319 429 l 452 429 q 600 393 550 429 q 650 279 650 357 q 594 177 650 217 q 441 138 538 138 q 308 177 360 138 q 256 274 256 216 l 64 274 l 63 270 q 172 58 59 131 q 441 -14 286 -14 q 735 63 623 -14 q 848 277 848 140 q 801 420 848 361 q 667 507 754 478 q 788 595 744 539 q 832 720 832 652 q 727 928 832 855 q 441 1002 622 1002 q 180 925 286 1002 q 77 726 73 849 l 78 722 l 270 722 q 319 813 270 778 q 441 849 368 849 q 585 811 536 849 q 635 717 635 774 q 590 614 635 651 q 452 578 545 578 "},"И":{"ha":970,"x_min":84,"x_max":882,"o":"m 684 987 l 286 328 l 281 328 l 281 987 l 84 987 l 84 0 l 281 0 l 680 661 l 684 660 l 684 0 l 882 0 l 882 987 l 684 987 "},"Й":{"ha":970,"x_min":84,"x_max":882,"o":"m 684 987 l 286 328 l 281 328 l 281 987 l 84 987 l 84 0 l 281 0 l 680 661 l 684 660 l 684 0 l 882 0 l 882 987 l 684 987 m 713 1286 l 568 1286 q 548 1227 568 1250 q 484 1204 527 1204 q 419 1227 440 1204 q 399 1286 399 1250 l 254 1286 l 253 1282 q 313 1141 249 1196 q 484 1086 376 1086 q 655 1141 591 1086 q 715 1282 718 1196 l 713 1286 "},"К":{"ha":885,"x_min":91,"x_max":886,"o":"m 361 412 l 634 0 l 886 0 l 518 528 l 860 987 l 615 987 l 345 584 l 289 584 l 289 987 l 91 987 l 91 0 l 289 0 l 289 412 l 361 412 "},"Л":{"ha":979,"x_min":28,"x_max":889,"o":"m 889 987 l 212 987 l 212 538 q 180 235 212 317 q 56 152 149 152 l 28 152 l 28 0 l 58 0 q 324 126 237 0 q 410 538 410 252 l 410 835 l 691 835 l 691 0 l 889 0 l 889 987 "},"М":{"ha":1208,"x_min":91,"x_max":1118,"o":"m 602 260 l 351 987 l 91 987 l 91 0 l 289 0 l 289 675 l 293 676 l 537 0 l 671 0 l 916 675 l 920 674 l 920 0 l 1118 0 l 1118 987 l 859 987 l 606 260 l 602 260 "},"Н":{"ha":980,"x_min":91,"x_max":889,"o":"m 889 0 l 889 987 l 691 987 l 691 563 l 289 563 l 289 987 l 91 987 l 91 0 l 289 0 l 289 410 l 691 410 l 691 0 l 889 0 "},"О":{"ha":956,"x_min":66,"x_max":890,"o":"m 890 405 l 890 583 q 774 883 890 764 q 475 1002 659 1002 q 179 883 293 1002 q 66 583 66 764 l 66 405 q 180 104 66 223 q 477 -14 294 -14 q 775 104 661 -14 q 890 405 890 222 m 692 584 l 692 405 q 635 214 692 288 q 477 140 578 140 q 319 214 376 140 q 263 405 263 288 l 263 584 q 319 773 263 699 q 475 847 375 847 q 635 773 577 847 q 692 584 692 699 "},"П":{"ha":979,"x_min":90,"x_max":889,"o":"m 889 0 l 889 987 l 90 987 l 90 0 l 288 0 l 288 835 l 691 835 l 691 0 l 889 0 "},"Р":{"ha":885,"x_min":91,"x_max":834,"o":"m 289 358 l 469 358 q 736 444 639 358 q 834 672 834 530 q 736 901 834 814 q 469 987 639 987 l 91 987 l 91 0 l 289 0 l 289 358 m 289 511 l 289 835 l 469 835 q 594 788 552 835 q 637 671 637 742 q 594 556 637 601 q 469 511 551 511 l 289 511 "},"С":{"ha":884,"x_min":67,"x_max":837,"o":"m 831 327 l 640 327 q 596 184 640 231 q 463 138 552 138 q 317 210 370 138 q 264 395 264 281 l 264 593 q 314 778 264 706 q 453 849 364 849 q 594 803 549 849 q 640 661 640 756 l 833 661 l 834 665 q 735 913 837 825 q 453 1002 633 1002 q 174 887 280 1002 q 67 591 67 772 l 67 395 q 176 100 67 214 q 463 -14 286 -14 q 736 75 637 -14 q 833 323 836 165 l 831 327 "},"Т":{"ha":797,"x_min":21,"x_max":779,"o":"m 779 835 l 779 987 l 21 987 l 21 835 l 299 835 l 299 0 l 497 0 l 497 835 l 779 835 "},"У":{"ha":888,"x_min":16,"x_max":871,"o":"m 432 549 l 230 987 l 16 987 l 364 271 l 349 233 q 302 162 332 186 q 217 138 273 138 q 170 142 193 138 q 116 155 146 146 l 93 14 q 166 -7 134 0 q 239 -14 198 -14 q 408 39 347 -14 q 511 187 468 92 l 871 987 l 661 987 l 454 488 l 450 489 l 432 549 "},"Ф":{"ha":1022,"x_min":40,"x_max":993,"o":"m 616 851 l 616 987 l 418 987 l 418 851 q 144 743 249 842 q 40 487 40 644 q 144 237 40 334 q 418 132 249 141 l 418 0 l 616 0 l 616 132 q 888 239 784 142 q 993 488 993 336 q 889 742 993 644 q 616 851 785 840 m 234 487 q 282 627 234 576 q 414 684 331 679 l 418 683 l 418 300 l 414 299 q 282 353 331 303 q 234 487 234 402 m 798 488 q 750 354 798 404 q 621 299 703 304 l 616 300 l 616 683 l 621 684 q 750 627 703 678 q 798 488 798 576 "},"Х":{"ha":884,"x_min":21,"x_max":873,"o":"m 440 637 l 258 987 l 28 987 l 321 498 l 21 0 l 252 0 l 443 356 l 633 0 l 873 0 l 563 498 l 856 987 l 625 987 l 440 637 "},"Ц":{"ha":1057,"x_min":82,"x_max":1013,"o":"m 82 987 l 82 0 l 815 0 l 815 -243 l 1013 -243 l 1013 153 l 881 153 l 881 987 l 683 987 l 683 153 l 280 153 l 280 987 l 82 987 "},"Ч":{"ha":963,"x_min":94,"x_max":873,"o":"m 873 987 l 675 987 l 675 533 q 573 516 630 522 q 475 511 517 511 q 335 547 378 511 q 292 680 292 584 l 292 987 l 94 987 l 94 680 q 194 437 94 515 q 475 358 293 358 q 574 364 519 358 q 675 380 630 370 l 675 0 l 873 0 l 873 987 "},"Ш":{"ha":1437,"x_min":87,"x_max":1352,"o":"m 286 987 l 87 987 l 87 0 l 1352 0 l 1352 987 l 1154 987 l 1154 152 l 820 152 l 820 987 l 623 987 l 623 152 l 286 152 l 286 987 "},"Щ":{"ha":1543,"x_min":87,"x_max":1506,"o":"m 286 987 l 87 987 l 87 0 l 1308 0 l 1308 -237 l 1506 -237 l 1506 141 l 1352 141 l 1352 987 l 1154 987 l 1154 152 l 820 152 l 820 987 l 623 987 l 623 152 l 286 152 l 286 987 "},"Ъ":{"ha":1000,"x_min":4,"x_max":939,"o":"m 4 987 l 4 835 l 200 835 l 200 0 l 568 0 q 838 90 737 0 q 939 321 939 179 q 838 551 939 463 q 568 640 738 640 l 398 640 l 398 987 l 4 987 m 398 488 l 568 488 q 696 440 651 488 q 741 323 741 392 q 696 201 741 251 q 568 152 651 152 l 398 152 l 398 488 "},"Ы":{"ha":1205,"x_min":90,"x_max":1115,"o":"m 288 640 l 288 987 l 90 987 l 90 0 l 457 0 q 727 90 627 0 q 828 321 828 179 q 728 551 828 463 q 457 640 627 640 l 288 640 m 1115 0 l 1115 987 l 917 987 l 917 0 l 1115 0 m 288 488 l 457 488 q 586 440 541 488 q 631 323 631 392 q 586 201 631 251 q 457 152 541 152 l 288 152 l 288 488 "},"Ь":{"ha":870,"x_min":90,"x_max":828,"o":"m 288 640 l 288 987 l 90 987 l 90 0 l 457 0 q 727 90 627 0 q 828 321 828 179 q 728 551 828 463 q 457 640 627 640 l 288 640 m 288 488 l 457 488 q 586 440 541 488 q 631 323 631 392 q 586 201 631 251 q 457 152 541 152 l 288 152 l 288 488 "},"Э":{"ha":873,"x_min":58,"x_max":808,"o":"m 64 661 l 256 661 q 297 803 256 757 q 427 850 338 850 q 562 778 514 850 q 609 592 609 706 l 609 576 l 306 576 l 306 424 l 609 424 l 609 395 q 562 209 609 280 q 427 138 514 138 q 296 184 337 138 q 255 326 255 230 l 63 326 l 62 322 q 155 74 58 161 q 427 -14 251 -14 q 703 100 598 -14 q 808 396 808 214 l 808 592 q 703 888 808 773 q 427 1002 598 1002 q 156 912 252 1002 q 62 665 59 822 l 64 661 "},"Ю":{"ha":1312,"x_min":104,"x_max":1215,"o":"m 1215 405 l 1215 583 q 1100 883 1215 764 q 801 1002 985 1002 q 505 883 618 1002 q 391 583 391 764 l 391 562 l 302 562 l 302 987 l 104 987 l 104 0 l 302 0 l 302 410 l 391 410 l 391 405 q 505 104 391 223 q 802 -14 619 -14 q 1101 104 986 -14 q 1215 405 1215 222 m 1018 584 l 1018 405 q 961 214 1018 288 q 802 140 904 140 q 645 214 701 140 q 589 405 589 288 l 589 584 q 645 773 589 699 q 801 847 701 847 q 960 773 903 847 q 1018 584 1018 699 "},"Я":{"ha":816,"x_min":-22,"x_max":741,"o":"m 193 0 l 376 380 l 543 380 l 543 0 l 741 0 l 741 987 l 399 987 q 133 910 229 987 q 36 694 36 833 q 75 544 36 608 q 192 441 115 481 l -22 0 l 193 0 m 543 835 l 543 525 l 399 525 q 276 569 319 525 q 233 685 233 614 q 275 795 233 756 q 399 835 317 835 l 543 835 "},"а":{"ha":746,"x_min":39,"x_max":706,"o":"m 509 0 l 706 0 q 681 90 689 45 q 673 187 673 136 l 673 490 q 592 681 673 614 q 378 747 510 747 q 154 680 239 747 q 73 519 68 612 l 74 515 l 264 515 q 291 579 264 556 q 365 603 317 603 q 448 574 420 603 q 475 492 475 545 l 475 433 l 364 433 q 122 374 205 433 q 39 207 39 315 q 101 45 39 104 q 279 -14 163 -14 q 398 21 348 -14 q 479 110 448 56 q 490 53 482 81 q 509 0 498 25 m 328 132 q 261 154 285 132 q 237 214 237 176 q 269 290 237 259 q 364 321 301 321 l 475 321 l 475 218 q 420 158 460 184 q 328 132 379 132 "},"б":{"ha":779,"x_min":44,"x_max":736,"o":"m 407 747 q 293 723 347 747 q 205 660 240 698 l 203 663 q 251 774 199 733 q 403 818 302 816 q 641 871 565 821 q 714 1052 718 922 l 713 1056 l 560 1056 q 518 995 560 1013 q 386 975 475 977 q 127 870 210 970 q 45 544 45 770 l 45 387 q 44 381 44 384 q 44 374 44 378 l 44 359 q 136 90 44 194 q 391 -14 228 -14 q 645 90 553 -14 q 736 359 736 194 l 736 374 q 649 643 736 538 q 407 747 562 747 m 390 595 q 503 533 467 595 q 539 374 539 471 l 539 359 q 504 199 539 260 q 391 138 468 138 q 277 198 313 138 q 242 359 242 259 l 242 374 q 277 533 242 471 q 390 595 313 595 "},"в":{"ha":784,"x_min":86,"x_max":741,"o":"m 86 0 l 440 0 q 663 53 585 0 q 741 210 741 106 q 697 315 741 270 q 571 376 654 360 q 668 437 634 397 q 703 529 703 477 q 621 682 703 631 q 393 734 539 734 l 86 734 l 86 0 m 284 306 l 440 306 q 518 286 494 306 q 543 227 543 265 q 517 170 543 189 q 440 151 492 151 l 284 151 l 284 306 m 284 435 l 284 583 l 393 583 q 477 564 450 583 q 505 505 505 545 q 479 452 505 470 q 398 435 453 435 l 284 435 "},"г":{"ha":580,"x_min":73,"x_max":574,"o":"m 574 581 l 574 734 l 73 734 l 73 0 l 271 0 l 271 581 l 574 581 "},"д":{"ha":926,"x_min":50,"x_max":882,"o":"m 96 152 l 50 152 l 50 -243 l 248 -243 l 248 0 l 684 0 l 684 -243 l 882 -243 l 882 152 l 781 152 l 781 734 l 237 734 l 222 433 q 193 217 215 281 q 117 153 171 153 l 96 153 l 96 152 m 420 433 l 427 576 l 583 576 l 583 152 l 368 152 q 402 273 390 203 q 420 433 415 343 "},"е":{"ha":726,"x_min":45,"x_max":687,"o":"m 394 -14 q 558 10 483 -14 q 677 71 633 35 l 624 193 q 528 151 574 165 q 415 138 481 138 q 293 184 334 138 q 248 307 252 231 l 250 311 l 687 311 l 687 413 q 608 657 687 566 q 381 747 529 747 q 135 643 224 748 q 45 373 45 538 l 45 346 q 138 86 45 187 q 394 -14 230 -14 m 381 595 q 467 558 440 595 q 493 456 493 521 l 493 441 l 252 441 l 250 445 q 289 554 257 513 q 381 595 321 595 "},"ж":{"ha":1126,"x_min":12,"x_max":1114,"o":"m 715 277 l 861 0 l 1114 0 l 874 397 l 1103 734 l 852 734 l 702 457 l 661 457 l 661 734 l 464 734 l 464 457 l 425 457 l 273 734 l 24 734 l 252 397 l 12 0 l 265 0 l 410 277 l 464 277 l 464 0 l 661 0 l 661 277 l 715 277 "},"з":{"ha":773,"x_min":58,"x_max":714,"o":"m 385 438 l 266 438 l 266 312 l 385 312 q 483 290 449 312 q 517 220 517 267 q 483 156 517 182 q 387 129 448 129 q 288 154 323 129 q 254 217 254 180 l 63 217 l 62 213 q 151 45 58 103 q 376 -14 245 -14 q 619 46 524 -14 q 714 208 714 105 q 679 312 714 269 q 577 378 644 355 q 668 443 635 402 q 701 533 701 484 q 612 691 701 635 q 376 747 524 747 q 157 686 244 747 q 73 527 69 625 l 75 523 l 265 523 q 298 581 265 559 q 386 603 332 603 q 474 578 445 603 q 503 519 503 553 q 473 459 503 481 q 385 438 443 438 "},"и":{"ha":784,"x_min":73,"x_max":711,"o":"m 514 734 l 275 287 l 271 288 l 271 734 l 73 734 l 73 0 l 271 0 l 510 448 l 514 448 l 514 0 l 711 0 l 711 734 l 514 734 "},"й":{"ha":784,"x_min":73,"x_max":711,"o":"m 514 734 l 275 287 l 271 288 l 271 734 l 73 734 l 73 0 l 271 0 l 510 448 l 514 448 l 514 0 l 711 0 l 711 734 l 514 734 m 622 1053 l 477 1053 q 456 994 477 1017 q 393 971 435 971 q 328 994 349 971 q 307 1053 307 1017 l 163 1053 l 161 1049 q 221 908 157 963 q 393 854 285 854 q 563 908 500 854 q 623 1049 627 963 l 622 1053 "},"к":{"ha":791,"x_min":87,"x_max":785,"o":"m 361 275 l 521 0 l 785 0 l 520 393 l 763 734 l 513 734 l 345 454 l 286 454 l 286 734 l 87 734 l 87 0 l 286 0 l 286 275 l 361 275 "},"л":{"ha":779,"x_min":10,"x_max":711,"o":"m 711 734 l 140 734 l 140 421 q 119 212 140 268 q 31 157 99 157 l 10 156 l 12 0 l 44 0 q 271 102 205 0 q 338 421 338 204 l 338 581 l 514 581 l 514 0 l 711 0 l 711 734 "},"м":{"ha":1056,"x_min":87,"x_max":960,"o":"m 519 231 l 333 734 l 87 734 l 87 0 l 286 0 l 286 429 l 290 429 l 456 0 l 589 0 l 759 439 l 763 438 l 763 0 l 960 0 l 960 734 l 713 734 l 524 231 l 519 231 "},"н":{"ha":784,"x_min":73,"x_max":710,"o":"m 710 0 l 710 734 l 512 734 l 512 437 l 271 437 l 271 734 l 73 734 l 73 0 l 271 0 l 271 285 l 512 285 l 512 0 l 710 0 "},"о":{"ha":784,"x_min":45,"x_max":738,"o":"m 45 374 l 45 359 q 137 90 45 194 q 392 -14 229 -14 q 646 90 554 -14 q 738 359 738 194 l 738 374 q 646 643 738 538 q 391 747 553 747 q 137 643 229 747 q 45 374 45 538 m 243 359 l 243 374 q 278 533 243 471 q 391 595 314 595 q 504 533 468 595 q 540 374 540 471 l 540 359 q 504 199 540 260 q 392 138 469 138 q 278 198 313 138 q 243 359 243 259 "},"п":{"ha":784,"x_min":73,"x_max":711,"o":"m 711 0 l 711 734 l 73 734 l 73 0 l 271 0 l 271 581 l 513 581 l 513 0 l 711 0 "},"р":{"ha":784,"x_min":76,"x_max":738,"o":"m 738 347 l 738 361 q 663 641 738 534 q 451 747 587 747 q 344 721 390 747 q 266 647 298 695 l 254 734 l 76 734 l 76 -282 l 273 -282 l 273 70 q 350 7 305 28 q 452 -14 395 -14 q 663 85 587 -14 q 738 347 738 184 m 540 361 l 540 347 q 506 194 540 250 q 401 138 473 138 q 323 154 355 138 q 273 201 292 170 l 273 523 q 323 575 292 557 q 399 593 355 593 q 505 529 471 593 q 540 361 540 465 "},"с":{"ha":716,"x_min":42,"x_max":680,"o":"m 382 138 q 272 198 304 138 q 240 356 240 258 l 240 376 q 272 533 240 472 q 381 595 304 595 q 465 557 435 595 q 495 463 495 519 l 675 463 l 677 467 q 597 670 680 593 q 381 747 515 747 q 131 643 219 747 q 42 376 42 538 l 42 356 q 131 90 42 194 q 382 -14 220 -14 q 594 61 509 -14 q 677 247 680 136 l 675 251 l 495 251 q 465 169 495 199 q 382 138 434 138 "},"т":{"ha":726,"x_min":33,"x_max":697,"o":"m 697 583 l 697 734 l 33 734 l 33 583 l 264 583 l 264 0 l 463 0 l 463 583 l 697 583 "},"у":{"ha":709,"x_min":3,"x_max":706,"o":"m 340 308 l 216 734 l 3 734 l 264 1 l 241 -56 q 200 -116 227 -92 q 125 -140 174 -140 q 106 -139 117 -140 q 87 -136 96 -138 l 64 -281 q 116 -292 95 -288 q 163 -296 138 -296 q 323 -242 270 -296 q 408 -110 377 -189 l 706 734 l 493 734 l 353 267 l 349 267 l 340 308 "},"ф":{"ha":1214,"x_min":42,"x_max":1166,"o":"m 42 361 l 42 347 q 117 85 42 184 q 328 -14 193 -14 q 426 6 382 -14 q 503 65 470 26 l 503 -282 l 701 -282 l 701 66 q 778 6 734 27 q 880 -14 822 -14 q 1090 85 1015 -14 q 1166 347 1166 184 l 1166 361 q 1090 641 1166 534 q 878 747 1015 747 q 777 725 821 747 q 701 661 733 703 l 701 1058 l 503 1058 l 503 664 q 427 726 471 704 q 329 747 384 747 q 117 641 193 747 q 42 361 42 534 m 967 361 l 967 347 q 934 194 967 250 q 828 138 901 138 q 751 154 782 138 q 701 201 720 170 l 701 524 q 751 576 720 558 q 827 595 782 595 q 933 530 899 595 q 967 361 967 465 m 240 347 l 240 361 q 273 530 240 465 q 379 595 307 595 q 453 577 422 595 q 503 527 484 559 l 503 201 q 452 154 484 170 q 378 138 421 138 q 272 194 304 138 q 240 347 240 250 "},"х":{"ha":709,"x_min":13,"x_max":700,"o":"m 352 500 l 242 734 l 20 734 l 241 371 l 13 0 l 237 0 l 357 243 l 477 0 l 700 0 l 471 371 l 692 734 l 469 734 l 356 500 l 352 500 "},"ц":{"ha":846,"x_min":73,"x_max":817,"o":"m 73 734 l 73 0 l 620 0 l 620 -243 l 817 -243 l 817 152 l 711 152 l 711 734 l 513 734 l 513 152 l 271 152 l 271 734 l 73 734 "},"ч":{"ha":778,"x_min":70,"x_max":706,"o":"m 706 0 l 706 734 l 508 734 l 508 386 q 457 378 482 380 q 408 375 433 375 q 300 403 332 375 q 268 503 268 431 l 268 734 l 70 734 l 70 503 q 158 292 70 361 q 408 222 245 222 q 457 225 431 222 q 508 233 483 227 l 508 0 l 706 0 "},"ш":{"ha":1147,"x_min":73,"x_max":1066,"o":"m 271 734 l 73 734 l 73 0 l 1066 0 l 1066 734 l 868 734 l 868 152 l 669 152 l 669 734 l 470 734 l 470 152 l 271 152 l 271 734 "},"щ":{"ha":1258,"x_min":73,"x_max":1217,"o":"m 271 734 l 73 734 l 73 0 l 1019 0 l 1019 -244 l 1217 -244 l 1217 155 l 1066 155 l 1066 734 l 868 734 l 868 152 l 669 152 l 669 734 l 470 734 l 470 152 l 271 152 l 271 734 "},"ъ":{"ha":883,"x_min":9,"x_max":876,"o":"m 420 496 l 420 734 l 9 734 l 9 581 l 222 581 l 222 0 l 558 0 q 791 69 706 0 q 876 250 876 138 q 791 428 876 360 q 558 496 706 496 l 420 496 m 420 345 l 558 345 q 648 317 618 345 q 678 248 678 290 q 648 178 678 205 q 558 151 618 151 l 420 151 l 420 345 "},"ы":{"ha":1155,"x_min":101,"x_max":1022,"o":"m 300 496 l 300 734 l 101 734 l 101 0 l 437 0 q 670 69 585 0 q 755 250 755 138 q 670 428 755 360 q 437 496 585 496 l 300 496 m 1022 0 l 1022 734 l 824 734 l 824 0 l 1022 0 m 300 345 l 437 345 q 528 317 498 345 q 557 248 557 290 q 528 178 557 205 q 437 151 498 151 l 300 151 l 300 345 "},"ь":{"ha":775,"x_min":87,"x_max":741,"o":"m 286 496 l 286 734 l 87 734 l 87 0 l 424 0 q 656 69 572 0 q 741 250 741 138 q 656 428 741 360 q 424 496 572 496 l 286 496 m 286 345 l 424 345 q 514 317 484 345 q 544 248 544 290 q 514 178 544 205 q 424 151 484 151 l 286 151 l 286 345 "},"э":{"ha":722,"x_min":43,"x_max":682,"o":"m 342 595 q 440 550 407 595 q 478 433 473 505 l 477 429 l 287 429 l 287 311 l 477 311 l 479 307 q 441 185 474 232 q 343 138 408 138 q 258 175 289 138 q 228 271 228 213 l 47 271 l 46 267 q 125 63 43 140 q 343 -14 208 -14 q 593 90 503 -14 q 682 356 682 195 l 682 376 q 593 643 682 538 q 342 747 503 747 q 129 672 215 747 q 46 486 43 597 l 47 482 l 228 482 q 259 564 228 532 q 342 595 290 595 "},"ю":{"ha":1127,"x_min":90,"x_max":1081,"o":"m 288 450 l 288 734 l 90 734 l 90 0 l 288 0 l 288 297 l 392 297 q 499 71 409 156 q 735 -14 589 -14 q 989 90 897 -14 q 1081 359 1081 194 l 1081 374 q 989 643 1081 538 q 734 747 897 747 q 503 666 592 747 q 394 450 414 584 l 288 450 m 586 359 l 586 374 q 622 533 586 471 q 734 595 657 595 q 847 533 811 595 q 883 374 883 471 l 883 359 q 847 199 883 260 q 735 138 812 138 q 621 198 656 138 q 586 359 586 259 "},"я":{"ha":784,"x_min":35,"x_max":694,"o":"m 694 734 l 372 734 q 142 666 227 734 q 57 490 57 597 q 93 372 57 424 q 197 290 130 319 l 35 0 l 235 0 l 378 257 l 498 257 l 498 0 l 694 0 l 694 734 m 255 485 q 286 553 255 523 q 372 583 316 583 l 498 583 l 498 391 l 368 391 q 284 419 314 391 q 255 485 255 447 "},"ѐ":{"ha":726,"x_min":45,"x_max":687,"o":"m 394 -14 q 558 10 483 -14 q 677 71 633 35 l 624 193 q 528 151 574 165 q 415 138 481 138 q 293 184 334 138 q 248 307 252 231 l 250 311 l 687 311 l 687 413 q 608 657 687 566 q 381 747 529 747 q 135 643 224 748 q 45 373 45 538 l 45 346 q 138 86 45 187 q 394 -14 230 -14 m 381 595 q 467 558 440 595 q 493 456 493 521 l 493 441 l 252 441 l 250 445 q 289 554 257 513 q 381 595 321 595 m 460 867 l 328 1048 l 107 1048 l 106 1044 l 290 867 l 460 867 "},"ё":{"ha":726,"x_min":45,"x_max":687,"o":"m 394 -14 q 558 10 483 -14 q 677 71 633 35 l 624 193 q 528 151 574 165 q 415 138 481 138 q 293 184 334 138 q 248 307 252 231 l 250 311 l 687 311 l 687 413 q 608 657 687 566 q 381 747 529 747 q 135 643 224 748 q 45 373 45 538 l 45 346 q 138 86 45 187 q 394 -14 230 -14 m 381 595 q 467 558 440 595 q 493 456 493 521 l 493 441 l 252 441 l 250 445 q 289 554 257 513 q 381 595 321 595 m 625 868 l 625 1006 l 445 1006 l 445 868 l 625 868 m 286 868 l 286 1006 l 106 1006 l 106 868 l 286 868 "},"ђ":{"ha":784,"x_min":-24,"x_max":711,"o":"m 376 818 l 376 940 l 269 940 l 269 1058 l 71 1058 l 71 940 l -24 940 l -24 818 l 71 818 l 71 0 l 269 0 l 269 537 q 324 579 290 564 q 403 593 357 593 q 485 558 458 593 q 513 437 513 522 l 513 -28 q 491 -114 513 -83 q 431 -144 470 -144 q 396 -142 413 -144 q 364 -136 379 -140 l 355 -285 q 402 -294 379 -291 q 452 -296 425 -296 q 643 -227 574 -296 q 711 -28 711 -157 l 711 319 l 711 319 l 711 435 q 645 671 711 595 q 465 747 580 747 q 354 719 404 747 q 269 641 304 691 l 269 818 l 376 818 "},"ѓ":{"ha":580,"x_min":73,"x_max":574,"o":"m 574 581 l 574 734 l 73 734 l 73 0 l 271 0 l 271 581 l 574 581 m 326 1033 l 191 852 l 359 852 l 547 1029 l 546 1033 l 326 1033 "},"є":{"ha":722,"x_min":42,"x_max":680,"o":"m 382 138 q 283 181 316 138 q 246 296 251 224 l 248 300 l 448 300 l 448 418 l 241 418 q 280 546 248 498 q 381 595 313 595 q 465 557 435 595 q 495 463 495 519 l 675 463 l 677 467 q 597 670 680 593 q 381 747 515 747 q 131 643 219 747 q 42 376 42 538 l 42 356 q 131 90 42 194 q 382 -14 220 -14 q 594 61 509 -14 q 677 247 680 136 l 675 251 l 495 251 q 465 169 495 199 q 382 138 434 138 "},"ѕ":{"ha":716,"x_min":39,"x_max":665,"o":"m 473 203 q 444 143 473 165 q 360 121 415 121 q 264 148 301 121 q 226 233 228 174 l 45 233 l 43 229 q 124 60 39 134 q 356 -14 210 -14 q 580 49 495 -14 q 665 211 665 112 q 598 356 665 303 q 397 435 532 408 q 280 474 309 452 q 252 529 252 495 q 279 587 252 564 q 355 611 307 611 q 437 583 408 611 q 465 511 465 555 l 656 511 l 658 515 q 577 681 661 614 q 355 747 494 747 q 142 681 222 747 q 62 520 62 614 q 129 378 62 431 q 324 300 195 326 q 441 259 410 283 q 473 203 473 236 "},"і":{"ha":371,"x_min":86,"x_max":284,"o":"m 284 0 l 284 734 l 86 734 l 86 0 l 284 0 m 284 909 l 284 1058 l 86 1058 l 86 909 l 284 909 "},"ї":{"ha":381,"x_min":-69,"x_max":450,"o":"m 288 0 l 288 734 l 90 734 l 90 0 l 288 0 m 450 853 l 450 991 l 270 991 l 270 853 l 450 853 m 111 853 l 111 991 l -69 991 l -69 853 l 111 853 "},"ј":{"ha":368,"x_min":-66,"x_max":290,"o":"m 290 734 l 91 734 l 91 -27 q 69 -114 91 -85 q 7 -142 47 -142 q -26 -140 -10 -142 q -57 -134 -41 -138 l -66 -285 q -19 -294 -41 -291 q 31 -296 3 -296 q 221 -226 153 -296 q 290 -27 290 -156 l 290 734 m 286 911 l 286 1058 l 87 1058 l 87 911 l 286 911 "},"љ":{"ha":1201,"x_min":17,"x_max":1168,"o":"m 712 734 l 159 734 l 159 421 q 129 219 159 284 q 38 154 99 154 l 17 154 l 19 0 l 51 0 q 285 103 213 0 q 357 421 357 207 l 357 581 l 514 581 l 514 0 l 850 0 q 1083 69 998 0 q 1168 250 1168 138 q 1083 429 1168 360 q 850 497 998 497 l 712 497 l 712 734 m 712 345 l 850 345 q 941 318 911 345 q 970 251 970 292 q 941 179 970 208 q 850 151 911 151 l 712 151 l 712 345 "},"њ":{"ha":1199,"x_min":73,"x_max":1165,"o":"m 271 451 l 271 734 l 73 734 l 73 0 l 271 0 l 271 299 l 512 299 l 512 0 l 848 0 q 1080 69 996 0 q 1165 250 1165 138 q 1080 428 1165 360 q 848 496 996 496 l 710 496 l 710 734 l 512 734 l 512 451 l 271 451 m 710 345 l 848 345 q 938 318 908 345 q 968 251 968 292 q 938 179 968 208 q 848 151 908 151 l 710 151 l 710 345 "},"ћ":{"ha":784,"x_min":20,"x_max":711,"o":"m 475 821 l 475 944 l 269 944 l 269 1058 l 71 1058 l 71 944 l 20 944 l 20 821 l 71 821 l 71 0 l 269 0 l 269 537 q 324 579 290 564 q 403 593 357 593 q 485 558 458 593 q 513 437 513 522 l 513 0 l 711 0 l 711 435 q 645 671 711 595 q 465 747 580 747 q 354 719 404 747 q 269 641 304 691 l 269 821 l 475 821 "},"ќ":{"ha":791,"x_min":87,"x_max":785,"o":"m 361 275 l 521 0 l 785 0 l 520 393 l 763 734 l 513 734 l 345 454 l 286 454 l 286 734 l 87 734 l 87 0 l 286 0 l 286 275 l 361 275 m 426 1032 l 291 852 l 460 852 l 648 1028 l 646 1032 l 426 1032 "},"ѝ":{"ha":784,"x_min":73,"x_max":711,"o":"m 514 734 l 275 287 l 271 288 l 271 734 l 73 734 l 73 0 l 271 0 l 510 448 l 514 448 l 514 0 l 711 0 l 711 734 l 514 734 m 487 852 l 354 1033 l 134 1033 l 132 1029 l 317 852 l 487 852 "},"ў":{"ha":709,"x_min":3,"x_max":706,"o":"m 340 308 l 216 734 l 3 734 l 264 1 l 241 -56 q 200 -116 227 -92 q 125 -140 174 -140 q 106 -139 117 -140 q 87 -136 96 -138 l 64 -281 q 116 -292 95 -288 q 163 -296 138 -296 q 323 -242 270 -296 q 408 -110 377 -189 l 706 734 l 493 734 l 353 267 l 349 267 l 340 308 m 585 1053 l 439 1053 q 419 994 439 1017 q 355 971 398 971 q 291 994 311 971 q 270 1053 270 1017 l 125 1053 l 124 1049 q 184 908 120 963 q 355 854 248 854 q 526 908 463 854 q 586 1049 589 963 l 585 1053 "},"џ":{"ha":784,"x_min":73,"x_max":711,"o":"m 271 734 l 73 734 l 73 0 l 294 0 l 294 -243 l 491 -243 l 491 0 l 711 0 l 711 734 l 513 734 l 513 152 l 271 152 l 271 734 "},"Ѡ":{"ha":1332,"x_min":67,"x_max":1270,"o":"m 744 973 l 785 829 q 844 844 812 838 q 915 849 877 849 q 1029 779 985 849 q 1072 598 1072 709 l 1072 391 q 1027 208 1072 279 q 907 138 982 138 q 818 152 849 138 q 768 188 786 165 l 768 375 l 895 375 l 895 512 l 442 512 l 442 375 l 570 375 l 570 188 q 519 152 551 165 q 430 138 488 138 q 310 208 355 138 q 264 391 264 279 l 264 598 q 308 779 264 709 q 422 849 351 849 q 492 844 460 849 q 551 829 525 838 l 593 973 q 510 994 554 987 q 418 1002 465 1002 q 165 888 264 1002 q 67 597 67 775 l 67 391 q 169 98 67 211 q 430 -14 270 -14 q 564 1 505 -14 q 668 43 623 16 q 772 1 713 16 q 907 -14 831 -14 q 1168 98 1067 -14 q 1270 391 1270 211 l 1270 597 q 1172 888 1270 775 q 920 1002 1073 1002 q 827 994 871 1002 q 744 973 783 987 "},"ѡ":{"ha":991,"x_min":11,"x_max":970,"o":"m 341 273 l 218 734 l 11 734 l 260 0 l 439 0 l 515 222 l 519 222 l 585 0 l 769 0 q 903 358 851 176 q 970 734 954 539 l 764 734 q 748 462 766 591 q 680 228 729 332 l 679 221 l 675 221 l 665 273 l 567 734 l 370 734 l 445 477 l 392 273 l 364 173 l 360 173 l 341 273 "},"Ѣ":{"ha":870,"x_min":4,"x_max":828,"o":"m 459 739 l 459 862 l 288 862 l 288 987 l 90 987 l 90 862 l 4 862 l 4 739 l 90 739 l 90 0 l 457 0 q 727 90 627 0 q 828 321 828 179 q 728 551 828 463 q 457 640 627 640 l 288 640 l 288 739 l 459 739 m 288 488 l 457 488 q 586 440 541 488 q 631 323 631 392 q 586 201 631 251 q 457 152 541 152 l 288 152 l 288 488 "},"ѣ":{"ha":775,"x_min":-7,"x_max":741,"o":"m 459 749 l 459 872 l 286 872 l 286 1059 l 87 1059 l 87 872 l -7 872 l -7 749 l 87 749 l 87 0 l 424 0 q 656 69 572 0 q 741 250 741 138 q 656 428 741 360 q 424 496 572 496 l 286 496 l 286 749 l 459 749 m 286 345 l 424 345 q 514 317 484 345 q 544 248 544 290 q 514 178 544 205 q 424 151 484 151 l 286 151 l 286 345 "},"Ѥ":{"ha":1240,"x_min":105,"x_max":1154,"o":"m 831 414 l 831 567 l 581 567 l 581 593 q 631 778 581 707 q 770 850 681 850 q 911 803 865 850 q 957 662 957 757 l 1149 662 l 1151 666 q 1052 914 1154 826 q 770 1002 950 1002 q 490 887 597 1002 q 384 592 384 772 l 384 567 l 303 567 l 303 987 l 105 987 l 105 0 l 303 0 l 303 414 l 384 414 l 384 396 q 493 101 384 215 q 780 -14 602 -14 q 1053 76 954 -14 q 1149 323 1152 165 l 1148 328 l 956 328 q 912 185 956 231 q 780 138 869 138 q 634 210 686 138 q 581 396 581 282 l 581 414 l 831 414 "},"ѥ":{"ha":1048,"x_min":89,"x_max":968,"o":"m 744 313 l 744 435 l 536 435 l 535 439 q 573 551 541 508 q 670 595 606 595 q 754 557 724 595 q 784 463 784 519 l 964 463 l 966 467 q 886 670 968 593 q 670 747 804 747 q 437 661 524 747 q 334 435 350 574 l 287 435 l 287 734 l 89 734 l 89 0 l 287 0 l 287 313 l 333 313 q 432 76 345 167 q 671 -14 519 -14 q 883 61 798 -14 q 966 247 968 136 l 964 251 l 784 251 q 753 169 784 199 q 671 138 723 138 q 569 185 602 138 q 533 309 536 232 l 535 313 l 744 313 "},"Ѧ":{"ha":913,"x_min":12,"x_max":911,"o":"m 616 264 l 703 0 l 911 0 l 564 987 l 361 987 l 12 0 l 219 0 l 307 264 l 374 264 l 374 0 l 541 0 l 541 264 l 616 264 m 351 401 l 459 726 l 463 726 l 571 401 l 351 401 "},"ѧ":{"ha":777,"x_min":5,"x_max":762,"o":"m 497 184 l 561 0 l 762 0 l 485 734 l 281 734 l 5 0 l 206 0 l 269 184 l 315 184 l 315 0 l 445 0 l 445 184 l 497 184 m 311 309 l 362 459 l 380 536 l 385 536 l 403 459 l 454 309 l 311 309 "},"Ѩ":{"ha":1301,"x_min":117,"x_max":1270,"o":"m 315 401 l 315 987 l 117 987 l 117 0 l 315 0 l 315 264 l 464 264 l 371 0 l 578 0 l 665 264 l 733 264 l 733 0 l 899 0 l 899 264 l 975 264 l 1062 0 l 1270 0 l 923 987 l 720 987 l 513 401 l 315 401 m 710 401 l 818 726 l 822 726 l 930 401 l 710 401 "},"ѩ":{"ha":1111,"x_min":113,"x_max":1065,"o":"m 311 309 l 311 734 l 113 734 l 113 0 l 509 0 l 572 184 l 618 184 l 618 0 l 748 0 l 748 184 l 800 184 l 864 0 l 1065 0 l 788 734 l 585 734 l 424 309 l 311 309 m 614 309 l 665 459 l 684 536 l 688 536 l 706 459 l 758 309 l 614 309 m 311 184 l 377 184 l 315 18 l 311 18 l 311 184 "},"Ѫ":{"ha":1210,"x_min":77,"x_max":1133,"o":"m 797 545 l 1051 987 l 182 987 l 435 546 q 168 471 258 545 q 77 233 77 397 l 77 0 l 275 0 l 275 233 q 314 357 275 322 q 440 391 353 391 l 515 391 l 515 0 l 713 0 l 713 391 l 770 391 q 896 357 857 391 q 935 233 935 322 l 935 0 l 1133 0 l 1133 233 q 1048 466 1133 392 q 797 545 962 540 m 616 569 l 479 833 l 753 833 l 616 569 "},"ѫ":{"ha":1018,"x_min":75,"x_max":943,"o":"m 75 0 l 272 0 l 272 121 q 302 237 272 205 q 399 270 332 270 l 413 270 l 413 0 l 611 0 l 611 270 l 618 270 q 716 237 686 270 q 746 121 746 205 l 746 0 l 943 0 l 943 121 q 878 328 943 258 q 688 412 813 398 l 876 734 l 153 734 l 340 413 q 142 331 209 401 q 75 121 75 261 l 75 0 m 512 431 l 429 606 l 600 606 l 516 431 l 512 431 "},"Ѭ":{"ha":1616,"x_min":104,"x_max":1518,"o":"m 883 392 l 883 547 l 225 547 l 225 392 l 883 392 m 302 0 l 302 987 l 104 987 l 104 0 l 302 0 m 1181 545 l 1436 987 l 566 987 l 820 546 q 552 471 643 545 q 461 233 461 397 l 461 0 l 659 0 l 659 233 q 698 357 659 322 q 825 391 737 391 l 899 391 l 899 0 l 1097 0 l 1097 391 l 1154 391 q 1280 357 1241 391 q 1320 233 1320 322 l 1320 0 l 1518 0 l 1518 233 q 1432 466 1518 392 q 1181 545 1347 540 m 1001 569 l 864 833 l 1138 833 l 1001 569 "},"ѭ":{"ha":1398,"x_min":90,"x_max":1286,"o":"m 833 275 l 833 416 l 157 416 l 157 275 l 833 275 m 288 0 l 288 734 l 90 734 l 90 0 l 288 0 m 418 0 l 615 0 l 615 121 q 645 237 615 205 q 743 270 675 270 l 756 270 l 756 0 l 954 0 l 954 270 l 962 270 q 1059 237 1029 270 q 1089 121 1089 205 l 1089 0 l 1286 0 l 1286 121 q 1221 328 1286 258 q 1031 412 1156 398 l 1219 734 l 496 734 l 683 413 q 485 331 552 401 q 418 121 418 261 l 418 0 m 855 431 l 772 606 l 943 606 l 859 431 l 855 431 "},"Ѯ":{"ha":713,"x_min":3,"x_max":642,"o":"m 263 585 l 161 585 l 161 427 l 258 427 q 397 388 349 427 q 444 274 444 349 q 402 179 444 216 q 289 143 361 143 l 245 143 q 67 93 132 143 q 3 -54 3 43 q 61 -214 4 -149 q 226 -304 118 -279 l 281 -188 q 212 -145 241 -170 q 184 -79 184 -120 q 202 -32 184 -49 q 260 -14 220 -14 l 300 -14 q 549 63 456 -14 q 642 277 642 140 q 594 419 642 361 q 455 507 546 478 q 571 593 530 536 q 612 729 612 649 q 517 922 612 857 q 258 987 422 987 l 82 987 l 82 831 l 258 831 q 375 799 336 831 q 414 713 414 768 q 377 619 414 654 q 263 585 340 585 m 380 1213 l 302 1299 l 123 1299 l 123 1288 l 313 1114 l 448 1114 l 639 1287 l 639 1299 l 460 1299 l 380 1213 "},"ѯ":{"ha":701,"x_min":19,"x_max":625,"o":"m 274 425 l 161 425 l 161 304 l 269 304 q 387 281 346 304 q 427 212 427 257 q 387 149 427 173 q 279 125 347 125 l 241 125 q 78 80 136 125 q 19 -54 19 35 q 76 -202 20 -139 q 221 -294 132 -266 l 277 -188 q 215 -145 240 -170 q 189 -79 189 -120 q 210 -32 189 -49 q 277 -14 231 -14 l 310 -14 q 539 44 453 -14 q 625 206 625 103 q 585 304 625 263 q 472 367 546 345 q 562 432 530 391 q 594 531 594 474 q 504 683 594 631 q 258 734 414 734 l 82 734 l 82 595 l 258 595 q 362 573 327 595 q 397 515 397 551 q 367 449 397 473 q 274 425 336 425 m 332 979 l 253 1065 l 74 1065 l 74 1055 l 264 881 l 399 881 l 590 1054 l 590 1065 l 411 1065 l 332 979 "},"Ѱ":{"ha":1006,"x_min":38,"x_max":964,"o":"m 602 394 l 602 987 l 405 987 l 405 395 l 401 393 q 279 468 322 406 q 235 637 235 530 l 235 987 l 38 987 l 38 637 q 136 352 38 457 q 405 232 235 246 l 405 0 l 602 0 l 602 233 q 867 355 769 250 q 964 637 964 460 l 964 987 l 766 987 l 766 637 q 725 465 766 527 q 606 393 684 404 l 602 394 "},"ѱ":{"ha":1035,"x_min":46,"x_max":990,"o":"m 610 734 l 412 734 l 412 156 l 408 155 q 288 230 332 170 q 244 398 244 289 l 244 734 l 46 734 l 46 400 q 142 114 46 215 q 412 -7 237 14 l 412 -324 l 610 -324 l 610 -9 q 899 125 808 13 q 990 401 990 238 q 966 583 990 500 q 903 734 941 667 l 719 734 q 771 564 752 646 q 793 401 791 481 q 750 238 793 304 q 614 153 707 172 l 610 155 l 610 734 "},"Ѳ":{"ha":956,"x_min":66,"x_max":890,"o":"m 890 405 l 890 583 q 774 883 890 764 q 475 1002 659 1002 q 179 883 293 1002 q 66 583 66 764 l 66 405 q 180 104 66 223 q 477 -14 294 -14 q 775 104 661 -14 q 890 405 890 222 m 603 511 q 493 550 562 511 q 380 589 425 589 q 313 574 342 589 q 263 533 283 559 l 263 584 q 319 773 263 699 q 475 847 375 847 q 635 773 577 847 q 692 584 692 699 l 692 559 q 651 525 676 538 q 603 511 626 511 m 692 419 l 692 405 q 635 214 692 288 q 477 140 578 140 q 325 206 381 140 q 264 380 269 273 q 301 432 273 410 q 359 454 330 454 q 464 414 401 454 q 582 375 526 375 q 643 387 615 375 q 692 419 671 398 "},"ѳ":{"ha":784,"x_min":45,"x_max":738,"o":"m 45 374 l 45 359 q 137 90 45 194 q 392 -14 229 -14 q 646 90 554 -14 q 738 359 738 194 l 738 374 q 646 643 738 538 q 391 747 553 747 q 137 643 229 747 q 45 374 45 538 m 483 385 q 404 412 453 385 q 322 439 355 439 q 280 429 300 439 q 252 401 260 418 l 249 404 q 283 541 248 486 q 391 595 318 595 q 492 549 456 595 q 536 427 528 503 q 514 396 529 408 q 483 385 500 385 m 306 334 q 381 307 336 334 q 467 279 427 279 q 503 286 486 279 q 529 307 520 294 l 531 303 q 493 183 528 229 q 392 138 458 138 q 296 175 331 138 q 250 278 261 212 q 270 318 254 302 q 306 334 286 334 "},"Ѵ":{"ha":892,"x_min":9,"x_max":903,"o":"m 430 268 l 218 987 l 9 987 l 342 0 l 546 0 l 770 758 q 802 818 780 796 q 852 840 823 840 q 871 838 859 840 q 887 837 884 837 l 903 987 q 872 997 889 994 q 833 1000 854 1000 q 687 943 744 1000 q 595 770 629 885 l 458 266 l 446 213 l 442 213 l 430 268 "},"ѵ":{"ha":709,"x_min":11,"x_max":720,"o":"m 327 273 l 218 734 l 11 734 l 247 0 l 436 0 l 593 518 q 622 567 602 547 q 669 587 643 587 q 689 586 677 587 q 703 585 701 585 l 720 734 q 688 745 705 742 q 650 747 671 747 q 505 692 562 747 q 416 527 448 637 l 353 273 l 342 214 l 338 214 l 327 273 "},"Ѷ":{"ha":892,"x_min":9,"x_max":903,"o":"m 430 268 l 218 987 l 9 987 l 342 0 l 546 0 l 770 758 q 802 818 780 796 q 852 840 823 840 q 871 838 859 840 q 887 837 884 837 l 903 987 q 872 997 889 994 q 833 1000 854 1000 q 687 943 744 1000 q 595 770 629 885 l 458 266 l 446 213 l 442 213 l 430 268 m 388 1082 l 225 1259 l 37 1259 l 35 1255 l 229 1078 l 387 1078 l 388 1082 m 623 1078 l 488 1259 l 302 1259 l 300 1255 l 463 1078 l 623 1078 "},"ѷ":{"ha":709,"x_min":-32,"x_max":720,"o":"m 327 273 l 218 734 l 11 734 l 247 0 l 436 0 l 593 518 q 622 567 602 547 q 669 587 643 587 q 689 586 677 587 q 703 585 701 585 l 720 734 q 688 745 705 742 q 650 747 671 747 q 505 692 562 747 q 416 527 448 637 l 353 273 l 342 214 l 338 214 l 327 273 m 321 908 l 158 1085 l -31 1085 l -32 1081 l 161 905 l 319 905 l 321 908 m 556 905 l 421 1085 l 235 1085 l 233 1082 l 396 905 l 556 905 "},"Ѹ":{"ha":1665,"x_min":66,"x_max":1662,"o":"m 890 405 l 890 583 q 774 883 890 764 q 475 1002 659 1002 q 179 883 293 1002 q 66 583 66 764 l 66 405 q 180 104 66 223 q 477 -14 294 -14 q 775 104 661 -14 q 890 405 890 222 m 692 584 l 692 405 q 635 214 692 288 q 477 140 578 140 q 319 214 376 140 q 263 405 263 288 l 263 584 q 319 773 263 699 q 475 847 375 847 q 635 773 577 847 q 692 584 692 699 m 1296 308 l 1172 734 l 959 734 l 1219 1 l 1196 -56 q 1156 -116 1182 -92 q 1080 -140 1129 -140 q 1062 -139 1072 -140 q 1043 -136 1052 -138 l 1020 -281 q 1072 -292 1050 -288 q 1118 -296 1093 -296 q 1279 -242 1225 -296 q 1364 -110 1333 -189 l 1662 734 l 1449 734 l 1308 267 l 1304 267 l 1296 308 "},"ѹ":{"ha":1493,"x_min":45,"x_max":1490,"o":"m 45 374 l 45 359 q 137 90 45 194 q 392 -14 229 -14 q 646 90 554 -14 q 738 359 738 194 l 738 374 q 646 643 738 538 q 391 747 553 747 q 137 643 229 747 q 45 374 45 538 m 243 359 l 243 374 q 278 533 243 471 q 391 595 314 595 q 504 533 468 595 q 540 374 540 471 l 540 359 q 504 199 540 260 q 392 138 469 138 q 278 198 313 138 q 243 359 243 259 m 1124 308 l 1000 734 l 787 734 l 1048 1 l 1025 -56 q 984 -116 1010 -92 q 909 -140 958 -140 q 890 -139 901 -140 q 871 -136 880 -138 l 848 -281 q 900 -292 879 -288 q 947 -296 922 -296 q 1107 -242 1054 -296 q 1192 -110 1161 -189 l 1490 734 l 1277 734 l 1137 267 l 1133 267 l 1124 308 "},"Ѻ":{"ha":956,"x_min":66,"x_max":890,"o":"m 544 762 l 544 1069 l 412 1069 l 412 762 l 544 762 m 545 -92 l 545 222 l 413 222 l 413 -92 l 545 -92 m 890 405 l 890 583 q 774 883 890 764 q 475 1002 659 1002 q 179 883 293 1002 q 66 583 66 764 l 66 405 q 180 104 66 223 q 477 -14 294 -14 q 775 104 661 -14 q 890 405 890 222 m 692 584 l 692 405 q 635 214 692 288 q 477 140 578 140 q 319 214 376 140 q 263 405 263 288 l 263 584 q 319 773 263 699 q 475 847 375 847 q 635 773 577 847 q 692 584 692 699 "},"ѻ":{"ha":784,"x_min":45,"x_max":738,"o":"m 460 517 l 460 817 l 328 817 l 328 517 l 460 517 m 456 -83 l 456 224 l 324 224 l 324 -83 l 456 -83 m 45 374 l 45 359 q 137 90 45 194 q 392 -14 229 -14 q 646 90 554 -14 q 738 359 738 194 l 738 374 q 646 643 738 538 q 391 747 553 747 q 137 643 229 747 q 45 374 45 538 m 243 359 l 243 374 q 278 533 243 471 q 391 595 314 595 q 504 533 468 595 q 540 374 540 471 l 540 359 q 504 199 540 260 q 392 138 469 138 q 278 198 313 138 q 243 359 243 259 "},"Ѽ":{"ha":1332,"x_min":67,"x_max":1270,"o":"m 764 973 l 806 829 q 855 844 828 838 q 915 849 882 849 q 1029 771 985 849 q 1073 572 1073 694 l 1073 425 q 1027 218 1073 298 q 907 138 982 138 q 818 154 849 138 q 768 197 786 171 l 768 224 l 570 224 l 570 197 q 519 154 551 171 q 430 138 488 138 q 310 218 355 138 q 264 425 264 298 l 264 572 q 308 771 264 694 q 422 849 351 849 q 481 844 454 849 q 531 829 509 838 l 573 973 q 499 994 538 987 q 418 1002 460 1002 q 165 881 264 1002 q 67 570 67 760 l 67 425 q 169 108 67 230 q 430 -14 270 -14 q 564 4 505 -14 q 669 54 623 22 q 772 4 713 22 q 907 -14 831 -14 q 1168 108 1067 -14 q 1270 425 1270 230 l 1270 570 q 1172 881 1270 760 q 920 1002 1073 1002 q 838 994 877 1002 q 764 973 799 987 m 989 1273 l 975 1273 q 794 1314 899 1273 q 642 1354 690 1354 q 526 1318 566 1354 q 485 1207 485 1281 l 485 1182 l 575 1182 l 575 1194 q 593 1246 575 1229 q 645 1263 612 1263 q 779 1223 672 1263 q 974 1182 886 1182 l 989 1182 l 989 1273 m 651 982 l 758 1105 l 758 1192 l 635 1192 l 635 1093 l 595 1019 l 651 982 "},"ѽ":{"ha":1141,"x_min":57,"x_max":1090,"o":"m 646 720 l 688 575 q 729 590 706 585 q 779 595 752 595 q 862 537 830 595 q 893 385 893 478 l 893 353 q 860 198 893 258 q 772 138 826 138 q 708 152 730 138 q 673 188 686 165 l 673 229 l 475 229 l 475 188 q 439 152 461 165 q 376 138 416 138 q 288 198 321 138 q 254 353 254 258 l 254 385 q 286 537 254 478 q 368 595 317 595 q 418 590 395 595 q 460 575 441 585 l 502 720 q 436 741 471 733 q 363 748 401 748 q 143 646 229 748 q 57 384 57 544 l 57 353 q 146 88 57 191 q 376 -14 235 -14 q 486 1 437 -14 q 574 45 535 17 q 661 1 612 17 q 772 -14 710 -14 q 1001 88 911 -14 q 1090 353 1090 191 l 1090 384 q 1004 646 1090 544 q 784 748 918 748 q 711 741 745 748 q 646 720 676 733 m 911 1015 l 897 1015 q 716 1055 821 1015 q 564 1096 612 1096 q 447 1059 488 1096 q 406 949 406 1023 l 406 924 l 496 924 l 496 936 q 515 988 496 970 q 566 1005 534 1005 q 701 964 594 1005 q 895 924 808 924 l 911 924 l 911 1015 m 573 732 l 680 856 l 680 934 l 557 934 l 557 844 l 517 770 l 573 732 "},"Ѿ":{"ha":1333,"x_min":67,"x_max":1270,"o":"m 485 1144 l 598 1144 l 598 1058 l 721 1058 l 721 1144 l 844 1144 l 844 1058 l 965 1058 l 965 1220 l 365 1220 l 364 1059 l 485 1058 l 485 1144 m 785 829 l 744 973 q 827 994 783 987 q 920 1002 871 1002 q 1172 888 1073 1002 q 1270 597 1270 775 l 1270 391 q 1168 98 1270 211 q 907 -14 1067 -14 q 772 1 831 -14 q 668 43 713 16 q 564 1 623 16 q 430 -14 505 -14 q 169 98 270 -14 q 67 391 67 211 l 67 597 q 165 888 67 775 q 418 1002 264 1002 q 510 994 465 1002 q 593 973 554 987 l 551 829 q 492 844 525 838 q 422 849 460 849 q 308 779 351 849 q 264 598 264 709 l 264 391 q 310 208 264 279 q 430 138 355 138 q 519 152 488 138 q 570 188 551 165 l 570 375 l 442 375 l 442 512 l 895 512 l 895 375 l 768 375 l 768 188 q 818 152 786 165 q 907 138 849 138 q 1027 208 982 138 q 1072 391 1072 279 l 1072 598 q 1029 779 1072 709 q 915 849 985 849 q 844 844 877 849 q 785 829 812 838 "},"ѿ":{"ha":991,"x_min":11,"x_max":970,"o":"m 347 912 l 439 912 l 439 826 l 562 826 l 562 912 l 665 912 l 665 826 l 786 826 l 786 988 l 227 988 l 227 827 l 347 826 l 347 912 m 218 734 l 341 273 l 360 173 l 364 173 l 392 273 l 445 477 l 370 734 l 567 734 l 665 273 l 675 221 l 679 221 l 680 228 q 748 462 729 332 q 764 734 766 591 l 970 734 q 903 358 954 539 q 769 0 851 176 l 585 0 l 519 222 l 515 222 l 439 0 l 260 0 l 11 734 l 218 734 "},"Ҁ":{"ha":866,"x_min":62,"x_max":810,"o":"m 571 -248 l 571 138 l 444 138 q 308 209 355 138 q 260 395 260 281 l 260 593 q 308 778 260 707 q 444 849 355 849 q 573 803 532 849 q 614 661 614 757 l 806 661 l 808 665 q 714 914 810 826 q 444 1002 618 1002 q 166 887 271 1002 q 62 591 62 772 l 62 395 q 146 123 62 233 q 374 -9 230 14 l 374 -248 l 571 -248 "},"ҁ":{"ha":743,"x_min":58,"x_max":696,"o":"m 526 -249 l 526 138 l 398 138 q 288 198 321 138 q 256 356 256 259 l 256 376 q 289 533 256 471 q 397 595 321 595 q 481 557 450 595 q 512 463 512 519 l 692 463 l 694 467 q 614 670 696 593 q 397 747 532 747 q 147 643 236 747 q 58 376 58 538 l 58 356 q 129 113 58 213 q 328 -8 199 14 l 328 -249 l 526 -249 "},"҂":{"ha":865,"x_min":73,"x_max":793,"o":"m 408 304 l 546 549 l 741 433 l 793 519 l 594 635 l 749 910 l 632 910 l 507 689 l 309 805 l 260 717 l 456 601 l 319 357 l 121 473 l 73 386 l 269 270 l 116 0 l 235 0 l 357 216 l 555 101 l 604 188 l 408 304 "},"҃":{"ha":618,"x_min":62,"x_max":553,"o":"m 182 890 l 553 890 l 553 1039 l 433 1040 l 433 966 l 63 966 l 62 805 l 182 804 l 182 890 "},"҄":{"ha":646,"x_min":69,"x_max":586,"o":"m 83 975 l 69 975 l 69 884 l 85 884 q 283 924 174 884 q 422 965 393 965 q 474 948 454 965 q 494 896 494 930 l 494 884 l 586 884 l 586 909 q 544 1019 586 983 q 425 1056 501 1056 q 268 1015 375 1056 q 83 975 160 975 "},"҅":{"ha":323,"x_min":85,"x_max":252,"o":"m 85 1017 l 197 885 l 252 931 l 213 1005 l 214 1113 l 85 1113 l 85 1017 "},"҆":{"ha":333,"x_min":73,"x_max":240,"o":"m 127 885 l 240 1017 l 240 1113 l 111 1113 l 112 1005 l 73 931 l 127 885 "}}}
